G04*
G04 #@! TF.GenerationSoftware,Altium Limited,Altium Designer,25.5.2 (35)*
G04*
G04 Layer_Color=8421504*
%FSLAX44Y44*%
%MOMM*%
G71*
G04*
G04 #@! TF.SameCoordinates,5F75CC16-15F1-4AC5-BF31-021AB63D6FFF*
G04*
G04*
G04 #@! TF.FilePolarity,Positive*
G04*
G01*
G75*
%ADD18R,1.5700X1.2500*%
%ADD19R,1.8000X1.3500*%
%ADD20R,1.0000X1.5000*%
%ADD21R,1.0000X1.5000*%
%ADD22R,1.0000X1.1250*%
%ADD23R,1.0000X1.1250*%
%ADD24R,1.0000X1.1250*%
%ADD25R,1.0000X1.1250*%
%ADD26R,1.0000X1.1250*%
G04:AMPARAMS|DCode=27|XSize=1.77mm|YSize=0.59mm|CornerRadius=0.0738mm|HoleSize=0mm|Usage=FLASHONLY|Rotation=270.000|XOffset=0mm|YOffset=0mm|HoleType=Round|Shape=RoundedRectangle|*
%AMROUNDEDRECTD27*
21,1,1.7700,0.4425,0,0,270.0*
21,1,1.6225,0.5900,0,0,270.0*
1,1,0.1475,-0.2213,-0.8113*
1,1,0.1475,-0.2213,0.8113*
1,1,0.1475,0.2213,0.8113*
1,1,0.1475,0.2213,-0.8113*
%
%ADD27ROUNDEDRECTD27*%
%ADD28R,1.0500X1.4500*%
%ADD29R,0.5321X1.2744*%
G04:AMPARAMS|DCode=30|XSize=1.2744mm|YSize=0.5321mm|CornerRadius=0.2661mm|HoleSize=0mm|Usage=FLASHONLY|Rotation=90.000|XOffset=0mm|YOffset=0mm|HoleType=Round|Shape=RoundedRectangle|*
%AMROUNDEDRECTD30*
21,1,1.2744,0.0000,0,0,90.0*
21,1,0.7422,0.5321,0,0,90.0*
1,1,0.5321,0.0000,0.3711*
1,1,0.5321,0.0000,-0.3711*
1,1,0.5321,0.0000,-0.3711*
1,1,0.5321,0.0000,0.3711*
%
%ADD30ROUNDEDRECTD30*%
G04:AMPARAMS|DCode=31|XSize=0.6mm|YSize=1mm|CornerRadius=0.051mm|HoleSize=0mm|Usage=FLASHONLY|Rotation=90.000|XOffset=0mm|YOffset=0mm|HoleType=Round|Shape=RoundedRectangle|*
%AMROUNDEDRECTD31*
21,1,0.6000,0.8980,0,0,90.0*
21,1,0.4980,1.0000,0,0,90.0*
1,1,0.1020,0.4490,0.2490*
1,1,0.1020,0.4490,-0.2490*
1,1,0.1020,-0.4490,-0.2490*
1,1,0.1020,-0.4490,0.2490*
%
%ADD31ROUNDEDRECTD31*%
%ADD32R,0.9000X0.7500*%
%ADD33R,1.2000X0.9000*%
%ADD34R,3.7000X1.2000*%
%ADD35O,1.5240X0.6096*%
%ADD36R,1.2621X0.8581*%
%ADD37R,1.3500X1.0000*%
%ADD38R,0.8000X0.8000*%
%ADD39R,1.4000X0.8000*%
%ADD40R,0.6000X0.9000*%
G04:AMPARAMS|DCode=41|XSize=1.6mm|YSize=1mm|CornerRadius=0.25mm|HoleSize=0mm|Usage=FLASHONLY|Rotation=270.000|XOffset=0mm|YOffset=0mm|HoleType=Round|Shape=RoundedRectangle|*
%AMROUNDEDRECTD41*
21,1,1.6000,0.5000,0,0,270.0*
21,1,1.1000,1.0000,0,0,270.0*
1,1,0.5000,-0.2500,-0.5500*
1,1,0.5000,-0.2500,0.5500*
1,1,0.5000,0.2500,0.5500*
1,1,0.5000,0.2500,-0.5500*
%
%ADD41ROUNDEDRECTD41*%
%ADD42R,1.5562X1.2552*%
%ADD43R,1.2062X0.9562*%
%ADD44R,1.4500X1.0500*%
%ADD45R,0.8500X0.8000*%
%ADD46R,1.3500X1.0000*%
%ADD47R,1.8545X2.2860*%
%ADD48R,1.2621X0.9546*%
%ADD49R,0.9000X0.7500*%
%ADD50R,1.5000X1.2500*%
%ADD51R,1.5240X0.6096*%
G04:AMPARAMS|DCode=52|XSize=1mm|YSize=1.525mm|CornerRadius=0.5mm|HoleSize=0mm|Usage=FLASHONLY|Rotation=90.000|XOffset=0mm|YOffset=0mm|HoleType=Round|Shape=RoundedRectangle|*
%AMROUNDEDRECTD52*
21,1,1.0000,0.5250,0,0,90.0*
21,1,0.0000,1.5250,0,0,90.0*
1,1,1.0000,0.2625,0.0000*
1,1,1.0000,0.2625,0.0000*
1,1,1.0000,-0.2625,0.0000*
1,1,1.0000,-0.2625,0.0000*
%
%ADD52ROUNDEDRECTD52*%
G36*
X178500Y698500D02*
X161500D01*
Y681500D01*
X166150Y681500D01*
X166404Y681475D01*
X166872Y681281D01*
X167231Y680922D01*
X167425Y680454D01*
X167450Y680200D01*
X167450Y680200D01*
X167450Y670300D01*
X172550D01*
Y680200D01*
X172575Y680454D01*
X172769Y680922D01*
X173128Y681281D01*
X173596Y681475D01*
X173850Y681500D01*
X173850Y681500D01*
X178500Y681500D01*
Y698500D01*
D02*
G37*
G36*
X141500Y681500D02*
X158500D01*
Y698500D01*
X153850D01*
X153596Y698525D01*
X153128Y698719D01*
X152769Y699078D01*
X152575Y699546D01*
X152550Y699800D01*
Y699800D01*
X152550Y709700D01*
X147450D01*
X147450Y699800D01*
X147425Y699546D01*
X147231Y699078D01*
X146872Y698719D01*
X146404Y698525D01*
X146150Y698500D01*
X146150Y698500D01*
X141500Y698500D01*
Y681500D01*
D02*
G37*
G36*
X1188500Y268500D02*
Y251500D01*
X1171500D01*
X1171500Y256150D01*
X1171475Y256404D01*
X1171281Y256872D01*
X1170922Y257231D01*
X1170454Y257425D01*
X1170200Y257450D01*
X1170200Y257450D01*
X1160300Y257450D01*
Y262550D01*
X1170200D01*
X1170454Y262575D01*
X1170922Y262769D01*
X1171281Y263128D01*
X1171475Y263596D01*
X1171500Y263850D01*
X1171500D01*
Y268500D01*
X1188500D01*
D02*
G37*
G36*
X1171500Y231500D02*
Y248500D01*
X1188500D01*
Y243850D01*
X1188525Y243596D01*
X1188719Y243128D01*
X1189078Y242769D01*
X1189546Y242575D01*
X1189800Y242550D01*
D01*
X1199700D01*
Y237450D01*
X1189800Y237450D01*
X1189546Y237425D01*
X1189078Y237231D01*
X1188719Y236872D01*
X1188525Y236404D01*
X1188500Y236150D01*
Y236150D01*
Y231500D01*
X1171500D01*
D02*
G37*
G36*
Y271500D02*
Y288500D01*
X1188500D01*
Y283850D01*
X1188525Y283596D01*
X1188719Y283128D01*
X1189078Y282769D01*
X1189546Y282575D01*
X1189800Y282550D01*
D01*
X1199700D01*
Y277450D01*
X1189800Y277450D01*
X1189546Y277425D01*
X1189078Y277231D01*
X1188719Y276872D01*
X1188525Y276404D01*
X1188500Y276150D01*
Y276150D01*
Y271500D01*
X1171500D01*
D02*
G37*
D18*
X1769350Y711247D02*
D03*
X1730650D02*
D03*
X1689350Y711250D02*
D03*
X1650650D02*
D03*
X1609350Y711250D02*
D03*
X1570650D02*
D03*
X1529350Y711251D02*
D03*
X1490650D02*
D03*
D19*
X1750000Y693729D02*
D03*
X1670000Y693749D02*
D03*
X1590000Y693713D02*
D03*
X1510000Y693750D02*
D03*
D20*
X1734500Y694500D02*
D03*
X1685500D02*
D03*
X1605500D02*
D03*
X1525500D02*
D03*
D21*
X1765500D02*
D03*
X1654500D02*
D03*
X1574500D02*
D03*
X1494500D02*
D03*
D22*
X251510Y689763D02*
D03*
X251515Y663269D02*
D03*
D23*
X251514Y676514D02*
D03*
X263512Y676517D02*
D03*
Y650017D02*
D03*
X275514Y676514D02*
D03*
X287512Y676517D02*
D03*
X299514Y676514D02*
D03*
X299512Y650016D02*
D03*
D24*
X251517Y650016D02*
D03*
D25*
X263513Y689765D02*
D03*
X263512Y663266D02*
D03*
X275513Y689765D02*
D03*
X275512Y663266D02*
D03*
X287513Y689765D02*
D03*
X287512Y663266D02*
D03*
X299513Y689765D02*
D03*
X299512Y663266D02*
D03*
D26*
X275516Y650016D02*
D03*
X287512Y650013D02*
D03*
D27*
X1770800Y337750D02*
D03*
X1758100D02*
D03*
X1745400D02*
D03*
X1732700D02*
D03*
X1720000D02*
D03*
X1707300D02*
D03*
X1694600D02*
D03*
X1681900D02*
D03*
X1669200D02*
D03*
X1770800Y242250D02*
D03*
X1758100D02*
D03*
X1745400D02*
D03*
X1732700D02*
D03*
X1720000D02*
D03*
X1707300D02*
D03*
X1694600D02*
D03*
X1681900D02*
D03*
X1669200D02*
D03*
X950800Y337750D02*
D03*
X938100D02*
D03*
X925400D02*
D03*
X912700D02*
D03*
X900000D02*
D03*
X887300D02*
D03*
X874600D02*
D03*
X861900D02*
D03*
X950800Y242250D02*
D03*
X938100D02*
D03*
X925400D02*
D03*
X912700D02*
D03*
X900000D02*
D03*
X887300D02*
D03*
X874600D02*
D03*
X861900D02*
D03*
X849200D02*
D03*
Y337750D02*
D03*
X785400D02*
D03*
X772700D02*
D03*
X760000D02*
D03*
X747300D02*
D03*
X734600D02*
D03*
X721900D02*
D03*
X810800Y242250D02*
D03*
X798100D02*
D03*
X785400D02*
D03*
X772700D02*
D03*
X760000D02*
D03*
X747300D02*
D03*
X734600D02*
D03*
X721900D02*
D03*
X810800Y337750D02*
D03*
X798100D02*
D03*
X709200Y242250D02*
D03*
Y337750D02*
D03*
X1529200D02*
D03*
Y242250D02*
D03*
X1541900D02*
D03*
X1554600D02*
D03*
X1567300D02*
D03*
X1580000D02*
D03*
X1592700D02*
D03*
X1605400D02*
D03*
X1618100D02*
D03*
X1630800D02*
D03*
X1541900Y337750D02*
D03*
X1554600D02*
D03*
X1567300D02*
D03*
X1580000D02*
D03*
X1592700D02*
D03*
X1605400D02*
D03*
X1618100D02*
D03*
X1630800D02*
D03*
D28*
X1439250Y350000D02*
D03*
X1420750D02*
D03*
X1379250D02*
D03*
X1360750D02*
D03*
X1319250D02*
D03*
X1300750D02*
D03*
X1259250D02*
D03*
X1240750D02*
D03*
X590750D02*
D03*
X609250D02*
D03*
X530750D02*
D03*
X549250D02*
D03*
X470750D02*
D03*
X489250D02*
D03*
X410750D02*
D03*
X429250D02*
D03*
X350750D02*
D03*
X369250D02*
D03*
X290750D02*
D03*
X309250D02*
D03*
X230750D02*
D03*
X249250D02*
D03*
X170750D02*
D03*
X189250D02*
D03*
X110750D02*
D03*
X129250D02*
D03*
D29*
X1090500Y281649D02*
D03*
X990500Y221649D02*
D03*
X1090500D02*
D03*
D30*
X1100000Y298351D02*
D03*
X1109500Y281649D02*
D03*
X1000000Y238351D02*
D03*
X1009500Y221649D02*
D03*
X1109500D02*
D03*
X1100000Y238351D02*
D03*
D31*
X1686263Y649390D02*
D03*
X1526263D02*
D03*
X1686263Y630391D02*
D03*
X1526263D02*
D03*
X1686263Y639891D02*
D03*
X1526263D02*
D03*
X1553763Y649390D02*
D03*
Y630391D02*
D03*
X1713763Y649390D02*
D03*
Y630391D02*
D03*
D32*
X1660013Y629891D02*
D03*
X1500013Y632141D02*
D03*
X1660013Y645391D02*
D03*
X1640013Y597641D02*
D03*
X1500013Y647641D02*
D03*
X1800013Y597641D02*
D03*
X1640013Y582141D02*
D03*
X1800013D02*
D03*
D33*
X1724000Y467250D02*
D03*
X1214013Y467141D02*
D03*
X1424013D02*
D03*
X914013D02*
D03*
X704013D02*
D03*
X404013D02*
D03*
X194013D02*
D03*
X1724000Y452750D02*
D03*
X1424013Y452640D02*
D03*
X1214013D02*
D03*
X914013D02*
D03*
X704013D02*
D03*
X404013D02*
D03*
X194013D02*
D03*
X1696000Y452750D02*
D03*
X1396013Y452640D02*
D03*
X1186013D02*
D03*
X886013D02*
D03*
X676013D02*
D03*
X376013D02*
D03*
X166013D02*
D03*
X1696000Y467250D02*
D03*
X1396013Y467141D02*
D03*
X1186013D02*
D03*
X166013D02*
D03*
X376013D02*
D03*
X676013D02*
D03*
X886013D02*
D03*
D34*
X300013Y575891D02*
D03*
Y603891D02*
D03*
D35*
X170013Y602891D02*
D03*
X231513D02*
D03*
Y589891D02*
D03*
X170013Y577391D02*
D03*
X231513D02*
D03*
Y615391D02*
D03*
X170013Y589891D02*
D03*
D36*
X1770013Y647661D02*
D03*
Y632121D02*
D03*
D37*
X1610013Y639891D02*
D03*
Y619891D02*
D03*
D38*
X1580013Y637391D02*
D03*
Y622391D02*
D03*
D39*
X1834000Y405000D02*
D03*
Y335000D02*
D03*
Y375000D02*
D03*
Y305000D02*
D03*
D40*
X1830000Y390000D02*
D03*
Y320000D02*
D03*
D41*
X1417300Y325750D02*
D03*
X1357300D02*
D03*
X1417300Y234250D02*
D03*
X1297301Y325750D02*
D03*
X1237300Y325750D02*
D03*
X1297301Y234250D02*
D03*
X1357300Y234250D02*
D03*
X1237300D02*
D03*
X587313Y325640D02*
D03*
X527313D02*
D03*
X467313D02*
D03*
X407313D02*
D03*
X347313D02*
D03*
X287313D02*
D03*
X167313D02*
D03*
X227313D02*
D03*
X107313D02*
D03*
X527313Y234141D02*
D03*
X107313D02*
D03*
X467313D02*
D03*
X587313D02*
D03*
X347313D02*
D03*
X407313D02*
D03*
X227313D02*
D03*
X287313D02*
D03*
X167313D02*
D03*
X492713D02*
D03*
X192713D02*
D03*
X432713D02*
D03*
X312713D02*
D03*
X552713D02*
D03*
X252713D02*
D03*
X132713D02*
D03*
X372713D02*
D03*
X612713D02*
D03*
X1262700Y234250D02*
D03*
X1382700D02*
D03*
X1322701Y234250D02*
D03*
X1442700Y234250D02*
D03*
Y325750D02*
D03*
X1382700D02*
D03*
X1322701Y325750D02*
D03*
X1262700Y325750D02*
D03*
X132713Y325640D02*
D03*
X372713D02*
D03*
X432713D02*
D03*
X612713D02*
D03*
X552713D02*
D03*
X492713D02*
D03*
X252713D02*
D03*
X312713D02*
D03*
X192713D02*
D03*
D42*
X1134191Y300255D02*
D03*
X1134191Y240255D02*
D03*
X1034191Y240421D02*
D03*
X1134191Y219745D02*
D03*
X1034191Y219911D02*
D03*
X1134191Y279745D02*
D03*
D43*
X260013Y600141D02*
D03*
Y579641D02*
D03*
D44*
X1810000Y329250D02*
D03*
Y380750D02*
D03*
Y399250D02*
D03*
Y310750D02*
D03*
D45*
X1580013Y583391D02*
D03*
Y596391D02*
D03*
D46*
X1610013Y580891D02*
D03*
Y598891D02*
D03*
D47*
X1558935Y589891D02*
D03*
X1681090D02*
D03*
X1718935D02*
D03*
X1521090D02*
D03*
D48*
X970000Y237758D02*
D03*
X1070000Y297758D02*
D03*
Y237758D02*
D03*
X970000Y222242D02*
D03*
X1070000D02*
D03*
Y282242D02*
D03*
D49*
X1740013Y583641D02*
D03*
Y596141D02*
D03*
D50*
X1770013Y579391D02*
D03*
Y600391D02*
D03*
D51*
X170013Y615391D02*
D03*
D52*
X202013Y646891D02*
D03*
Y692890D02*
D03*
M02*
