G04*
G04 #@! TF.GenerationSoftware,Altium Limited,Altium Designer,25.5.2 (35)*
G04*
G04 Layer_Color=32896*
%FSLAX44Y44*%
%MOMM*%
G71*
G04*
G04 #@! TF.SameCoordinates,D9E2C172-A1AF-44C0-98D0-4809437D878E*
G04*
G04*
G04 #@! TF.FilePolarity,Positive*
G04*
G01*
G75*
%ADD10C,0.2500*%
%ADD11C,0.2540*%
%ADD15C,0.1520*%
%ADD16C,0.1270*%
G36*
X1489316Y657427D02*
X1489577D01*
Y655733D01*
X1489446D01*
Y655603D01*
X1487752D01*
Y657036D01*
X1487622D01*
Y657296D01*
X1487752D01*
Y657427D01*
X1487883D01*
Y657557D01*
X1489316D01*
Y657427D01*
D02*
G37*
G36*
X1483713D02*
X1483844D01*
Y655733D01*
X1483713D01*
Y655603D01*
X1482020D01*
Y655863D01*
Y655993D01*
Y657166D01*
X1481889D01*
Y657296D01*
X1482020D01*
Y657427D01*
X1482150D01*
Y657557D01*
X1483713D01*
Y657427D01*
D02*
G37*
G36*
X1470554D02*
X1470684D01*
Y655733D01*
X1470554D01*
Y655603D01*
X1468860D01*
Y655733D01*
X1468730D01*
Y656515D01*
Y656645D01*
Y657427D01*
X1468860D01*
Y657557D01*
X1470554D01*
Y657427D01*
D02*
G37*
G36*
X1466775D02*
X1466906D01*
Y655733D01*
X1466775D01*
Y655603D01*
X1465081D01*
Y655733D01*
X1464951D01*
Y656906D01*
Y657036D01*
Y657427D01*
X1465081D01*
Y657557D01*
X1466775D01*
Y657427D01*
D02*
G37*
G36*
X1462866D02*
X1463127D01*
Y655733D01*
X1462997D01*
Y655603D01*
X1459348D01*
Y655733D01*
Y657427D01*
X1459479D01*
Y657557D01*
X1462866D01*
Y657427D01*
D02*
G37*
G36*
X1478111D02*
X1478241D01*
Y655603D01*
X1482020D01*
Y651954D01*
X1481889D01*
Y651824D01*
X1478241D01*
Y650130D01*
X1478111D01*
Y650000D01*
X1476547D01*
Y649870D01*
X1476287D01*
Y648046D01*
X1478111D01*
Y647915D01*
X1478241D01*
Y646352D01*
X1478111D01*
Y646221D01*
X1477980D01*
Y646091D01*
X1477720D01*
Y646221D01*
X1476678D01*
Y646091D01*
X1476287D01*
Y644397D01*
X1476156D01*
Y644267D01*
X1474462D01*
Y644788D01*
Y644919D01*
Y646091D01*
X1474853D01*
Y646221D01*
X1475896D01*
Y646091D01*
X1476026D01*
Y646221D01*
X1476287D01*
Y648046D01*
X1474462D01*
Y646221D01*
X1474202D01*
Y646091D01*
X1474072D01*
Y646221D01*
X1472508D01*
Y648046D01*
X1470814D01*
Y648176D01*
X1470684D01*
Y649870D01*
X1470554D01*
Y650000D01*
X1468860D01*
Y649739D01*
X1468730D01*
Y648176D01*
X1468599D01*
Y648046D01*
X1465081D01*
Y647915D01*
X1464951D01*
Y644267D01*
X1463257D01*
Y644397D01*
X1463127D01*
Y645961D01*
X1462997D01*
Y646091D01*
X1462866D01*
Y646221D01*
X1461433D01*
Y646091D01*
X1461303D01*
Y645831D01*
X1461173D01*
Y635016D01*
X1461303D01*
Y634756D01*
X1462736D01*
Y634886D01*
X1462997D01*
Y635016D01*
X1463127D01*
Y636580D01*
X1463257D01*
Y636710D01*
X1464821D01*
Y636840D01*
X1464951D01*
Y644137D01*
X1465081D01*
Y644267D01*
X1466775D01*
Y644397D01*
X1466906D01*
Y646091D01*
X1467036D01*
Y646221D01*
X1467427D01*
Y646091D01*
X1467557D01*
Y646221D01*
X1468078D01*
Y646091D01*
X1468339D01*
Y646221D01*
X1468599D01*
Y646091D01*
X1468730D01*
Y642573D01*
X1468860D01*
Y642443D01*
X1470554D01*
Y642573D01*
X1470684D01*
Y646091D01*
X1470814D01*
Y646221D01*
X1471205D01*
Y646091D01*
X1471335D01*
Y646221D01*
X1472508D01*
Y642573D01*
X1472638D01*
Y642443D01*
X1474332D01*
Y642313D01*
X1474462D01*
Y640619D01*
X1474332D01*
Y640489D01*
X1470684D01*
Y638665D01*
X1470814D01*
Y638534D01*
X1471075D01*
Y638665D01*
X1476156D01*
Y638534D01*
X1476287D01*
Y632932D01*
X1478111D01*
Y632801D01*
X1478241D01*
Y630977D01*
X1479935D01*
Y631107D01*
X1480065D01*
Y632801D01*
X1480456D01*
Y632932D01*
X1481759D01*
Y632801D01*
X1481889D01*
Y632671D01*
X1482020D01*
Y630977D01*
X1483844D01*
Y632671D01*
X1483974D01*
Y632801D01*
X1484234D01*
Y632932D01*
X1485668D01*
Y633062D01*
X1485798D01*
Y636450D01*
X1485668D01*
Y636580D01*
X1485538D01*
Y636710D01*
X1483974D01*
Y636840D01*
X1483844D01*
Y640358D01*
X1483974D01*
Y640489D01*
X1485538D01*
Y640358D01*
X1485668D01*
Y640228D01*
X1485798D01*
Y638795D01*
X1485928D01*
Y638665D01*
X1486189D01*
Y638534D01*
X1486449D01*
Y638665D01*
X1487752D01*
Y634886D01*
X1487883D01*
Y634756D01*
X1489316D01*
Y634886D01*
X1489446D01*
Y635016D01*
X1489577D01*
Y638665D01*
X1487752D01*
Y641792D01*
X1487622D01*
Y642052D01*
X1487752D01*
Y642313D01*
X1487883D01*
Y642443D01*
X1489446D01*
Y642573D01*
X1489577D01*
Y646091D01*
X1489316D01*
Y646221D01*
X1488925D01*
Y646091D01*
X1488795D01*
Y646221D01*
X1488013D01*
Y646091D01*
X1487752D01*
Y645700D01*
X1487622D01*
Y645570D01*
X1487752D01*
Y642704D01*
X1487622D01*
Y642443D01*
X1480326D01*
Y642313D01*
X1480195D01*
Y642182D01*
X1480065D01*
Y640489D01*
X1481889D01*
Y640228D01*
X1482020D01*
Y638795D01*
X1481889D01*
Y638665D01*
X1481759D01*
Y638534D01*
X1481498D01*
Y638665D01*
X1480195D01*
Y638795D01*
X1480065D01*
Y640489D01*
X1478241D01*
Y638795D01*
X1478111D01*
Y638665D01*
X1477980D01*
Y638534D01*
X1477720D01*
Y638665D01*
X1476938D01*
Y638534D01*
X1476808D01*
Y638665D01*
X1476417D01*
Y638795D01*
X1476287D01*
Y642182D01*
X1476417D01*
Y642313D01*
X1476547D01*
Y642443D01*
X1478111D01*
Y642573D01*
X1478241D01*
Y646091D01*
X1478632D01*
Y646221D01*
X1479674D01*
Y646091D01*
X1479805D01*
Y646221D01*
X1480065D01*
Y647915D01*
X1480195D01*
Y648046D01*
X1481889D01*
Y648176D01*
X1482020D01*
Y651824D01*
X1483844D01*
Y653518D01*
X1483974D01*
Y653648D01*
X1484104D01*
Y653779D01*
X1485668D01*
Y653909D01*
X1485798D01*
Y655603D01*
X1487752D01*
Y654300D01*
Y654169D01*
X1487622D01*
Y653909D01*
X1487752D01*
Y653779D01*
X1491401D01*
Y653648D01*
X1491531D01*
Y651954D01*
X1491270D01*
Y651824D01*
X1489707D01*
Y651694D01*
X1489577D01*
Y650000D01*
X1491270D01*
Y649870D01*
X1491531D01*
Y642443D01*
X1493094D01*
Y642313D01*
X1493355D01*
Y640619D01*
X1493485D01*
Y640489D01*
X1495179D01*
Y640749D01*
X1495309D01*
Y641140D01*
X1495179D01*
Y641270D01*
X1495309D01*
Y641792D01*
X1495179D01*
Y642052D01*
X1495309D01*
Y642313D01*
X1495440D01*
Y642443D01*
X1497003D01*
Y642313D01*
X1497134D01*
Y640619D01*
X1497264D01*
Y640489D01*
X1498958D01*
Y640749D01*
X1499088D01*
Y642313D01*
X1499218D01*
Y642443D01*
X1504560D01*
Y642313D01*
X1504691D01*
Y640619D01*
X1504821D01*
Y640489D01*
X1506515D01*
Y640228D01*
X1506645D01*
Y638795D01*
X1506515D01*
Y638665D01*
X1506384D01*
Y638534D01*
X1506124D01*
Y638665D01*
X1505342D01*
Y638534D01*
X1505212D01*
Y638665D01*
X1504821D01*
Y638404D01*
X1504691D01*
Y636840D01*
X1504821D01*
Y636710D01*
X1506515D01*
Y636450D01*
X1506645D01*
Y631238D01*
X1506515D01*
Y630977D01*
X1504821D01*
Y631107D01*
X1504691D01*
Y634756D01*
X1502997D01*
Y634886D01*
X1502866D01*
Y636450D01*
X1502736D01*
Y636710D01*
X1501042D01*
Y636580D01*
X1500912D01*
Y629283D01*
X1501042D01*
Y629153D01*
X1502736D01*
Y629023D01*
X1502866D01*
Y627199D01*
X1504691D01*
Y623420D01*
X1506515D01*
Y623290D01*
X1506645D01*
Y622639D01*
Y622508D01*
Y619772D01*
X1506515D01*
Y619642D01*
X1504691D01*
Y623420D01*
X1502866D01*
Y625896D01*
Y626026D01*
Y627199D01*
X1499088D01*
Y625375D01*
X1500912D01*
Y623420D01*
X1497264D01*
Y623550D01*
X1497134D01*
Y625244D01*
X1497003D01*
Y625375D01*
X1495309D01*
Y625896D01*
X1495179D01*
Y626026D01*
X1495309D01*
Y626808D01*
X1495179D01*
Y627068D01*
X1495309D01*
Y627199D01*
X1498958D01*
Y627459D01*
X1499088D01*
Y629023D01*
X1498958D01*
Y629153D01*
X1497264D01*
Y629283D01*
X1497134D01*
Y630977D01*
X1498827D01*
Y631107D01*
X1498958D01*
Y631238D01*
X1499088D01*
Y632671D01*
X1498958D01*
Y632801D01*
X1498827D01*
Y632932D01*
X1497394D01*
Y632801D01*
X1497264D01*
Y632671D01*
X1497134D01*
Y631107D01*
X1497003D01*
Y630977D01*
X1495309D01*
Y630717D01*
X1495179D01*
Y630456D01*
X1495309D01*
Y629414D01*
X1495179D01*
Y629153D01*
X1493485D01*
Y629283D01*
X1493355D01*
Y634625D01*
X1493485D01*
Y634756D01*
X1495049D01*
Y634886D01*
X1495179D01*
Y635147D01*
X1495309D01*
Y635537D01*
X1495179D01*
Y635668D01*
X1495309D01*
Y637752D01*
X1495179D01*
Y637883D01*
X1495309D01*
Y638274D01*
X1495179D01*
Y638534D01*
X1494919D01*
Y638665D01*
X1494528D01*
Y638534D01*
X1494397D01*
Y638665D01*
X1493876D01*
Y638534D01*
X1493616D01*
Y638665D01*
X1493485D01*
Y638795D01*
X1493355D01*
Y640358D01*
X1493225D01*
Y640489D01*
X1491661D01*
Y640619D01*
X1491531D01*
Y642313D01*
X1491401D01*
Y642443D01*
X1489707D01*
Y642313D01*
X1489577D01*
Y638665D01*
X1491140D01*
Y638534D01*
X1491401D01*
Y638404D01*
X1491531D01*
Y635016D01*
X1491401D01*
Y634886D01*
X1491270D01*
Y634756D01*
X1489577D01*
Y631107D01*
X1489446D01*
Y630977D01*
X1487752D01*
Y632150D01*
X1487622D01*
Y632280D01*
X1487752D01*
Y632671D01*
X1487622D01*
Y632801D01*
X1487362D01*
Y632932D01*
X1486059D01*
Y632801D01*
X1485798D01*
Y631238D01*
X1485668D01*
Y630977D01*
X1483974D01*
Y630847D01*
X1483844D01*
Y629283D01*
X1483974D01*
Y629153D01*
X1485668D01*
Y629414D01*
X1485798D01*
Y630977D01*
X1487752D01*
Y627850D01*
X1487622D01*
Y627720D01*
X1487752D01*
Y627329D01*
X1487883D01*
Y627199D01*
X1489577D01*
Y625505D01*
X1489707D01*
Y625375D01*
X1491270D01*
Y625244D01*
X1491531D01*
Y623550D01*
X1491661D01*
Y623420D01*
X1493355D01*
Y621596D01*
X1491661D01*
Y621466D01*
X1491531D01*
Y614039D01*
X1493225D01*
Y613909D01*
X1493355D01*
Y610391D01*
X1493485D01*
Y610261D01*
X1495049D01*
Y610130D01*
X1495179D01*
Y609870D01*
X1495309D01*
Y609088D01*
X1495179D01*
Y608958D01*
X1495309D01*
Y608567D01*
X1495179D01*
Y608437D01*
X1495049D01*
Y608306D01*
X1489707D01*
Y608176D01*
X1489577D01*
Y606482D01*
X1489837D01*
Y606352D01*
X1490228D01*
Y606482D01*
X1490358D01*
Y606352D01*
X1492704D01*
Y606482D01*
X1492964D01*
Y606352D01*
X1493225D01*
Y606222D01*
X1493355D01*
Y604788D01*
X1493485D01*
Y604528D01*
X1498958D01*
Y604267D01*
X1499088D01*
Y600749D01*
X1502736D01*
Y600880D01*
X1502866D01*
Y602573D01*
X1506515D01*
Y602443D01*
X1506645D01*
Y599055D01*
X1506515D01*
Y598925D01*
X1506384D01*
Y598795D01*
X1506124D01*
Y598925D01*
X1505993D01*
Y598795D01*
X1505342D01*
Y598925D01*
X1505212D01*
Y598795D01*
X1504821D01*
Y599055D01*
X1504691D01*
Y600749D01*
X1502866D01*
Y595147D01*
X1502997D01*
Y595016D01*
X1504560D01*
Y595147D01*
X1504691D01*
Y596840D01*
X1504821D01*
Y596971D01*
X1506515D01*
Y596840D01*
X1506645D01*
Y587590D01*
X1506515D01*
Y587459D01*
X1504821D01*
Y587590D01*
X1504691D01*
Y591238D01*
X1502866D01*
Y589544D01*
X1502736D01*
Y589414D01*
X1499088D01*
Y593192D01*
X1500912D01*
Y598795D01*
X1500782D01*
Y598925D01*
X1500521D01*
Y598795D01*
X1499479D01*
Y598925D01*
X1499218D01*
Y598795D01*
X1499088D01*
Y593322D01*
X1498958D01*
Y593192D01*
X1493485D01*
Y593062D01*
X1493355D01*
Y591368D01*
X1493225D01*
Y591238D01*
X1491531D01*
Y589414D01*
X1495179D01*
Y589544D01*
X1495309D01*
Y589805D01*
X1495179D01*
Y590065D01*
X1495309D01*
Y590847D01*
X1495179D01*
Y591107D01*
X1495309D01*
Y591238D01*
X1497134D01*
Y587590D01*
X1497003D01*
Y587459D01*
X1491661D01*
Y587590D01*
X1491531D01*
Y589414D01*
X1489707D01*
Y589283D01*
X1489577D01*
Y587590D01*
X1489316D01*
Y587459D01*
X1487883D01*
Y587590D01*
X1487752D01*
Y587720D01*
X1487622D01*
Y587980D01*
X1487752D01*
Y588762D01*
X1487622D01*
Y588893D01*
X1487752D01*
Y589283D01*
X1487492D01*
Y589414D01*
X1485928D01*
Y589283D01*
X1485798D01*
Y587590D01*
X1485538D01*
Y587459D01*
X1482150D01*
Y587590D01*
X1482020D01*
Y587720D01*
X1481889D01*
Y587850D01*
X1482020D01*
Y589283D01*
X1481889D01*
Y589414D01*
X1478241D01*
Y589544D01*
X1478111D01*
Y589805D01*
X1478241D01*
Y591107D01*
X1478111D01*
Y591238D01*
X1476287D01*
Y593062D01*
X1476417D01*
Y593192D01*
X1478111D01*
Y593322D01*
X1478241D01*
Y596840D01*
X1478111D01*
Y596971D01*
X1476287D01*
Y598795D01*
X1476417D01*
Y598925D01*
X1476678D01*
Y598795D01*
X1477720D01*
Y598925D01*
X1477980D01*
Y598795D01*
X1478111D01*
Y598665D01*
X1478241D01*
Y596971D01*
X1479935D01*
Y596840D01*
X1480065D01*
Y595147D01*
X1480195D01*
Y595016D01*
X1481759D01*
Y595147D01*
X1481889D01*
Y595407D01*
X1482020D01*
Y602573D01*
X1483713D01*
Y602704D01*
X1483844D01*
Y606352D01*
X1483583D01*
Y606482D01*
X1483322D01*
Y606352D01*
X1482020D01*
Y608176D01*
X1482150D01*
Y608306D01*
X1489316D01*
Y608437D01*
X1489577D01*
Y610130D01*
X1489446D01*
Y610261D01*
X1487752D01*
Y610521D01*
X1487622D01*
Y610782D01*
X1487752D01*
Y612085D01*
X1491140D01*
Y612215D01*
X1491401D01*
Y612345D01*
X1491531D01*
Y614039D01*
X1485798D01*
Y615863D01*
X1487362D01*
Y615993D01*
X1487622D01*
Y616124D01*
X1487752D01*
Y616384D01*
X1487622D01*
Y616645D01*
X1487752D01*
Y617687D01*
X1487883D01*
Y617818D01*
X1489446D01*
Y617948D01*
X1489577D01*
Y619642D01*
X1485798D01*
Y615993D01*
X1485538D01*
Y615863D01*
X1483974D01*
Y615603D01*
X1483844D01*
Y612345D01*
X1483974D01*
Y612215D01*
X1484234D01*
Y612085D01*
X1485277D01*
Y612215D01*
X1485407D01*
Y612085D01*
X1485668D01*
Y611954D01*
X1485798D01*
Y610391D01*
X1485668D01*
Y610261D01*
X1480456D01*
Y610130D01*
X1480195D01*
Y610000D01*
X1480065D01*
Y608437D01*
X1479935D01*
Y608306D01*
X1478241D01*
Y606612D01*
X1478111D01*
Y606482D01*
X1477980D01*
Y606352D01*
X1477590D01*
Y606482D01*
X1477459D01*
Y606352D01*
X1474853D01*
Y606482D01*
X1474593D01*
Y606352D01*
X1474462D01*
Y604658D01*
X1474593D01*
Y604528D01*
X1476156D01*
Y604397D01*
X1476287D01*
Y602704D01*
X1476547D01*
Y602573D01*
X1480065D01*
Y600880D01*
X1479935D01*
Y600749D01*
X1476417D01*
Y600880D01*
X1476287D01*
Y602573D01*
X1474593D01*
Y602704D01*
X1474462D01*
Y604397D01*
X1474332D01*
Y604528D01*
X1468860D01*
Y604658D01*
X1468730D01*
Y606222D01*
X1468860D01*
Y606352D01*
X1468990D01*
Y606482D01*
X1469251D01*
Y606352D01*
X1470033D01*
Y606482D01*
X1470163D01*
Y606352D01*
X1470554D01*
Y606482D01*
X1470684D01*
Y608176D01*
X1470554D01*
Y608306D01*
X1468860D01*
Y608437D01*
X1468730D01*
Y611954D01*
X1468860D01*
Y612085D01*
X1470554D01*
Y612215D01*
X1470684D01*
Y613909D01*
X1470554D01*
Y614039D01*
X1468860D01*
Y613778D01*
X1468730D01*
Y612215D01*
X1468339D01*
Y612085D01*
X1467036D01*
Y612215D01*
X1466906D01*
Y615863D01*
X1467036D01*
Y615993D01*
X1467296D01*
Y615863D01*
X1470554D01*
Y615993D01*
X1470684D01*
Y617818D01*
X1472508D01*
Y615993D01*
X1472638D01*
Y615863D01*
X1474332D01*
Y615993D01*
X1474462D01*
Y617687D01*
X1474332D01*
Y617818D01*
X1472508D01*
Y619642D01*
X1474332D01*
Y619772D01*
X1474462D01*
Y621466D01*
X1474332D01*
Y621596D01*
X1468730D01*
Y623420D01*
D01*
D01*
X1466906D01*
Y619772D01*
X1467036D01*
Y619642D01*
X1468730D01*
Y617818D01*
X1465081D01*
Y617687D01*
X1464951D01*
Y615993D01*
X1464691D01*
Y615863D01*
X1461303D01*
Y615472D01*
X1461173D01*
Y614430D01*
X1461303D01*
Y614300D01*
X1461173D01*
Y614039D01*
X1459348D01*
Y615863D01*
X1459609D01*
Y615993D01*
X1459739D01*
Y615863D01*
X1460912D01*
Y615993D01*
X1461173D01*
Y617427D01*
X1461303D01*
Y617687D01*
X1461173D01*
Y617818D01*
X1457524D01*
Y617427D01*
X1457394D01*
Y615993D01*
X1457134D01*
Y615863D01*
X1451922D01*
Y615993D01*
X1451661D01*
Y617687D01*
X1451531D01*
Y617818D01*
X1448013D01*
Y617948D01*
X1447883D01*
Y618339D01*
X1448013D01*
Y618469D01*
X1447883D01*
Y619251D01*
X1448013D01*
Y619642D01*
X1449707D01*
Y619772D01*
X1449837D01*
Y621596D01*
X1448143D01*
Y621466D01*
X1447883D01*
Y621075D01*
X1448013D01*
Y620945D01*
X1447883D01*
Y620033D01*
X1448013D01*
Y619902D01*
X1447883D01*
Y619642D01*
X1446189D01*
Y619772D01*
X1446059D01*
Y623290D01*
X1445928D01*
Y623420D01*
X1444234D01*
Y623290D01*
X1444104D01*
Y617818D01*
X1438502D01*
Y619642D01*
X1440326D01*
Y625375D01*
X1438502D01*
Y627199D01*
X1436678D01*
Y627329D01*
X1436547D01*
Y627720D01*
Y627850D01*
Y630847D01*
X1436678D01*
Y630977D01*
X1438371D01*
Y630847D01*
X1438502D01*
Y627199D01*
X1440326D01*
Y629023D01*
X1440456D01*
Y629153D01*
X1442150D01*
Y629023D01*
X1442280D01*
Y627199D01*
X1444104D01*
Y625505D01*
X1444234D01*
Y625375D01*
X1447883D01*
Y625114D01*
X1448013D01*
Y624984D01*
X1447883D01*
Y624072D01*
X1448013D01*
Y623941D01*
X1447883D01*
Y623550D01*
X1448143D01*
Y623420D01*
X1449837D01*
Y621596D01*
X1455440D01*
Y621726D01*
X1455570D01*
Y621987D01*
X1455440D01*
Y622769D01*
X1455570D01*
Y622899D01*
X1455440D01*
Y623290D01*
X1455570D01*
Y623420D01*
X1457394D01*
Y621726D01*
X1457524D01*
Y621596D01*
X1461173D01*
Y621726D01*
X1461303D01*
Y621987D01*
X1461173D01*
Y623029D01*
X1461303D01*
Y623290D01*
X1461173D01*
Y623420D01*
X1457394D01*
Y625244D01*
X1457264D01*
Y625375D01*
X1448013D01*
Y625765D01*
X1447883D01*
Y626547D01*
X1448013D01*
Y626678D01*
X1447883D01*
Y627068D01*
X1448013D01*
Y627199D01*
X1453485D01*
Y627329D01*
X1453616D01*
Y629023D01*
X1453485D01*
Y629153D01*
X1446189D01*
Y629023D01*
X1446059D01*
Y627329D01*
X1445928D01*
Y627199D01*
X1444234D01*
Y627459D01*
X1444104D01*
Y629023D01*
X1443974D01*
Y629153D01*
X1442280D01*
Y630977D01*
X1440456D01*
Y631238D01*
X1440326D01*
Y634756D01*
X1438502D01*
Y632932D01*
X1438241D01*
Y632801D01*
X1438111D01*
Y632932D01*
X1437068D01*
Y632801D01*
X1436808D01*
Y632932D01*
X1436678D01*
Y633062D01*
X1436547D01*
Y640228D01*
X1436678D01*
Y640489D01*
X1438371D01*
Y640619D01*
X1438502D01*
Y642313D01*
X1438632D01*
Y642443D01*
X1442150D01*
Y642313D01*
X1442280D01*
Y640619D01*
X1442410D01*
Y640489D01*
X1443974D01*
Y640358D01*
X1444104D01*
Y638665D01*
X1445277D01*
Y638534D01*
X1445407D01*
Y638665D01*
X1445798D01*
Y638534D01*
X1445928D01*
Y638404D01*
X1446059D01*
Y636710D01*
X1447883D01*
Y635147D01*
X1448013D01*
Y634756D01*
X1449707D01*
Y635016D01*
X1449837D01*
Y636580D01*
X1449707D01*
Y636710D01*
X1448013D01*
Y636971D01*
X1447883D01*
Y638274D01*
X1448013D01*
Y638534D01*
X1448143D01*
Y638665D01*
X1449577D01*
Y638534D01*
X1449707D01*
Y638404D01*
X1449837D01*
Y636710D01*
X1453485D01*
Y636840D01*
X1453616D01*
Y644137D01*
X1453746D01*
Y644267D01*
X1455309D01*
Y644397D01*
X1455440D01*
Y644528D01*
X1455570D01*
Y644788D01*
X1455440D01*
Y645831D01*
X1455570D01*
Y646091D01*
X1455831D01*
Y646221D01*
X1457134D01*
Y646091D01*
X1457394D01*
Y644397D01*
X1457264D01*
Y644267D01*
X1455570D01*
Y643876D01*
X1455440D01*
Y642704D01*
X1455570D01*
Y642443D01*
X1457264D01*
Y642313D01*
X1457394D01*
Y640749D01*
X1457524D01*
Y640489D01*
X1459218D01*
Y640619D01*
X1459348D01*
Y646091D01*
X1458958D01*
Y646221D01*
X1457394D01*
Y648046D01*
X1455570D01*
Y647785D01*
X1455440D01*
Y646612D01*
X1455570D01*
Y646482D01*
X1455440D01*
Y646221D01*
X1455179D01*
Y646091D01*
X1454919D01*
Y646221D01*
X1454397D01*
Y646091D01*
X1454267D01*
Y646221D01*
X1453876D01*
Y646091D01*
X1453746D01*
Y645961D01*
X1453616D01*
Y644397D01*
X1453485D01*
Y644267D01*
X1451792D01*
Y644397D01*
X1451661D01*
Y647915D01*
X1451792D01*
Y648046D01*
X1453485D01*
Y648176D01*
X1453616D01*
Y650000D01*
X1451792D01*
Y650130D01*
X1451661D01*
Y655472D01*
X1451792D01*
Y655603D01*
X1453616D01*
Y653779D01*
X1455440D01*
Y653909D01*
X1455570D01*
Y654169D01*
X1455440D01*
Y656775D01*
X1455570D01*
Y657036D01*
X1455440D01*
Y657296D01*
X1455570D01*
Y657427D01*
X1455700D01*
Y657557D01*
X1457264D01*
Y657427D01*
X1457394D01*
Y655733D01*
X1457524D01*
Y655603D01*
X1459348D01*
Y653779D01*
X1457655D01*
Y653648D01*
X1457524D01*
Y653518D01*
X1457394D01*
Y651954D01*
X1457524D01*
Y651824D01*
X1459088D01*
Y651954D01*
X1459348D01*
Y653648D01*
X1459479D01*
Y653779D01*
X1461173D01*
Y653648D01*
X1461303D01*
Y653388D01*
X1461173D01*
Y651954D01*
X1461042D01*
Y651824D01*
X1459348D01*
Y646221D01*
X1461173D01*
Y647785D01*
X1461303D01*
Y648046D01*
X1464821D01*
Y648176D01*
X1464951D01*
Y651563D01*
X1465081D01*
Y651824D01*
X1466645D01*
Y651954D01*
X1466906D01*
Y653648D01*
X1467036D01*
Y653779D01*
X1470554D01*
Y653648D01*
X1470684D01*
Y651954D01*
X1470814D01*
Y651824D01*
X1472508D01*
Y648046D01*
X1474332D01*
Y648176D01*
X1474462D01*
Y649870D01*
X1474593D01*
Y650000D01*
X1476287D01*
Y651824D01*
X1474593D01*
Y651954D01*
X1474462D01*
Y655603D01*
X1476287D01*
Y653779D01*
X1478111D01*
Y653909D01*
X1478241D01*
Y655603D01*
X1476287D01*
Y657427D01*
X1476417D01*
Y657557D01*
X1478111D01*
Y657427D01*
D02*
G37*
G36*
X1464821Y653648D02*
X1464951D01*
Y653518D01*
Y651954D01*
X1464821D01*
Y651824D01*
X1463127D01*
Y650130D01*
X1462997D01*
Y650000D01*
X1461303D01*
Y650130D01*
X1461173D01*
Y651433D01*
X1461303D01*
Y651824D01*
X1462866D01*
Y651954D01*
X1463127D01*
Y653648D01*
X1463257D01*
Y653779D01*
X1464821D01*
Y653648D01*
D02*
G37*
G36*
X1506515Y657427D02*
X1506645D01*
Y644397D01*
X1506515D01*
Y644267D01*
X1493485D01*
Y644397D01*
X1493355D01*
Y657427D01*
X1493485D01*
Y657557D01*
X1506515D01*
Y657427D01*
D02*
G37*
G36*
X1449707D02*
X1449837D01*
Y644397D01*
X1449707D01*
Y644267D01*
X1436678D01*
Y644397D01*
X1436547D01*
Y657427D01*
X1436678D01*
Y657557D01*
X1449707D01*
Y657427D01*
D02*
G37*
G36*
Y642313D02*
X1449837D01*
Y640619D01*
X1449967D01*
Y640489D01*
X1451531D01*
Y640358D01*
X1451661D01*
Y638665D01*
X1451401D01*
Y638534D01*
X1451140D01*
Y638665D01*
X1450489D01*
Y638534D01*
X1450228D01*
Y638665D01*
X1449837D01*
Y640358D01*
X1449707D01*
Y640489D01*
X1448143D01*
Y640619D01*
X1448013D01*
Y640749D01*
X1447883D01*
Y641140D01*
X1448013D01*
Y641270D01*
X1447883D01*
Y642052D01*
X1448013D01*
Y642313D01*
X1448143D01*
Y642443D01*
X1449707D01*
Y642313D01*
D02*
G37*
G36*
X1479935Y636580D02*
X1480065D01*
Y632932D01*
X1478241D01*
Y636189D01*
X1478111D01*
Y636319D01*
X1478241D01*
Y636710D01*
X1479935D01*
Y636580D01*
D02*
G37*
G36*
X1491270Y629023D02*
X1491531D01*
Y627329D01*
X1491401D01*
Y627199D01*
X1489707D01*
Y627329D01*
X1489577D01*
Y629023D01*
X1489707D01*
Y629153D01*
X1491270D01*
Y629023D01*
D02*
G37*
G36*
X1438502Y621596D02*
X1436678D01*
Y621726D01*
X1436547D01*
Y623029D01*
Y623160D01*
Y623290D01*
X1436678D01*
Y623420D01*
X1438502D01*
Y621596D01*
D02*
G37*
G36*
X1498958Y621466D02*
X1499088D01*
Y619772D01*
X1498827D01*
Y619642D01*
X1495309D01*
Y619902D01*
X1495179D01*
Y620163D01*
X1495309D01*
Y621075D01*
X1495179D01*
Y621466D01*
X1495309D01*
Y621596D01*
X1498958D01*
Y621466D01*
D02*
G37*
G36*
X1495179Y617687D02*
X1495309D01*
Y617296D01*
X1495179D01*
Y617166D01*
X1495309D01*
Y616124D01*
X1495179D01*
Y615993D01*
X1494919D01*
Y615863D01*
X1493616D01*
Y615993D01*
X1493355D01*
Y617687D01*
X1493485D01*
Y617818D01*
X1495179D01*
Y617687D01*
D02*
G37*
G36*
X1449446Y615863D02*
X1449837D01*
Y614039D01*
X1457264D01*
Y613909D01*
X1457394D01*
Y610391D01*
X1457524D01*
Y610261D01*
X1459218D01*
Y610391D01*
X1459348D01*
Y612085D01*
X1459609D01*
Y612215D01*
X1459739D01*
Y612085D01*
X1463127D01*
Y604528D01*
X1464821D01*
Y604658D01*
X1464951D01*
Y608176D01*
X1465081D01*
Y608306D01*
X1466906D01*
Y600880D01*
X1466775D01*
Y600749D01*
X1465081D01*
Y600619D01*
X1464951D01*
Y598925D01*
X1465212D01*
Y598795D01*
X1465472D01*
Y598925D01*
X1465733D01*
Y598795D01*
X1466515D01*
Y598925D01*
X1466775D01*
Y598795D01*
X1466906D01*
Y595147D01*
X1466645D01*
Y595016D01*
X1461303D01*
Y594886D01*
X1461173D01*
Y593192D01*
X1459479D01*
Y593062D01*
X1459348D01*
Y591368D01*
X1459479D01*
Y591238D01*
X1461042D01*
Y591368D01*
X1461173D01*
Y593062D01*
X1461303D01*
Y593192D01*
X1464821D01*
Y593062D01*
X1464951D01*
Y589414D01*
X1463257D01*
Y589283D01*
X1463127D01*
Y587590D01*
X1462866D01*
Y587459D01*
X1461433D01*
Y587590D01*
X1461173D01*
Y589023D01*
X1461303D01*
Y589153D01*
X1461173D01*
Y589283D01*
X1461042D01*
Y589414D01*
X1459348D01*
Y591238D01*
X1457524D01*
Y591629D01*
X1457394D01*
Y593062D01*
X1457264D01*
Y593192D01*
X1455570D01*
Y593583D01*
X1455440D01*
Y594365D01*
X1455570D01*
Y594495D01*
X1455440D01*
Y594886D01*
X1455570D01*
Y595016D01*
X1459088D01*
Y595147D01*
X1459218D01*
Y595277D01*
X1459348D01*
Y596840D01*
X1459218D01*
Y596971D01*
X1453746D01*
Y597101D01*
X1453616D01*
Y598665D01*
X1453746D01*
Y598795D01*
X1454007D01*
Y598925D01*
X1454267D01*
Y598795D01*
X1458958D01*
Y598925D01*
X1459348D01*
Y602573D01*
X1461173D01*
Y600880D01*
X1461303D01*
Y600749D01*
X1462866D01*
Y600880D01*
X1462997D01*
Y601010D01*
X1463127D01*
Y601270D01*
Y601401D01*
Y604528D01*
X1459479D01*
Y604658D01*
X1459348D01*
Y606222D01*
X1459218D01*
Y606352D01*
X1458958D01*
Y606482D01*
X1458697D01*
Y606352D01*
X1458176D01*
Y606482D01*
X1458046D01*
Y606352D01*
X1457655D01*
Y606482D01*
X1457524D01*
Y606612D01*
X1457394D01*
Y608306D01*
X1451922D01*
Y608437D01*
X1451792D01*
Y608567D01*
X1451661D01*
Y610130D01*
X1451531D01*
Y610261D01*
X1448013D01*
Y609870D01*
X1447883D01*
Y608306D01*
X1446189D01*
Y608176D01*
X1446059D01*
Y604658D01*
X1445928D01*
Y604528D01*
X1444234D01*
Y604788D01*
X1444104D01*
Y606352D01*
X1443974D01*
Y606482D01*
X1443713D01*
Y606352D01*
X1440717D01*
Y606482D01*
X1440456D01*
Y606612D01*
X1440326D01*
Y610000D01*
X1440456D01*
Y610130D01*
X1440586D01*
Y610261D01*
X1442150D01*
Y610130D01*
X1442280D01*
Y608437D01*
X1442410D01*
Y608306D01*
X1443974D01*
Y608437D01*
X1444104D01*
Y611824D01*
X1444234D01*
Y612085D01*
X1445668D01*
Y612215D01*
X1445798D01*
Y612085D01*
X1446059D01*
Y610261D01*
X1447883D01*
Y611954D01*
X1448013D01*
Y612085D01*
X1449577D01*
Y612215D01*
X1449837D01*
Y613909D01*
X1449707D01*
Y614039D01*
X1440456D01*
Y613909D01*
X1440326D01*
Y610261D01*
X1438632D01*
Y610130D01*
X1438502D01*
Y608437D01*
X1438371D01*
Y608306D01*
X1436678D01*
Y608567D01*
X1436547D01*
Y611954D01*
X1436678D01*
Y612085D01*
X1436808D01*
Y612215D01*
X1436938D01*
Y612085D01*
X1438371D01*
Y612215D01*
X1438502D01*
Y614039D01*
X1436678D01*
Y614169D01*
X1436547D01*
Y615733D01*
X1436678D01*
Y615863D01*
X1436808D01*
Y615993D01*
X1437068D01*
Y615863D01*
X1438111D01*
Y615993D01*
X1438241D01*
Y615863D01*
X1438502D01*
Y614039D01*
X1440326D01*
Y615733D01*
X1440456D01*
Y615863D01*
X1449316D01*
Y615993D01*
X1449446D01*
Y615863D01*
D02*
G37*
G36*
X1506384Y612085D02*
X1506515D01*
Y611954D01*
X1506645D01*
Y606612D01*
X1506515D01*
Y606482D01*
X1506384D01*
Y606352D01*
X1506124D01*
Y606482D01*
X1505863D01*
Y606352D01*
X1505212D01*
Y606482D01*
X1504821D01*
Y606222D01*
X1504691D01*
Y604528D01*
X1502866D01*
Y610261D01*
X1504691D01*
Y611954D01*
X1504821D01*
Y612085D01*
X1504951D01*
Y612215D01*
X1505081D01*
Y612085D01*
X1506254D01*
Y612215D01*
X1506384D01*
Y612085D01*
D02*
G37*
G36*
X1502736Y621466D02*
X1502866D01*
Y620684D01*
Y620554D01*
Y619642D01*
X1504691D01*
Y617818D01*
X1502866D01*
Y615993D01*
X1502476D01*
Y615863D01*
X1501042D01*
Y615733D01*
X1500912D01*
Y614039D01*
X1499218D01*
Y613909D01*
X1499088D01*
Y612215D01*
X1499218D01*
Y612085D01*
X1500652D01*
Y612215D01*
X1500912D01*
Y613778D01*
X1501042D01*
Y614039D01*
X1502736D01*
Y614169D01*
X1502866D01*
Y615863D01*
X1506124D01*
Y615993D01*
X1506384D01*
Y615863D01*
X1506515D01*
Y615733D01*
X1506645D01*
Y614169D01*
X1506515D01*
Y614039D01*
X1502866D01*
Y610391D01*
X1502736D01*
Y610261D01*
X1497264D01*
Y610391D01*
X1497134D01*
Y612085D01*
X1495440D01*
Y612215D01*
X1495309D01*
Y612345D01*
X1495179D01*
Y612606D01*
X1495309D01*
Y615212D01*
X1495179D01*
Y615472D01*
X1495309D01*
Y615863D01*
X1500521D01*
Y615993D01*
X1500912D01*
Y617818D01*
X1499088D01*
Y619642D01*
X1500782D01*
Y619772D01*
X1500912D01*
Y621466D01*
X1501042D01*
Y621596D01*
X1502736D01*
Y621466D01*
D02*
G37*
G36*
X1498958Y608176D02*
X1499088D01*
Y606612D01*
X1498958D01*
Y606482D01*
X1498697D01*
Y606352D01*
X1497915D01*
Y606482D01*
X1497785D01*
Y606352D01*
X1497394D01*
Y606482D01*
X1497264D01*
Y606612D01*
X1497134D01*
Y608176D01*
X1497264D01*
Y608306D01*
X1498958D01*
Y608176D01*
D02*
G37*
G36*
X1482020Y605049D02*
Y604919D01*
Y602834D01*
X1481889D01*
Y602573D01*
X1480065D01*
Y606222D01*
X1480195D01*
Y606352D01*
X1482020D01*
Y605049D01*
D02*
G37*
G36*
X1442150Y604397D02*
X1442280D01*
Y602704D01*
X1442150D01*
Y602573D01*
X1436678D01*
Y602834D01*
X1436547D01*
Y604267D01*
X1436678D01*
Y604528D01*
X1442150D01*
Y604397D01*
D02*
G37*
G36*
X1472508Y600749D02*
X1470684D01*
Y601270D01*
Y601401D01*
Y602573D01*
X1472508D01*
Y600749D01*
D02*
G37*
G36*
X1449707Y608176D02*
X1449837D01*
Y607134D01*
Y607003D01*
Y606482D01*
X1450228D01*
Y606352D01*
X1453094D01*
Y606482D01*
X1453225D01*
Y606352D01*
X1453485D01*
Y606222D01*
X1453616D01*
Y604528D01*
X1459218D01*
Y604397D01*
X1459348D01*
Y602704D01*
X1459218D01*
Y602573D01*
X1457524D01*
Y602443D01*
X1457394D01*
Y601140D01*
Y601010D01*
Y600880D01*
X1457264D01*
Y600749D01*
X1453746D01*
Y600880D01*
X1453616D01*
Y604528D01*
X1451792D01*
Y604397D01*
X1451661D01*
Y602704D01*
X1451531D01*
Y602573D01*
X1448143D01*
Y602704D01*
X1448013D01*
Y602964D01*
X1447883D01*
Y604267D01*
X1448013D01*
Y604528D01*
X1449707D01*
Y604658D01*
X1449837D01*
Y606222D01*
X1449707D01*
Y606352D01*
X1449577D01*
Y606482D01*
X1449316D01*
Y606352D01*
X1448795D01*
Y606482D01*
X1448665D01*
Y606352D01*
X1448274D01*
Y606482D01*
X1448013D01*
Y606743D01*
X1447883D01*
Y608046D01*
X1448013D01*
Y608306D01*
X1449707D01*
Y608176D01*
D02*
G37*
G36*
X1474202Y598795D02*
X1474332D01*
Y598665D01*
X1474462D01*
Y596971D01*
X1476287D01*
Y595147D01*
X1476156D01*
Y595016D01*
X1474593D01*
Y595147D01*
X1474462D01*
Y596840D01*
X1474332D01*
Y596971D01*
X1468860D01*
Y597101D01*
X1468730D01*
Y598665D01*
X1468860D01*
Y598795D01*
X1468990D01*
Y598925D01*
X1469251D01*
Y598795D01*
X1473941D01*
Y598925D01*
X1474202D01*
Y598795D01*
D02*
G37*
G36*
X1474462Y593192D02*
X1472508D01*
Y594756D01*
Y594886D01*
Y595016D01*
X1474462D01*
Y593192D01*
D02*
G37*
G36*
X1476287Y590717D02*
Y590586D01*
Y589414D01*
X1474462D01*
Y591238D01*
X1476287D01*
Y590717D01*
D02*
G37*
G36*
X1468730Y593453D02*
Y593322D01*
X1468860D01*
Y593192D01*
X1472508D01*
Y587590D01*
X1472378D01*
Y587459D01*
X1467036D01*
Y587590D01*
X1466906D01*
Y589283D01*
X1467036D01*
Y589414D01*
X1470684D01*
Y591238D01*
X1467036D01*
Y591368D01*
X1466906D01*
Y595016D01*
X1468730D01*
Y593453D01*
D02*
G37*
G36*
X1455309Y593062D02*
X1455440D01*
Y592932D01*
X1455570D01*
Y592801D01*
X1455440D01*
Y591759D01*
X1455570D01*
Y591368D01*
X1455700D01*
Y591238D01*
X1457394D01*
Y589414D01*
X1459348D01*
Y587590D01*
X1459088D01*
Y587459D01*
X1457655D01*
Y587590D01*
X1457394D01*
Y588632D01*
Y588762D01*
Y589414D01*
X1455570D01*
Y589544D01*
X1455440D01*
Y589935D01*
X1455570D01*
Y590065D01*
X1455440D01*
Y590847D01*
X1455570D01*
Y591107D01*
X1455440D01*
Y591238D01*
X1453616D01*
Y589414D01*
X1451792D01*
Y589544D01*
X1451661D01*
Y592150D01*
Y592280D01*
Y593062D01*
X1451792D01*
Y593192D01*
X1455309D01*
Y593062D01*
D02*
G37*
G36*
X1449707Y600619D02*
X1449837D01*
Y587590D01*
X1449707D01*
Y587459D01*
X1436678D01*
Y587590D01*
X1436547D01*
Y600619D01*
X1436678D01*
Y600749D01*
X1449707D01*
Y600619D01*
D02*
G37*
%LPC*%
G36*
X1468730Y651824D02*
X1466906D01*
Y650000D01*
X1468730D01*
Y651824D01*
D02*
G37*
G36*
X1455440D02*
X1453746D01*
Y651694D01*
X1453616D01*
Y650000D01*
X1455440D01*
Y650130D01*
X1455570D01*
Y650391D01*
X1455440D01*
Y651433D01*
X1455570D01*
Y651694D01*
X1455440D01*
Y651824D01*
D02*
G37*
G36*
X1485668D02*
X1483974D01*
Y651563D01*
X1483844D01*
Y648176D01*
X1483713D01*
Y648046D01*
X1482020D01*
Y646352D01*
X1481889D01*
Y646221D01*
X1481759D01*
Y646091D01*
X1481498D01*
Y646221D01*
X1480977D01*
Y646091D01*
X1480847D01*
Y646221D01*
X1480456D01*
Y646091D01*
X1480195D01*
Y645961D01*
X1480065D01*
Y644397D01*
X1480195D01*
Y644267D01*
X1481889D01*
Y644528D01*
X1482020D01*
Y645961D01*
X1482150D01*
Y646091D01*
X1482410D01*
Y646221D01*
X1483583D01*
Y646091D01*
X1483844D01*
Y644397D01*
X1484104D01*
Y644267D01*
X1485668D01*
Y644528D01*
X1485798D01*
Y646091D01*
X1486059D01*
Y646221D01*
X1487101D01*
Y646091D01*
X1487362D01*
Y646221D01*
X1487622D01*
Y646352D01*
X1487752D01*
Y649609D01*
X1487622D01*
Y649739D01*
Y649870D01*
X1487492D01*
Y650000D01*
X1485798D01*
Y651694D01*
X1485668D01*
Y651824D01*
D02*
G37*
G36*
X1502736Y640489D02*
X1501042D01*
Y640228D01*
X1500912D01*
Y638665D01*
X1500521D01*
Y638534D01*
X1500261D01*
Y638665D01*
X1497915D01*
Y638534D01*
X1497785D01*
Y638665D01*
X1497394D01*
Y638534D01*
X1497264D01*
Y638404D01*
X1497134D01*
Y636840D01*
X1497264D01*
Y636710D01*
X1500912D01*
Y638534D01*
X1501042D01*
Y638665D01*
X1502736D01*
Y638795D01*
X1502866D01*
Y640358D01*
X1502736D01*
Y640489D01*
D02*
G37*
G36*
X1444104Y638665D02*
X1442932D01*
Y638534D01*
X1442671D01*
Y638665D01*
X1442410D01*
Y638534D01*
X1442280D01*
Y636710D01*
X1444104D01*
Y638665D01*
D02*
G37*
G36*
X1440195D02*
X1439805D01*
Y638534D01*
X1439674D01*
Y638665D01*
X1439153D01*
Y638534D01*
X1439023D01*
Y638665D01*
X1438632D01*
Y638534D01*
X1438502D01*
Y636710D01*
X1440326D01*
Y635016D01*
X1440456D01*
Y634886D01*
X1440586D01*
Y634756D01*
X1442280D01*
Y630977D01*
X1443974D01*
Y631107D01*
X1444104D01*
Y632671D01*
X1444234D01*
Y632801D01*
X1444495D01*
Y632932D01*
X1447883D01*
Y634756D01*
X1442541D01*
Y634886D01*
X1442280D01*
Y636580D01*
X1442150D01*
Y636710D01*
X1440456D01*
Y636840D01*
X1440326D01*
Y638534D01*
X1440195D01*
Y638665D01*
D02*
G37*
G36*
X1449577Y632932D02*
X1448274D01*
Y632801D01*
X1448013D01*
Y632671D01*
X1447883D01*
Y631238D01*
X1448013D01*
Y631107D01*
X1448143D01*
Y630977D01*
X1449707D01*
Y631107D01*
X1449837D01*
Y632801D01*
X1449577D01*
Y632932D01*
D02*
G37*
G36*
X1457264Y640489D02*
X1455700D01*
Y640358D01*
X1455570D01*
Y640228D01*
X1455440D01*
Y639837D01*
X1455570D01*
Y639707D01*
X1455440D01*
Y637231D01*
X1455570D01*
Y637101D01*
X1455440D01*
Y636710D01*
X1453876D01*
Y636580D01*
X1453616D01*
Y632932D01*
X1452052D01*
Y632801D01*
X1451792D01*
Y632671D01*
X1451661D01*
Y631107D01*
X1451792D01*
Y630977D01*
X1455440D01*
Y630717D01*
X1455570D01*
Y630456D01*
X1455440D01*
Y627590D01*
X1455570D01*
Y627329D01*
X1455700D01*
Y627199D01*
X1461173D01*
Y627068D01*
X1461303D01*
Y626808D01*
X1461173D01*
Y625505D01*
X1461303D01*
Y625375D01*
X1462997D01*
Y625244D01*
X1463127D01*
Y623550D01*
X1463257D01*
Y623420D01*
X1464821D01*
Y623550D01*
X1464951D01*
Y625244D01*
X1465081D01*
Y625375D01*
X1468730D01*
Y623420D01*
D01*
D01*
X1472508D01*
Y625375D01*
X1468730D01*
Y627068D01*
X1468860D01*
Y627199D01*
X1472508D01*
Y630847D01*
X1472638D01*
Y630977D01*
X1474332D01*
Y630847D01*
X1474462D01*
Y629153D01*
X1478111D01*
Y629283D01*
X1478241D01*
Y630847D01*
X1478111D01*
Y630977D01*
X1476417D01*
Y631107D01*
X1476287D01*
Y632801D01*
X1476156D01*
Y632932D01*
X1474462D01*
Y636580D01*
X1474332D01*
Y636710D01*
X1472638D01*
Y636580D01*
X1472508D01*
Y634886D01*
X1472378D01*
Y634756D01*
X1470814D01*
Y634886D01*
X1470684D01*
Y636580D01*
X1470554D01*
Y636710D01*
X1465081D01*
Y636580D01*
X1464951D01*
Y635016D01*
X1464821D01*
Y634886D01*
X1464691D01*
Y634756D01*
X1463127D01*
Y631238D01*
X1462997D01*
Y631107D01*
X1462866D01*
Y630977D01*
X1461303D01*
Y630847D01*
X1461173D01*
Y629153D01*
X1459348D01*
Y630847D01*
X1459218D01*
Y630977D01*
X1457524D01*
Y631238D01*
X1457394D01*
Y632801D01*
X1457134D01*
Y632932D01*
X1455570D01*
Y633192D01*
X1455440D01*
Y636450D01*
X1455570D01*
Y636580D01*
X1455700D01*
Y636710D01*
X1459218D01*
Y636840D01*
X1459348D01*
Y638404D01*
X1459218D01*
Y638534D01*
X1458958D01*
Y638665D01*
X1458567D01*
Y638534D01*
X1458436D01*
Y638665D01*
X1457915D01*
Y638534D01*
X1457655D01*
Y638665D01*
X1457524D01*
Y638795D01*
X1457394D01*
Y640358D01*
X1457264D01*
Y640489D01*
D02*
G37*
G36*
X1457394Y619642D02*
X1455570D01*
Y619381D01*
X1455440D01*
Y618469D01*
X1455570D01*
Y618339D01*
X1455440D01*
Y617948D01*
X1455570D01*
Y617818D01*
X1457394D01*
Y618860D01*
Y618990D01*
Y619381D01*
X1457524D01*
Y619511D01*
X1457394D01*
Y619642D01*
D02*
G37*
G36*
X1474462Y614039D02*
X1472638D01*
Y613909D01*
X1472508D01*
Y612215D01*
X1472638D01*
Y612085D01*
X1474332D01*
Y612215D01*
X1474462D01*
Y614039D01*
D02*
G37*
G36*
X1481889Y629153D02*
X1480326D01*
Y629023D01*
X1480065D01*
Y627199D01*
X1474462D01*
Y623420D01*
X1480065D01*
Y621596D01*
X1478241D01*
Y621335D01*
X1478111D01*
Y621205D01*
X1478241D01*
Y620033D01*
X1478111D01*
Y619902D01*
X1478241D01*
Y619642D01*
X1480065D01*
Y617818D01*
X1476417D01*
Y617687D01*
X1476287D01*
Y615993D01*
X1476156D01*
Y615863D01*
X1474462D01*
Y615081D01*
Y614951D01*
Y614039D01*
X1478111D01*
Y614169D01*
X1478241D01*
Y615863D01*
X1479674D01*
Y615993D01*
X1479805D01*
Y615863D01*
X1480065D01*
Y612215D01*
X1479935D01*
Y612085D01*
X1474462D01*
Y610261D01*
X1472638D01*
Y610130D01*
X1472508D01*
Y608437D01*
X1472638D01*
Y608306D01*
X1474332D01*
Y608437D01*
X1474462D01*
Y610130D01*
X1474723D01*
Y610261D01*
X1480065D01*
Y611954D01*
X1480195D01*
Y612085D01*
X1481759D01*
Y612215D01*
X1481889D01*
Y612345D01*
X1482020D01*
Y615863D01*
X1483713D01*
Y615993D01*
X1483844D01*
Y617818D01*
X1482020D01*
Y618078D01*
X1481889D01*
Y618209D01*
X1482020D01*
Y619642D01*
X1485668D01*
Y619772D01*
X1485798D01*
Y621466D01*
X1485928D01*
Y621596D01*
X1487622D01*
Y621726D01*
X1487752D01*
Y622117D01*
X1487622D01*
Y622248D01*
X1487752D01*
Y623029D01*
X1487622D01*
Y623290D01*
X1487752D01*
Y623420D01*
X1489446D01*
Y623550D01*
X1489577D01*
Y625244D01*
X1489446D01*
Y625375D01*
X1487752D01*
Y627068D01*
X1487622D01*
Y627199D01*
X1485798D01*
Y625505D01*
X1485668D01*
Y625375D01*
X1483974D01*
Y625635D01*
X1483844D01*
Y627199D01*
X1482150D01*
Y627329D01*
X1482020D01*
Y628893D01*
X1481889D01*
Y629153D01*
D02*
G37*
G36*
X1487362Y606482D02*
X1487101D01*
Y606352D01*
X1485798D01*
Y605570D01*
Y605440D01*
Y604658D01*
X1485928D01*
Y604528D01*
X1487492D01*
Y604658D01*
X1487622D01*
Y604788D01*
X1487752D01*
Y605179D01*
X1487622D01*
Y605309D01*
X1487752D01*
Y606091D01*
X1487622D01*
Y606352D01*
X1487362D01*
Y606482D01*
D02*
G37*
G36*
X1497134Y602573D02*
X1491531D01*
Y598404D01*
Y598274D01*
Y596971D01*
X1497003D01*
Y597101D01*
X1497134D01*
Y602573D01*
D02*
G37*
G36*
X1487622D02*
X1485798D01*
Y593192D01*
X1487492D01*
Y593062D01*
X1487622D01*
Y592932D01*
X1487752D01*
Y592671D01*
X1487622D01*
Y592410D01*
X1487752D01*
Y591368D01*
X1487883D01*
Y591238D01*
X1489446D01*
Y591368D01*
X1489577D01*
Y591759D01*
Y591889D01*
Y593062D01*
X1489707D01*
Y593192D01*
X1491531D01*
Y594886D01*
X1491401D01*
Y595016D01*
X1487883D01*
Y595147D01*
X1487752D01*
Y596450D01*
X1487622D01*
Y596710D01*
X1487752D01*
Y596840D01*
X1487883D01*
Y596971D01*
X1489446D01*
Y597101D01*
X1489577D01*
Y600619D01*
X1489446D01*
Y600749D01*
X1487752D01*
Y602313D01*
X1487622D01*
Y602573D01*
D02*
G37*
G36*
X1485668Y593192D02*
X1482150D01*
Y593062D01*
X1482020D01*
Y592932D01*
X1481889D01*
Y592801D01*
X1482020D01*
Y591759D01*
Y591629D01*
Y591368D01*
X1482150D01*
Y591238D01*
X1485538D01*
Y591368D01*
X1485798D01*
Y593062D01*
X1485668D01*
Y593192D01*
D02*
G37*
%LPD*%
G36*
X1466906Y631107D02*
X1466775D01*
Y630977D01*
X1465081D01*
Y631107D01*
X1464951D01*
Y632671D01*
Y632801D01*
Y634625D01*
X1465081D01*
Y634756D01*
X1466906D01*
Y631107D01*
D02*
G37*
G36*
X1468730Y629674D02*
Y629544D01*
Y629153D01*
X1466906D01*
Y630977D01*
X1468730D01*
Y629674D01*
D02*
G37*
G36*
X1466906Y627329D02*
X1466775D01*
Y627199D01*
X1465081D01*
Y627329D01*
X1464951D01*
Y629023D01*
X1465081D01*
Y629153D01*
X1466906D01*
Y627329D01*
D02*
G37*
G36*
X1483844Y621596D02*
X1482020D01*
Y621726D01*
X1481889D01*
Y621987D01*
X1482020D01*
Y624984D01*
X1481889D01*
Y625114D01*
X1482020D01*
Y625375D01*
X1483844D01*
Y621596D01*
D02*
G37*
G36*
X1495049Y600619D02*
X1495179D01*
Y600489D01*
X1495309D01*
Y599186D01*
X1495179D01*
Y598925D01*
X1494919D01*
Y598795D01*
X1493616D01*
Y598925D01*
X1493485D01*
Y599055D01*
X1493355D01*
Y600619D01*
X1493485D01*
Y600749D01*
X1495049D01*
Y600619D01*
D02*
G37*
%LPC*%
G36*
X1504691Y655603D02*
X1495309D01*
Y655472D01*
X1495179D01*
Y655212D01*
X1495309D01*
Y646743D01*
X1495179D01*
Y646482D01*
X1495309D01*
Y646221D01*
X1495570D01*
Y646091D01*
X1495831D01*
Y646221D01*
X1504300D01*
Y646091D01*
X1504560D01*
Y646221D01*
X1504691D01*
Y647655D01*
Y647785D01*
Y655603D01*
D02*
G37*
%LPD*%
G36*
X1502736Y653648D02*
X1502866D01*
Y648176D01*
X1502606D01*
Y648046D01*
X1497264D01*
Y648176D01*
X1497134D01*
Y653518D01*
X1497264D01*
Y653648D01*
Y653779D01*
X1502736D01*
Y653648D01*
D02*
G37*
%LPC*%
G36*
X1447883Y655603D02*
X1438502D01*
Y646221D01*
X1438632D01*
Y646091D01*
X1438893D01*
Y646221D01*
X1447362D01*
Y646091D01*
X1447622D01*
Y646221D01*
X1447883D01*
Y646482D01*
X1448013D01*
Y646743D01*
X1447883D01*
Y655212D01*
X1448013D01*
Y655472D01*
X1447883D01*
Y655603D01*
D02*
G37*
%LPD*%
G36*
X1445928Y653648D02*
X1446059D01*
Y648176D01*
X1445928D01*
Y648046D01*
X1440456D01*
Y648176D01*
X1440326D01*
Y653648D01*
X1440456D01*
Y653779D01*
X1445928D01*
Y653648D01*
D02*
G37*
%LPC*%
G36*
X1455440Y612085D02*
X1453746D01*
Y611954D01*
X1453616D01*
Y610391D01*
X1453746D01*
Y610261D01*
X1455440D01*
Y610521D01*
X1455570D01*
Y610782D01*
X1455440D01*
Y612085D01*
D02*
G37*
G36*
X1462997Y598925D02*
X1462736D01*
Y598795D01*
X1459348D01*
Y596971D01*
X1462997D01*
Y597101D01*
X1463127D01*
Y598795D01*
X1462997D01*
Y598925D01*
D02*
G37*
G36*
X1447622D02*
X1447362D01*
Y598795D01*
X1438893D01*
Y598925D01*
X1438632D01*
Y598795D01*
X1438502D01*
Y589414D01*
X1447883D01*
Y589544D01*
X1448013D01*
Y589674D01*
Y589805D01*
X1447883D01*
Y598274D01*
X1448013D01*
Y598534D01*
X1447883D01*
Y598795D01*
X1447622D01*
Y598925D01*
D02*
G37*
%LPD*%
G36*
X1445928Y596840D02*
X1446059D01*
Y591368D01*
X1445928D01*
Y591238D01*
X1440456D01*
Y591368D01*
X1440326D01*
Y596840D01*
X1440456D01*
Y596971D01*
X1445928D01*
Y596840D01*
D02*
G37*
D10*
X1421013Y229216D02*
G03*
X1421013Y229216I-1250J0D01*
G01*
X1377513Y226966D02*
G03*
X1377513Y226966I-1250J0D01*
G01*
X949513Y236691D02*
G03*
X949513Y236691I-1250J0D01*
G01*
X518263Y325640D02*
G03*
X518263Y325640I-1250J0D01*
G01*
X278263D02*
G03*
X278263Y325640I-1250J0D01*
G01*
X338263D02*
G03*
X338263Y325640I-1250J0D01*
G01*
X398263D02*
G03*
X398263Y325640I-1250J0D01*
G01*
X458263D02*
G03*
X458263Y325640I-1250J0D01*
G01*
X218263D02*
G03*
X218263Y325640I-1250J0D01*
G01*
X98263D02*
G03*
X98263Y325640I-1250J0D01*
G01*
D11*
X1427460Y652153D02*
X1417303D01*
X1422382D01*
Y636918D01*
X1409686D02*
X1404607D01*
X1402068Y639457D01*
Y644536D01*
X1404607Y647075D01*
X1409686D01*
X1412225Y644536D01*
Y639457D01*
X1409686Y636918D01*
X1396990D02*
Y647075D01*
X1394451D01*
X1391911Y644536D01*
Y636918D01*
Y644536D01*
X1389372Y647075D01*
X1386833Y644536D01*
Y636918D01*
X1379216Y647075D02*
X1374137D01*
X1371598Y644536D01*
Y636918D01*
X1379216D01*
X1381755Y639457D01*
X1379216Y641996D01*
X1371598D01*
X1366520Y652153D02*
Y636918D01*
X1358902D01*
X1356363Y639457D01*
Y649614D01*
X1358902Y652153D01*
X1366520D01*
X1343667Y636918D02*
X1348746D01*
X1351285Y639457D01*
Y644536D01*
X1348746Y647075D01*
X1343667D01*
X1341128Y644536D01*
Y641996D01*
X1351285D01*
X1336050Y636918D02*
Y647075D01*
X1328432D01*
X1325893Y644536D01*
Y636918D01*
X1320815D02*
X1315736D01*
X1318275D01*
Y647075D01*
X1320815D01*
X1308119Y636918D02*
X1300501D01*
X1297962Y639457D01*
X1300501Y641996D01*
X1305579D01*
X1308119Y644536D01*
X1305579Y647075D01*
X1297962D01*
X1417303Y625236D02*
X1419843Y627775D01*
X1424921D01*
X1427460Y625236D01*
Y615079D01*
X1424921Y612540D01*
X1419843D01*
X1417303Y615079D01*
X1412225Y612540D02*
Y627775D01*
X1404607D01*
X1402068Y625236D01*
Y620158D01*
X1404607Y617618D01*
X1412225D01*
X1407147D02*
X1402068Y612540D01*
X1396990Y620158D02*
X1386833D01*
X1371598Y612540D02*
X1381755D01*
X1371598Y622697D01*
Y625236D01*
X1374137Y627775D01*
X1379216D01*
X1381755Y625236D01*
X1356363Y612540D02*
X1366520D01*
X1356363Y622697D01*
Y625236D01*
X1358902Y627775D01*
X1363981D01*
X1366520Y625236D01*
X1351285D02*
X1348746Y627775D01*
X1343667D01*
X1341128Y625236D01*
Y622697D01*
X1343667Y620158D01*
X1346206D01*
X1343667D01*
X1341128Y617618D01*
Y615079D01*
X1343667Y612540D01*
X1348746D01*
X1351285Y615079D01*
X1170013Y316716D02*
X1165781D01*
X1167897D01*
Y329412D01*
X1170013Y327296D01*
X1340013Y329412D02*
X1331549D01*
Y327296D01*
X1340013Y318832D01*
Y316716D01*
X797199Y406405D02*
Y416561D01*
X799738Y419101D01*
X804816D01*
X807356Y416561D01*
Y406405D01*
X804816Y403866D01*
X799738D01*
X802277Y408944D02*
X797199Y403866D01*
X799738D02*
X797199Y406405D01*
X781964Y403866D02*
X792121D01*
X781964Y414022D01*
Y416561D01*
X784503Y419101D01*
X789581D01*
X792121Y416561D01*
X776885Y403866D02*
X771807D01*
X774346D01*
Y419101D01*
X776885Y416561D01*
X917199Y406405D02*
Y416561D01*
X919738Y419101D01*
X924816D01*
X927356Y416561D01*
Y406405D01*
X924816Y403866D01*
X919738D01*
X922277Y408944D02*
X917199Y403866D01*
X919738D02*
X917199Y406405D01*
X901964Y403866D02*
X912121D01*
X901964Y414022D01*
Y416561D01*
X904503Y419101D01*
X909581D01*
X912121Y416561D01*
X896885D02*
X894346Y419101D01*
X889268D01*
X886729Y416561D01*
Y406405D01*
X889268Y403866D01*
X894346D01*
X896885Y406405D01*
Y416561D01*
X677199Y406405D02*
Y416561D01*
X679738Y419101D01*
X684816D01*
X687356Y416561D01*
Y406405D01*
X684816Y403866D01*
X679738D01*
X682277Y408944D02*
X677199Y403866D01*
X679738D02*
X677199Y406405D01*
X672121Y403866D02*
X667042D01*
X669581D01*
Y419101D01*
X672121Y416561D01*
X659425Y406405D02*
X656886Y403866D01*
X651807D01*
X649268Y406405D01*
Y416561D01*
X651807Y419101D01*
X656886D01*
X659425Y416561D01*
Y414022D01*
X656886Y411483D01*
X649268D01*
X123380Y261638D02*
Y271795D01*
X125919Y274334D01*
X130997D01*
X133537Y271795D01*
Y261638D01*
X130997Y259099D01*
X125919D01*
X128458Y264177D02*
X123380Y259099D01*
X125919D02*
X123380Y261638D01*
X118301Y271795D02*
X115762Y274334D01*
X110684D01*
X108145Y271795D01*
Y269256D01*
X110684Y266716D01*
X108145Y264177D01*
Y261638D01*
X110684Y259099D01*
X115762D01*
X118301Y261638D01*
Y264177D01*
X115762Y266716D01*
X118301Y269256D01*
Y271795D01*
X115762Y266716D02*
X110684D01*
X243380Y261638D02*
Y271795D01*
X245919Y274334D01*
X250997D01*
X253536Y271795D01*
Y261638D01*
X250997Y259099D01*
X245919D01*
X248458Y264177D02*
X243380Y259099D01*
X245919D02*
X243380Y261638D01*
X238301Y274334D02*
X228145D01*
Y271795D01*
X238301Y261638D01*
Y259099D01*
X303380Y261638D02*
Y271795D01*
X305919Y274334D01*
X310997D01*
X313536Y271795D01*
Y261638D01*
X310997Y259099D01*
X305919D01*
X308458Y264177D02*
X303380Y259099D01*
X305919D02*
X303380Y261638D01*
X288145Y274334D02*
X293223Y271795D01*
X298301Y266716D01*
Y261638D01*
X295762Y259099D01*
X290684D01*
X288145Y261638D01*
Y264177D01*
X290684Y266716D01*
X298301D01*
X363380Y261638D02*
Y271795D01*
X365919Y274334D01*
X370997D01*
X373536Y271795D01*
Y261638D01*
X370997Y259099D01*
X365919D01*
X368458Y264177D02*
X363380Y259099D01*
X365919D02*
X363380Y261638D01*
X348145Y274334D02*
X358301D01*
Y266716D01*
X353223Y269256D01*
X350684D01*
X348145Y266716D01*
Y261638D01*
X350684Y259099D01*
X355762D01*
X358301Y261638D01*
X423380D02*
Y271795D01*
X425919Y274334D01*
X430997D01*
X433536Y271795D01*
Y261638D01*
X430997Y259099D01*
X425919D01*
X428458Y264177D02*
X423380Y259099D01*
X425919D02*
X423380Y261638D01*
X410684Y259099D02*
Y274334D01*
X418301Y266716D01*
X408145D01*
X483380Y261638D02*
Y271795D01*
X485919Y274334D01*
X490997D01*
X493536Y271795D01*
Y261638D01*
X490997Y259099D01*
X485919D01*
X488458Y264177D02*
X483380Y259099D01*
X485919D02*
X483380Y261638D01*
X478301Y271795D02*
X475762Y274334D01*
X470684D01*
X468145Y271795D01*
Y269256D01*
X470684Y266716D01*
X473223D01*
X470684D01*
X468145Y264177D01*
Y261638D01*
X470684Y259099D01*
X475762D01*
X478301Y261638D01*
X543380D02*
Y271795D01*
X545919Y274334D01*
X550997D01*
X553536Y271795D01*
Y261638D01*
X550997Y259099D01*
X545919D01*
X548458Y264177D02*
X543380Y259099D01*
X545919D02*
X543380Y261638D01*
X528145Y259099D02*
X538301D01*
X528145Y269256D01*
Y271795D01*
X530684Y274334D01*
X535762D01*
X538301Y271795D01*
X1106232Y394334D02*
X1116389D01*
Y379099D01*
X1106232D01*
X1116389Y386716D02*
X1111311D01*
X1090997Y391795D02*
X1093537Y394334D01*
X1098615D01*
X1101154Y391795D01*
Y389256D01*
X1098615Y386716D01*
X1093537D01*
X1090997Y384177D01*
Y381638D01*
X1093537Y379099D01*
X1098615D01*
X1101154Y381638D01*
X1085919Y379099D02*
Y394334D01*
X1078301D01*
X1075762Y391795D01*
Y386716D01*
X1078301Y384177D01*
X1085919D01*
X1070684Y391795D02*
X1068145Y394334D01*
X1063066D01*
X1060527Y391795D01*
Y389256D01*
X1063066Y386716D01*
X1065605D01*
X1063066D01*
X1060527Y384177D01*
Y381638D01*
X1063066Y379099D01*
X1068145D01*
X1070684Y381638D01*
X1045292Y379099D02*
X1055449D01*
X1045292Y389256D01*
Y391795D01*
X1047831Y394334D01*
X1052910D01*
X1055449Y391795D01*
X801000Y672374D02*
X798460Y674913D01*
Y679991D01*
X801000Y682530D01*
X811156D01*
X813696Y679991D01*
Y674913D01*
X811156Y672374D01*
X798460Y657139D02*
Y667295D01*
X806078D01*
X803539Y662217D01*
Y659678D01*
X806078Y657139D01*
X811156D01*
X813696Y659678D01*
Y664756D01*
X811156Y667295D01*
X910746Y230202D02*
X908206Y232741D01*
Y237819D01*
X910746Y240359D01*
X920902D01*
X923442Y237819D01*
Y232741D01*
X920902Y230202D01*
X923442Y214967D02*
Y225124D01*
X913285Y214967D01*
X910746D01*
X908206Y217506D01*
Y222584D01*
X910746Y225124D01*
D15*
X1175513Y296190D02*
Y343591D01*
X1324513D01*
Y296190D02*
Y343591D01*
X1175513Y296190D02*
X1324513D01*
X246515Y683541D02*
X273485D01*
X246515Y656459D02*
X273485D01*
X1427013Y223717D02*
X1453013D01*
Y249216D02*
Y249716D01*
Y223717D02*
Y224216D01*
X1427013Y249716D02*
X1453013D01*
X1427013Y249216D02*
Y249716D01*
Y223717D02*
Y224216D01*
X491452Y657389D02*
Y681510D01*
X508573Y657389D02*
Y681510D01*
X821452Y657389D02*
Y681510D01*
X838573Y657389D02*
Y681510D01*
X197544Y563860D02*
X202482D01*
X197544Y575922D02*
X202482D01*
X1349513Y220966D02*
X1370513D01*
X1349513Y252467D02*
X1370513D01*
X1471452Y224656D02*
Y248777D01*
X1488573Y224656D02*
Y248777D01*
X1321452Y224656D02*
Y248777D01*
X1338573Y224656D02*
Y248777D01*
X1301452Y224656D02*
Y248777D01*
X1318573Y224656D02*
Y248777D01*
X931663Y257887D02*
Y275387D01*
X948513Y257966D02*
Y275466D01*
X931263Y220280D02*
Y240879D01*
X948763Y220280D02*
Y240879D01*
X958263Y224041D02*
Y228440D01*
Y410041D02*
Y417541D01*
X1114463D02*
X1139763D01*
X958263D02*
X983663D01*
X1139763Y224041D02*
Y228440D01*
Y410041D02*
Y417541D01*
X958263Y224041D02*
X1139763D01*
X538263Y356141D02*
X540263D01*
X538263Y343641D02*
X540263D01*
X516113Y246390D02*
Y313391D01*
Y246390D02*
X563913D01*
Y313391D01*
X516113D02*
X563913D01*
X254763Y618891D02*
Y620891D01*
X265263Y618891D02*
Y620891D01*
X254513Y569391D02*
Y570391D01*
X265513Y569391D02*
Y570391D01*
X276113Y313391D02*
X323913D01*
Y246390D02*
Y313391D01*
X276113Y246390D02*
X323913D01*
X276113D02*
Y313391D01*
X336113D02*
X383913D01*
Y246390D02*
Y313391D01*
X336113Y246390D02*
X383913D01*
X336113D02*
Y313391D01*
X396113D02*
X443913D01*
Y246390D02*
Y313391D01*
X396113Y246390D02*
X443913D01*
X396113D02*
Y313391D01*
X456113D02*
X503913D01*
Y246390D02*
Y313391D01*
X456113Y246390D02*
X503913D01*
X456113D02*
Y313391D01*
X216113D02*
X263913D01*
Y246390D02*
Y313391D01*
X216113Y246390D02*
X263913D01*
X216113D02*
Y313391D01*
X96113D02*
X143913D01*
Y246390D02*
Y313391D01*
X96113Y246390D02*
X143913D01*
X96113D02*
Y313391D01*
X683363Y271841D02*
Y301691D01*
X576663Y271841D02*
X683363D01*
X576663D02*
Y301691D01*
X803363Y271841D02*
Y301691D01*
X696663Y271841D02*
X803363D01*
X696663D02*
Y301691D01*
X923363Y271841D02*
Y301691D01*
X816663Y271841D02*
X923363D01*
X816663D02*
Y301691D01*
X358263Y356141D02*
X360263D01*
X358263Y343641D02*
X360263D01*
X419013Y356141D02*
X421013D01*
X419013Y343641D02*
X421013D01*
X479013Y356141D02*
X481013D01*
X479013Y343641D02*
X481013D01*
X119013Y356141D02*
X121013D01*
X119013Y343641D02*
X121013D01*
X299013Y356141D02*
X301013D01*
X299013Y343641D02*
X301013D01*
X239013Y356141D02*
X241013D01*
X239013Y343641D02*
X241013D01*
D16*
X1247345Y340525D02*
X1242267D01*
X1244806D01*
Y332908D01*
X1234649Y340525D02*
X1239728D01*
Y336716D01*
X1237188D01*
X1239728D01*
Y332908D01*
X1232110Y340525D02*
X1227032D01*
X1229571D01*
Y332908D01*
X1216875D02*
X1214336D01*
X1215605D01*
Y340525D01*
X1216875Y339256D01*
X1454017Y261756D02*
X1455287Y263025D01*
X1457826D01*
X1459095Y261756D01*
Y260486D01*
X1457826Y259216D01*
X1455287D01*
X1454017Y257947D01*
Y256677D01*
X1455287Y255408D01*
X1457826D01*
X1459095Y256677D01*
X1451478Y263025D02*
Y255408D01*
Y259216D01*
X1446399D01*
Y263025D01*
Y255408D01*
X1443860Y263025D02*
X1438782D01*
X1441321D01*
Y255408D01*
X1436243Y259216D02*
X1431164D01*
X1428625Y255408D02*
X1426086D01*
X1427355D01*
Y263025D01*
X1428625Y261756D01*
X250285Y676983D02*
Y669365D01*
X254094D01*
X255363Y670635D01*
Y673174D01*
X254094Y674444D01*
X250285D01*
X252824D02*
X255363Y676983D01*
X262981Y670635D02*
X261711Y669365D01*
X259172D01*
X257902Y670635D01*
Y671905D01*
X259172Y673174D01*
X261711D01*
X262981Y674444D01*
Y675713D01*
X261711Y676983D01*
X259172D01*
X257902Y675713D01*
X265520Y676983D02*
X268059D01*
X266790D01*
Y669365D01*
X265520Y670635D01*
X250362Y362908D02*
Y370525D01*
X246554D01*
X245284Y369256D01*
Y366716D01*
X246554Y365447D01*
X250362D01*
X247823D02*
X245284Y362908D01*
X242745D02*
X240206D01*
X241475D01*
Y370525D01*
X242745Y369256D01*
X236397Y370525D02*
X231319D01*
Y369256D01*
X236397Y364177D01*
Y362908D01*
X310362D02*
Y370525D01*
X306554D01*
X305284Y369256D01*
Y366716D01*
X306554Y365447D01*
X310362D01*
X307823D02*
X305284Y362908D01*
X302745D02*
X300206D01*
X301475D01*
Y370525D01*
X302745Y369256D01*
X291319Y370525D02*
X293858Y369256D01*
X296397Y366716D01*
Y364177D01*
X295127Y362908D01*
X292588D01*
X291319Y364177D01*
Y365447D01*
X292588Y366716D01*
X296397D01*
X370363Y362908D02*
Y370525D01*
X366554D01*
X365284Y369256D01*
Y366716D01*
X366554Y365447D01*
X370363D01*
X367823D02*
X365284Y362908D01*
X362745D02*
X360206D01*
X361475D01*
Y370525D01*
X362745Y369256D01*
X351319Y370525D02*
X356397D01*
Y366716D01*
X353858Y367986D01*
X352588D01*
X351319Y366716D01*
Y364177D01*
X352588Y362908D01*
X355127D01*
X356397Y364177D01*
X430363Y362908D02*
Y370525D01*
X426554D01*
X425284Y369256D01*
Y366716D01*
X426554Y365447D01*
X430363D01*
X427823D02*
X425284Y362908D01*
X422745D02*
X420206D01*
X421475D01*
Y370525D01*
X422745Y369256D01*
X412588Y362908D02*
Y370525D01*
X416397Y366716D01*
X411319D01*
X490363Y362908D02*
Y370525D01*
X486554D01*
X485284Y369256D01*
Y366716D01*
X486554Y365447D01*
X490363D01*
X487823D02*
X485284Y362908D01*
X482745D02*
X480206D01*
X481475D01*
Y370525D01*
X482745Y369256D01*
X476397D02*
X475127Y370525D01*
X472588D01*
X471319Y369256D01*
Y367986D01*
X472588Y366716D01*
X473858D01*
X472588D01*
X471319Y365447D01*
Y364177D01*
X472588Y362908D01*
X475127D01*
X476397Y364177D01*
X550363Y362908D02*
Y370525D01*
X546554D01*
X545284Y369256D01*
Y366716D01*
X546554Y365447D01*
X550363D01*
X547823D02*
X545284Y362908D01*
X542745D02*
X540206D01*
X541475D01*
Y370525D01*
X542745Y369256D01*
X531319Y362908D02*
X536397D01*
X531319Y367986D01*
Y369256D01*
X532588Y370525D01*
X535127D01*
X536397Y369256D01*
X125919Y362908D02*
Y370525D01*
X122110D01*
X120841Y369256D01*
Y366716D01*
X122110Y365447D01*
X125919D01*
X123380D02*
X120841Y362908D01*
X118301D02*
X115762D01*
X117032D01*
Y370525D01*
X118301Y369256D01*
X1332110Y259256D02*
X1333380Y260525D01*
X1335919D01*
X1337189Y259256D01*
Y254177D01*
X1335919Y252908D01*
X1333380D01*
X1332110Y254177D01*
X1329571Y259256D02*
X1328301Y260525D01*
X1325762D01*
X1324493Y259256D01*
Y257986D01*
X1325762Y256716D01*
X1324493Y255447D01*
Y254177D01*
X1325762Y252908D01*
X1328301D01*
X1329571Y254177D01*
Y255447D01*
X1328301Y256716D01*
X1329571Y257986D01*
Y259256D01*
X1328301Y256716D02*
X1325762D01*
X1312110Y259256D02*
X1313380Y260525D01*
X1315919D01*
X1317189Y259256D01*
Y254177D01*
X1315919Y252908D01*
X1313380D01*
X1312110Y254177D01*
X1309571Y260525D02*
X1304493D01*
Y259256D01*
X1309571Y254177D01*
Y252908D01*
X1482110Y259256D02*
X1483380Y260525D01*
X1485919D01*
X1487189Y259256D01*
Y254177D01*
X1485919Y252908D01*
X1483380D01*
X1482110Y254177D01*
X1474493Y260525D02*
X1477032Y259256D01*
X1479571Y256716D01*
Y254177D01*
X1478301Y252908D01*
X1475762D01*
X1474493Y254177D01*
Y255447D01*
X1475762Y256716D01*
X1479571D01*
X478301Y670719D02*
X477032Y671989D01*
Y674528D01*
X478301Y675797D01*
X483380D01*
X484649Y674528D01*
Y671989D01*
X483380Y670719D01*
X484649Y664371D02*
X477032D01*
X480840Y668180D01*
Y663102D01*
X940841Y289256D02*
X942110Y290525D01*
X944649D01*
X945919Y289256D01*
Y284177D01*
X944649Y282908D01*
X942110D01*
X940841Y284177D01*
X938301Y282908D02*
X935762D01*
X937032D01*
Y290525D01*
X938301Y289256D01*
X1377345Y270525D02*
Y262908D01*
X1373537D01*
X1372267Y264177D01*
Y265447D01*
X1373537Y266716D01*
X1377345D01*
X1373537D01*
X1372267Y267986D01*
Y269256D01*
X1373537Y270525D01*
X1377345D01*
X1369728Y262908D02*
Y270525D01*
X1367189Y267986D01*
X1364649Y270525D01*
Y262908D01*
X1362110D02*
Y270525D01*
X1358301D01*
X1357032Y269256D01*
Y266716D01*
X1358301Y265447D01*
X1362110D01*
X1354493Y266716D02*
X1349414D01*
X1346875Y262908D02*
X1344336D01*
X1345605D01*
Y270525D01*
X1346875Y269256D01*
M02*
