G04*
G04 #@! TF.GenerationSoftware,Altium Limited,Altium Designer,25.5.2 (35)*
G04*
G04 Layer_Color=65535*
%FSLAX44Y44*%
%MOMM*%
G71*
G04*
G04 #@! TF.SameCoordinates,5F75CC16-15F1-4AC5-BF31-021AB63D6FFF*
G04*
G04*
G04 #@! TF.FilePolarity,Positive*
G04*
G01*
G75*
%ADD10C,0.2000*%
%ADD11C,0.2540*%
%ADD12C,0.2500*%
%ADD13C,0.6000*%
%ADD14C,0.1500*%
%ADD15C,0.1270*%
%ADD16C,0.1520*%
%ADD17C,0.1000*%
D10*
X1777700Y355450D02*
G03*
X1777700Y355450I-1000J0D01*
G01*
X957700D02*
G03*
X957700Y355450I-1000J0D01*
G01*
X817700D02*
G03*
X817700Y355450I-1000J0D01*
G01*
X1139233Y653692D02*
G03*
X1139233Y666392I0J6350D01*
G01*
X809500Y653650D02*
G03*
X809500Y666350I0J6350D01*
G01*
X479513Y653541D02*
G03*
X479513Y666241I0J6350D01*
G01*
X1637700Y355450D02*
G03*
X1637700Y355450I-1000J0D01*
G01*
X1846000Y381250D02*
G03*
X1846000Y398750I-4841J8750D01*
G01*
X402513Y659891D02*
G03*
X402513Y659891I-42500J0D01*
G01*
X474013Y669891D02*
G03*
X474013Y669891I-34000J0D01*
G01*
X1846000Y311250D02*
G03*
X1846000Y328750I-4841J8750D01*
G01*
X1429000Y356250D02*
X1431000D01*
X1429000Y343750D02*
X1431000D01*
X1369000Y356250D02*
X1371000D01*
X1369000Y343750D02*
X1371000D01*
X1309000Y356250D02*
X1311000D01*
X1309000Y343750D02*
X1311000D01*
X1249000Y356250D02*
X1251000D01*
X1249000Y343750D02*
X1251000D01*
X1114600Y290000D02*
Y296500D01*
X1107300D02*
X1114600D01*
X1085400Y290000D02*
Y296500D01*
X1092700D01*
X1014600Y230000D02*
Y236500D01*
X1007300D02*
X1014600D01*
X985400Y230000D02*
Y236500D01*
X992700D01*
X599000Y356250D02*
X601000D01*
X599000Y343750D02*
X601000D01*
X539000Y356250D02*
X541000D01*
X539000Y343750D02*
X541000D01*
X479000Y356250D02*
X481000D01*
X479000Y343750D02*
X481000D01*
X419000Y356250D02*
X421000D01*
X419000Y343750D02*
X421000D01*
X359000Y356250D02*
X361000D01*
X359000Y343750D02*
X361000D01*
X299000Y356250D02*
X301000D01*
X299000Y343750D02*
X301000D01*
X239000Y356250D02*
X241000D01*
X239000Y343750D02*
X241000D01*
X179000Y356250D02*
X181000D01*
X179000Y343750D02*
X181000D01*
X119000Y356250D02*
X121000D01*
X119000Y343750D02*
X121000D01*
X1770000Y722750D02*
Y725000D01*
X1730000D02*
X1770000D01*
X1730000Y722750D02*
Y725000D01*
X1690000Y722750D02*
Y725000D01*
X1650000D02*
X1690000D01*
X1650000Y722750D02*
Y725000D01*
X1610000Y722750D02*
Y725000D01*
X1570000D02*
X1610000D01*
X1570000Y722750D02*
Y725000D01*
X1530000Y722750D02*
Y725000D01*
X1490000D02*
X1530000D01*
X1490000Y722750D02*
Y725000D01*
X1460233Y633542D02*
Y686542D01*
X1139233Y666392D02*
Y686542D01*
Y633542D02*
Y653692D01*
Y686542D02*
X1460233D01*
X1139233Y633542D02*
X1460233D01*
X1130500Y633500D02*
Y686500D01*
X809500Y666350D02*
Y686500D01*
Y633500D02*
Y653650D01*
Y686500D02*
X1130500D01*
X809500Y633500D02*
X1130500D01*
X800513Y633391D02*
Y686391D01*
X479513Y666241D02*
Y686391D01*
Y633391D02*
Y653541D01*
Y686391D02*
X800513D01*
X479513Y633391D02*
X800513D01*
X1085400Y236500D02*
X1092700D01*
X1085400Y230000D02*
Y236500D01*
X1107300D02*
X1114600D01*
Y230000D02*
Y236500D01*
X1705750Y475000D02*
X1714250D01*
X1705750Y445000D02*
X1714250D01*
X1453900Y246500D02*
Y313500D01*
X1406100Y246500D02*
X1453900D01*
X1406100D02*
Y313500D01*
X1453900D01*
X1393900Y246500D02*
Y313500D01*
X1346100Y246500D02*
X1393900D01*
X1346100D02*
Y313500D01*
X1393900D01*
X1333901Y246500D02*
Y313500D01*
X1286101Y246500D02*
X1333901D01*
X1286101D02*
Y313500D01*
X1333901D01*
X1273900Y246500D02*
Y313500D01*
X1226100Y246500D02*
X1273900D01*
X1226100D02*
Y313500D01*
X1273900D01*
X1169459Y227500D02*
X1190541D01*
Y290700D02*
Y292500D01*
Y227500D02*
Y229300D01*
X1169459Y292500D02*
X1190541D01*
X1169459Y290700D02*
Y292500D01*
Y227500D02*
Y229300D01*
D11*
X1765000Y460000D02*
G03*
X1765000Y460000I-55000J0D01*
G01*
X1801000D02*
G03*
X1801000Y460000I-91000J0D01*
G01*
X1291013Y459891D02*
G03*
X1291013Y459891I-91000J0D01*
G01*
X1255013D02*
G03*
X1255013Y459891I-55000J0D01*
G01*
X1465013Y459891D02*
G03*
X1465013Y459891I-55000J0D01*
G01*
X1501013D02*
G03*
X1501013Y459891I-91000J0D01*
G01*
X235013Y459891D02*
G03*
X235013Y459891I-55000J0D01*
G01*
X271013D02*
G03*
X271013Y459891I-91000J0D01*
G01*
X198013Y620391D02*
G03*
X204363Y620391I3175J0D01*
G01*
X955013Y459891D02*
G03*
X955013Y459891I-55000J0D01*
G01*
X991013D02*
G03*
X991013Y459891I-91000J0D01*
G01*
X445013Y459891D02*
G03*
X445013Y459891I-55000J0D01*
G01*
X481013D02*
G03*
X481013Y459891I-91000J0D01*
G01*
X745013D02*
G03*
X745013Y459891I-55000J0D01*
G01*
X781013D02*
G03*
X781013Y459891I-91000J0D01*
G01*
X842226Y272383D02*
Y287617D01*
X849843D01*
X852383Y285078D01*
Y280000D01*
X849843Y277461D01*
X842226D01*
X857461Y287617D02*
Y272383D01*
X862539Y277461D01*
X867618Y272383D01*
Y287617D01*
X872696Y272383D02*
X877774D01*
X875235D01*
Y287617D01*
X872696Y285078D01*
X1623339Y547617D02*
X1628417D01*
X1625878D01*
Y532383D01*
X1623339D01*
X1628417D01*
X1636035D02*
Y547617D01*
X1646191Y532383D01*
Y547617D01*
X1651270Y540000D02*
X1661426D01*
X1666505Y547617D02*
X1676661D01*
Y545078D01*
X1666505Y534922D01*
Y532383D01*
X1157304Y667617D02*
Y654922D01*
X1159843Y652383D01*
X1164922D01*
X1167461Y654922D01*
Y667617D01*
X1182696D02*
X1177617Y665078D01*
X1172539Y660000D01*
Y654922D01*
X1175078Y652383D01*
X1180157D01*
X1182696Y654922D01*
Y657461D01*
X1180157Y660000D01*
X1172539D01*
X497304Y667617D02*
Y654922D01*
X499843Y652383D01*
X504922D01*
X507461Y654922D01*
Y667617D01*
X522696D02*
X512539D01*
Y660000D01*
X517617Y662539D01*
X520157D01*
X522696Y660000D01*
Y654922D01*
X520157Y652383D01*
X515078D01*
X512539Y654922D01*
X827304Y667617D02*
Y654922D01*
X829843Y652383D01*
X834922D01*
X837461Y654922D01*
Y667617D01*
X850157Y652383D02*
Y667617D01*
X842539Y660000D01*
X852696D01*
X1419843Y294922D02*
Y305078D01*
X1417304Y307617D01*
X1412226D01*
X1409687Y305078D01*
Y294922D01*
X1412226Y292383D01*
X1417304D01*
X1414765Y297461D02*
X1419843Y292383D01*
X1417304D02*
X1419843Y294922D01*
X1435078Y292383D02*
X1424922D01*
X1435078Y302539D01*
Y305078D01*
X1432539Y307617D01*
X1427461D01*
X1424922Y305078D01*
X1450314Y307617D02*
X1445235Y305078D01*
X1440157Y300000D01*
Y294922D01*
X1442696Y292383D01*
X1447774D01*
X1450314Y294922D01*
Y297461D01*
X1447774Y300000D01*
X1440157D01*
X1359843Y294922D02*
Y305078D01*
X1357304Y307617D01*
X1352226D01*
X1349687Y305078D01*
Y294922D01*
X1352226Y292383D01*
X1357304D01*
X1354765Y297461D02*
X1359843Y292383D01*
X1357304D02*
X1359843Y294922D01*
X1375078Y292383D02*
X1364922D01*
X1375078Y302539D01*
Y305078D01*
X1372539Y307617D01*
X1367461D01*
X1364922Y305078D01*
X1390313Y307617D02*
X1380157D01*
Y300000D01*
X1385235Y302539D01*
X1387774D01*
X1390313Y300000D01*
Y294922D01*
X1387774Y292383D01*
X1382696D01*
X1380157Y294922D01*
X1299843D02*
Y305078D01*
X1297304Y307617D01*
X1292226D01*
X1289687Y305078D01*
Y294922D01*
X1292226Y292383D01*
X1297304D01*
X1294765Y297461D02*
X1299843Y292383D01*
X1297304D02*
X1299843Y294922D01*
X1315078Y292383D02*
X1304922D01*
X1315078Y302539D01*
Y305078D01*
X1312539Y307617D01*
X1307461D01*
X1304922Y305078D01*
X1327774Y292383D02*
Y307617D01*
X1320157Y300000D01*
X1330313D01*
X1239843Y294922D02*
Y305078D01*
X1237304Y307617D01*
X1232226D01*
X1229687Y305078D01*
Y294922D01*
X1232226Y292383D01*
X1237304D01*
X1234765Y297461D02*
X1239843Y292383D01*
X1237304D02*
X1239843Y294922D01*
X1255078Y292383D02*
X1244922D01*
X1255078Y302539D01*
Y305078D01*
X1252539Y307617D01*
X1247461D01*
X1244922Y305078D01*
X1260157D02*
X1262696Y307617D01*
X1267774D01*
X1270313Y305078D01*
Y302539D01*
X1267774Y300000D01*
X1265235D01*
X1267774D01*
X1270313Y297461D01*
Y294922D01*
X1267774Y292383D01*
X1262696D01*
X1260157Y294922D01*
X1659687Y272383D02*
Y287617D01*
X1667304D01*
X1669843Y285078D01*
Y280000D01*
X1667304Y277461D01*
X1659687D01*
X1674922Y287617D02*
Y272383D01*
X1680000Y277461D01*
X1685078Y272383D01*
Y287617D01*
X1697774Y272383D02*
Y287617D01*
X1690157Y280000D01*
X1700313D01*
X1519687Y272383D02*
Y287617D01*
X1527304D01*
X1529843Y285078D01*
Y280000D01*
X1527304Y277461D01*
X1519687D01*
X1534922Y287617D02*
Y272383D01*
X1540000Y277461D01*
X1545078Y272383D01*
Y287617D01*
X1550157Y285078D02*
X1552696Y287617D01*
X1557774D01*
X1560313Y285078D01*
Y282539D01*
X1557774Y280000D01*
X1555235D01*
X1557774D01*
X1560313Y277461D01*
Y274922D01*
X1557774Y272383D01*
X1552696D01*
X1550157Y274922D01*
X699687Y272383D02*
Y287617D01*
X707304D01*
X709843Y285078D01*
Y280000D01*
X707304Y277461D01*
X699687D01*
X714922Y287617D02*
Y272383D01*
X720000Y277461D01*
X725078Y272383D01*
Y287617D01*
X740313Y272383D02*
X730157D01*
X740313Y282539D01*
Y285078D01*
X737774Y287617D01*
X732696D01*
X730157Y285078D01*
X108301Y641795D02*
X105762Y644334D01*
X100684D01*
X98145Y641795D01*
Y631638D01*
X100684Y629099D01*
X105762D01*
X108301Y631638D01*
X113380D02*
X115919Y629099D01*
X120997D01*
X123537Y631638D01*
Y641795D01*
X120997Y644334D01*
X115919D01*
X113380Y641795D01*
Y639256D01*
X115919Y636716D01*
X123537D01*
X188145Y604334D02*
Y591638D01*
X190684Y589099D01*
X195762D01*
X198301Y591638D01*
Y604334D01*
X203380Y601795D02*
X205919Y604334D01*
X210997D01*
X213536Y601795D01*
Y599256D01*
X210997Y596716D01*
X208458D01*
X210997D01*
X213536Y594177D01*
Y591638D01*
X210997Y589099D01*
X205919D01*
X203380Y591638D01*
X111953Y261638D02*
Y271795D01*
X109414Y274334D01*
X104336D01*
X101797Y271795D01*
Y261638D01*
X104336Y259099D01*
X109414D01*
X106875Y264177D02*
X111953Y259099D01*
X109414D02*
X111953Y261638D01*
X117032Y259099D02*
X122110D01*
X119571D01*
Y274334D01*
X117032Y271795D01*
X129728D02*
X132267Y274334D01*
X137345D01*
X139884Y271795D01*
Y269256D01*
X137345Y266716D01*
X139884Y264177D01*
Y261638D01*
X137345Y259099D01*
X132267D01*
X129728Y261638D01*
Y264177D01*
X132267Y266716D01*
X129728Y269256D01*
Y271795D01*
X132267Y266716D02*
X137345D01*
X231954Y261638D02*
Y271795D01*
X229414Y274334D01*
X224336D01*
X221797Y271795D01*
Y261638D01*
X224336Y259099D01*
X229414D01*
X226875Y264177D02*
X231954Y259099D01*
X229414D02*
X231954Y261638D01*
X237032Y259099D02*
X242110D01*
X239571D01*
Y274334D01*
X237032Y271795D01*
X249728Y274334D02*
X259884D01*
Y271795D01*
X249728Y261638D01*
Y259099D01*
X291954Y261638D02*
Y271795D01*
X289414Y274334D01*
X284336D01*
X281797Y271795D01*
Y261638D01*
X284336Y259099D01*
X289414D01*
X286875Y264177D02*
X291954Y259099D01*
X289414D02*
X291954Y261638D01*
X297032Y259099D02*
X302110D01*
X299571D01*
Y274334D01*
X297032Y271795D01*
X319884Y274334D02*
X314806Y271795D01*
X309728Y266716D01*
Y261638D01*
X312267Y259099D01*
X317345D01*
X319884Y261638D01*
Y264177D01*
X317345Y266716D01*
X309728D01*
X351113Y264922D02*
Y275078D01*
X348574Y277617D01*
X343495D01*
X340956Y275078D01*
Y264922D01*
X343495Y262383D01*
X348574D01*
X346035Y267461D02*
X351113Y262383D01*
X348574D02*
X351113Y264922D01*
X356191Y262383D02*
X361270D01*
X358730D01*
Y277617D01*
X356191Y275078D01*
X379044Y277617D02*
X368887D01*
Y270000D01*
X373965Y272539D01*
X376505D01*
X379044Y270000D01*
Y264922D01*
X376505Y262383D01*
X371426D01*
X368887Y264922D01*
X411113Y274922D02*
Y285078D01*
X408574Y287617D01*
X403495D01*
X400956Y285078D01*
Y274922D01*
X403495Y272383D01*
X408574D01*
X406035Y277461D02*
X411113Y272383D01*
X408574D02*
X411113Y274922D01*
X416191Y272383D02*
X421270D01*
X418730D01*
Y287617D01*
X416191Y285078D01*
X436505Y272383D02*
Y287617D01*
X428887Y280000D01*
X439044D01*
X471113Y254922D02*
Y265078D01*
X468574Y267617D01*
X463495D01*
X460956Y265078D01*
Y254922D01*
X463495Y252383D01*
X468574D01*
X466035Y257461D02*
X471113Y252383D01*
X468574D02*
X471113Y254922D01*
X476191Y252383D02*
X481270D01*
X478730D01*
Y267617D01*
X476191Y265078D01*
X488887D02*
X491426Y267617D01*
X496505D01*
X499044Y265078D01*
Y262539D01*
X496505Y260000D01*
X493965D01*
X496505D01*
X499044Y257461D01*
Y254922D01*
X496505Y252383D01*
X491426D01*
X488887Y254922D01*
X531113Y284922D02*
Y295078D01*
X528574Y297617D01*
X523495D01*
X520956Y295078D01*
Y284922D01*
X523495Y282383D01*
X528574D01*
X526035Y287461D02*
X531113Y282383D01*
X528574D02*
X531113Y284922D01*
X536191Y282383D02*
X541270D01*
X538730D01*
Y297617D01*
X536191Y295078D01*
X559044Y282383D02*
X548887D01*
X559044Y292539D01*
Y295078D01*
X556505Y297617D01*
X551426D01*
X548887Y295078D01*
X593652Y284922D02*
Y295078D01*
X591113Y297617D01*
X586035D01*
X583495Y295078D01*
Y284922D01*
X586035Y282383D01*
X591113D01*
X588574Y287461D02*
X593652Y282383D01*
X591113D02*
X593652Y284922D01*
X598730Y282383D02*
X603809D01*
X601270D01*
Y297617D01*
X598730Y295078D01*
X611426Y282383D02*
X616505D01*
X613965D01*
Y297617D01*
X611426Y295078D01*
X171954Y261638D02*
Y271795D01*
X169414Y274334D01*
X164336D01*
X161797Y271795D01*
Y261638D01*
X164336Y259099D01*
X169414D01*
X166875Y264177D02*
X171954Y259099D01*
X169414D02*
X171954Y261638D01*
X177032Y259099D02*
X182110D01*
X179571D01*
Y274334D01*
X177032Y271795D01*
X189728D02*
X192267Y274334D01*
X197345D01*
X199884Y271795D01*
Y261638D01*
X197345Y259099D01*
X192267D01*
X189728Y261638D01*
Y271795D01*
X220841Y661638D02*
Y671795D01*
X218301Y674334D01*
X213223D01*
X210684Y671795D01*
Y661638D01*
X213223Y659099D01*
X218301D01*
X215762Y664177D02*
X220841Y659099D01*
X218301D02*
X220841Y661638D01*
X225919Y659099D02*
X230997D01*
X228458D01*
Y674334D01*
X225919Y671795D01*
X94179Y547508D02*
X99258D01*
X96718D01*
Y532273D01*
X94179D01*
X99258D01*
X106875D02*
Y547508D01*
X117032Y532273D01*
Y547508D01*
X122110Y539891D02*
X132267D01*
X147502Y547508D02*
X142424Y544969D01*
X137345Y539891D01*
Y534812D01*
X139884Y532273D01*
X144963D01*
X147502Y534812D01*
Y537351D01*
X144963Y539891D01*
X137345D01*
X304179Y547508D02*
X309258D01*
X306718D01*
Y532273D01*
X304179D01*
X309258D01*
X316875D02*
Y547508D01*
X327032Y532273D01*
Y547508D01*
X332110Y539891D02*
X342267D01*
X357502Y547508D02*
X347345D01*
Y539891D01*
X352424Y542430D01*
X354963D01*
X357502Y539891D01*
Y534812D01*
X354963Y532273D01*
X349884D01*
X347345Y534812D01*
X604179Y547508D02*
X609258D01*
X606718D01*
Y532273D01*
X604179D01*
X609258D01*
X616875D02*
Y547508D01*
X627032Y532273D01*
Y547508D01*
X632110Y539891D02*
X642267D01*
X654963Y532273D02*
Y547508D01*
X647345Y539891D01*
X657502D01*
X814179Y547508D02*
X819258D01*
X816718D01*
Y532273D01*
X814179D01*
X819258D01*
X826875D02*
Y547508D01*
X837032Y532273D01*
Y547508D01*
X842110Y539891D02*
X852267D01*
X857345Y544969D02*
X859884Y547508D01*
X864963D01*
X867502Y544969D01*
Y542430D01*
X864963Y539891D01*
X862424D01*
X864963D01*
X867502Y537351D01*
Y534812D01*
X864963Y532273D01*
X859884D01*
X857345Y534812D01*
X1114179Y547508D02*
X1119258D01*
X1116718D01*
Y532273D01*
X1114179D01*
X1119258D01*
X1126875D02*
Y547508D01*
X1137032Y532273D01*
Y547508D01*
X1142110Y539891D02*
X1152267D01*
X1167502Y532273D02*
X1157345D01*
X1167502Y542430D01*
Y544969D01*
X1164963Y547508D01*
X1159884D01*
X1157345Y544969D01*
X1326718Y547508D02*
X1331797D01*
X1329258D01*
Y532273D01*
X1326718D01*
X1331797D01*
X1339414D02*
Y547508D01*
X1349571Y532273D01*
Y547508D01*
X1354649Y539891D02*
X1364806D01*
X1369884Y532273D02*
X1374963D01*
X1372424D01*
Y547508D01*
X1369884Y544969D01*
X168145Y444334D02*
Y429099D01*
X175762D01*
X178301Y431638D01*
Y441795D01*
X175762Y444334D01*
X168145D01*
X183380Y431638D02*
X185919Y429099D01*
X190997D01*
X193536Y431638D01*
Y441795D01*
X190997Y444334D01*
X185919D01*
X183380Y441795D01*
Y439256D01*
X185919Y436716D01*
X193536D01*
X378145Y444334D02*
Y429099D01*
X385762D01*
X388301Y431638D01*
Y441795D01*
X385762Y444334D01*
X378145D01*
X393380Y441795D02*
X395919Y444334D01*
X400997D01*
X403536Y441795D01*
Y439256D01*
X400997Y436716D01*
X403536Y434177D01*
Y431638D01*
X400997Y429099D01*
X395919D01*
X393380Y431638D01*
Y434177D01*
X395919Y436716D01*
X393380Y439256D01*
Y441795D01*
X395919Y436716D02*
X400997D01*
X678145Y444334D02*
Y429099D01*
X685762D01*
X688301Y431638D01*
Y441795D01*
X685762Y444334D01*
X678145D01*
X693380D02*
X703537D01*
Y441795D01*
X693380Y431638D01*
Y429099D01*
X888145Y444334D02*
Y429099D01*
X895762D01*
X898301Y431638D01*
Y441795D01*
X895762Y444334D01*
X888145D01*
X913537D02*
X908458Y441795D01*
X903380Y436716D01*
Y431638D01*
X905919Y429099D01*
X910997D01*
X913537Y431638D01*
Y434177D01*
X910997Y436716D01*
X903380D01*
X1188145Y444334D02*
Y429099D01*
X1195762D01*
X1198301Y431638D01*
Y441795D01*
X1195762Y444334D01*
X1188145D01*
X1213537D02*
X1203380D01*
Y436716D01*
X1208458Y439256D01*
X1210997D01*
X1213537Y436716D01*
Y431638D01*
X1210997Y429099D01*
X1205919D01*
X1203380Y431638D01*
X1398145Y444334D02*
Y429099D01*
X1405762D01*
X1408301Y431638D01*
Y441795D01*
X1405762Y444334D01*
X1398145D01*
X1420997Y429099D02*
Y444334D01*
X1413380Y436716D01*
X1423537D01*
D12*
X1735750Y681500D02*
G03*
X1735750Y681500I-1250J0D01*
G01*
X1655750D02*
G03*
X1655750Y681500I-1250J0D01*
G01*
X1575750D02*
G03*
X1575750Y681500I-1250J0D01*
G01*
X1495750D02*
G03*
X1495750Y681500I-1250J0D01*
G01*
X1148283Y621942D02*
G03*
X1148283Y621942I-1250J0D01*
G01*
X818550Y621900D02*
G03*
X818550Y621900I-1250J0D01*
G01*
X488563Y621791D02*
G03*
X488563Y621791I-1250J0D01*
G01*
X1685250Y467250D02*
G03*
X1685250Y467250I-1250J0D01*
G01*
X1454250Y325750D02*
G03*
X1454250Y325750I-1250J0D01*
G01*
X1394250D02*
G03*
X1394250Y325750I-1250J0D01*
G01*
X1334251Y325750D02*
G03*
X1334251Y325750I-1250J0D01*
G01*
X1274250Y325750D02*
G03*
X1274250Y325750I-1250J0D01*
G01*
X1527513Y657891D02*
G03*
X1527513Y657891I-1250J0D01*
G01*
X1687513D02*
G03*
X1687513Y657891I-1250J0D01*
G01*
X1206750Y240000D02*
G03*
X1206750Y240000I-1250J0D01*
G01*
X144263Y325640D02*
G03*
X144263Y325640I-1250J0D01*
G01*
X171250Y714750D02*
G03*
X171250Y714750I-1250J0D01*
G01*
X1385263Y467141D02*
G03*
X1385263Y467141I-1250J0D01*
G01*
X384263Y325640D02*
G03*
X384263Y325640I-1250J0D01*
G01*
X444263D02*
G03*
X444263Y325640I-1250J0D01*
G01*
X624263D02*
G03*
X624263Y325640I-1250J0D01*
G01*
X564263D02*
G03*
X564263Y325640I-1250J0D01*
G01*
X504263D02*
G03*
X504263Y325640I-1250J0D01*
G01*
X1175263Y467141D02*
G03*
X1175263Y467141I-1250J0D01*
G01*
X264263Y325640D02*
G03*
X264263Y325640I-1250J0D01*
G01*
X324263D02*
G03*
X324263Y325640I-1250J0D01*
G01*
X204263D02*
G03*
X204263Y325640I-1250J0D01*
G01*
X198138Y703391D02*
G03*
X198138Y703391I-1250J0D01*
G01*
X155263Y467141D02*
G03*
X155263Y467141I-1250J0D01*
G01*
X365263D02*
G03*
X365263Y467141I-1250J0D01*
G01*
X665263D02*
G03*
X665263Y467141I-1250J0D01*
G01*
X875263D02*
G03*
X875263Y467141I-1250J0D01*
G01*
D13*
X1152233Y643542D02*
G03*
X1152233Y643542I-3000J0D01*
G01*
X822500Y643500D02*
G03*
X822500Y643500I-3000J0D01*
G01*
X492513Y643391D02*
G03*
X492513Y643391I-3000J0D01*
G01*
D14*
X162513Y609891D02*
G03*
X162513Y609891I-52500J0D01*
G01*
D15*
X1655000Y254000D02*
Y326000D01*
X1785000Y254000D02*
Y326000D01*
X835000Y254000D02*
Y326000D01*
X965000Y254000D02*
Y326000D01*
X695000Y254000D02*
Y326000D01*
X825000Y254000D02*
Y326000D01*
X1645000Y254000D02*
Y326000D01*
X1515000Y254000D02*
Y326000D01*
X360010Y614390D02*
Y604394D01*
X365009Y609392D02*
X355012D01*
X440011Y632891D02*
Y626226D01*
X443343Y629558D02*
X436679D01*
X1826708Y420838D02*
Y413220D01*
X1830517D01*
X1831786Y414490D01*
Y419568D01*
X1830517Y420838D01*
X1826708D01*
X1834325Y419568D02*
X1835595Y420838D01*
X1838134D01*
X1839404Y419568D01*
Y418299D01*
X1838134Y417029D01*
X1836864D01*
X1838134D01*
X1839404Y415760D01*
Y414490D01*
X1838134Y413220D01*
X1835595D01*
X1834325Y414490D01*
X376397Y669256D02*
X375127Y670525D01*
X372588D01*
X371319Y669256D01*
Y664177D01*
X372588Y662908D01*
X375127D01*
X376397Y664177D01*
X378936Y662908D02*
X381475D01*
X380206D01*
Y670525D01*
X378936Y669256D01*
X385284D02*
X386554Y670525D01*
X389093D01*
X390363Y669256D01*
Y664177D01*
X389093Y662908D01*
X386554D01*
X385284Y664177D01*
Y669256D01*
X294493Y593699D02*
Y586082D01*
X299571D01*
X302110Y592430D02*
X303380Y593699D01*
X305919D01*
X307188Y592430D01*
Y591160D01*
X305919Y589891D01*
X304649D01*
X305919D01*
X307188Y588621D01*
Y587351D01*
X305919Y586082D01*
X303380D01*
X302110Y587351D01*
X1827902Y296513D02*
Y288896D01*
X1831711D01*
X1832981Y290165D01*
Y295244D01*
X1831711Y296513D01*
X1827902D01*
X1840598Y288896D02*
X1835520D01*
X1840598Y293974D01*
Y295244D01*
X1839329Y296513D01*
X1836790D01*
X1835520Y295244D01*
X405762Y580525D02*
Y572908D01*
X409571D01*
X410841Y574177D01*
Y579256D01*
X409571Y580525D01*
X405762D01*
X413380Y572908D02*
X415919D01*
X414649D01*
Y580525D01*
X413380Y579256D01*
X459119Y671974D02*
X457849Y673244D01*
X455310D01*
X454040Y671974D01*
Y666896D01*
X455310Y665626D01*
X457849D01*
X459119Y666896D01*
X461658Y671974D02*
X462928Y673244D01*
X465467D01*
X466736Y671974D01*
Y670705D01*
X465467Y669435D01*
X466736Y668165D01*
Y666896D01*
X465467Y665626D01*
X462928D01*
X461658Y666896D01*
Y668165D01*
X462928Y669435D01*
X461658Y670705D01*
Y671974D01*
X462928Y669435D02*
X465467D01*
D16*
X1491013Y630891D02*
Y648891D01*
X1509013Y630891D02*
Y648891D01*
X1791663Y581221D02*
Y598721D01*
X1808513Y581141D02*
Y598641D01*
X1763513Y589391D02*
Y590391D01*
X1776513Y589391D02*
Y590391D01*
X1545013Y624390D02*
Y655390D01*
X1535013Y624390D02*
Y655390D01*
Y624390D02*
X1545013D01*
X1535013Y655390D02*
X1545013D01*
X1604263Y588891D02*
Y590891D01*
X1615763Y588891D02*
Y590891D01*
X1603013Y628641D02*
Y631141D01*
X1617013Y628641D02*
Y631141D01*
X1705013Y624390D02*
Y655390D01*
X1695013Y624390D02*
Y655390D01*
Y624390D02*
X1705013D01*
X1695013Y655390D02*
X1705013D01*
X1678443Y611461D02*
X1721583D01*
Y568321D02*
Y574711D01*
Y605071D02*
Y611461D01*
X1678443Y568321D02*
X1721583D01*
X1678443D02*
Y574711D01*
Y605071D02*
Y611461D01*
X1759263Y627830D02*
Y651951D01*
X1780763Y627830D02*
Y651951D01*
X1518443Y611461D02*
X1561583D01*
Y568321D02*
Y574711D01*
Y605071D02*
Y611461D01*
X1518443Y568321D02*
X1561583D01*
X1518443D02*
Y574711D01*
Y605071D02*
Y611461D01*
X1648513Y581141D02*
Y598641D01*
X1631663Y581221D02*
Y598721D01*
X1651013Y628641D02*
Y646641D01*
X1669013Y628641D02*
Y646641D01*
X1846000Y374000D02*
Y381250D01*
Y398750D02*
Y406000D01*
X1821250Y372750D02*
Y376750D01*
X1819250Y374750D02*
X1823250D01*
X143913Y246390D02*
Y313391D01*
X96113Y246390D02*
X143913D01*
X96113D02*
Y313391D01*
X143913D01*
X182500Y679459D02*
Y700541D01*
X137500D02*
X139300D01*
X180700D02*
X182500D01*
X137500Y679459D02*
Y700541D01*
Y679459D02*
X139300D01*
X180700D02*
X182500D01*
X68013Y579891D02*
Y639891D01*
X959250Y217469D02*
Y242531D01*
X980750Y217469D02*
Y242531D01*
X1080750Y217469D02*
Y242531D01*
X1059250Y217469D02*
Y242531D01*
Y277469D02*
Y302531D01*
X1080750Y277469D02*
Y302531D01*
X1122410Y213469D02*
Y246531D01*
X1145972Y213469D02*
Y246531D01*
X1045972Y213635D02*
Y246697D01*
X1022410Y213635D02*
Y246697D01*
X1803750Y389000D02*
Y391000D01*
X1816250Y389000D02*
Y391000D01*
X1145972Y273469D02*
Y306531D01*
X1122410Y273469D02*
Y306531D01*
X180513Y571941D02*
Y620391D01*
Y571941D02*
X221153D01*
Y620741D01*
X180513Y620391D02*
X197658D01*
X204508Y620741D02*
X208794D01*
X221153D01*
X423013Y566991D02*
Y592791D01*
X367633Y579891D02*
X384013D01*
X436013D02*
X452393D01*
X436013Y566291D02*
Y593491D01*
X384013D02*
X436013D01*
X384013Y566291D02*
Y593491D01*
Y566291D02*
X436013D01*
X1819250Y304750D02*
X1823250D01*
X1821250Y302750D02*
Y306750D01*
X1846000Y328750D02*
Y336000D01*
Y304000D02*
Y311250D01*
X1405763Y444891D02*
X1414263D01*
X1405763Y474891D02*
X1414263D01*
X266044Y587422D02*
Y592360D01*
X253982Y587422D02*
Y592360D01*
X1816250Y319000D02*
Y321000D01*
X1803750Y319000D02*
Y321000D01*
X336113Y313391D02*
X383913D01*
X336113Y246390D02*
Y313391D01*
Y246390D02*
X383913D01*
Y313391D01*
X396113D02*
X443913D01*
X396113Y246390D02*
Y313391D01*
Y246390D02*
X443913D01*
Y313391D01*
X576113D02*
X623913D01*
X576113Y246390D02*
Y313391D01*
Y246390D02*
X623913D01*
Y313391D01*
X516113D02*
X563913D01*
X516113Y246390D02*
Y313391D01*
Y246390D02*
X563913D01*
Y313391D01*
X456113D02*
X503913D01*
X456113Y246390D02*
Y313391D01*
Y246390D02*
X503913D01*
Y313391D01*
X1195763Y444891D02*
X1204263D01*
X1195763Y474891D02*
X1204263D01*
X263913Y246390D02*
Y313391D01*
X216113Y246390D02*
X263913D01*
X216113D02*
Y313391D01*
X263913D01*
X276113D02*
X323913D01*
X276113Y246390D02*
Y313391D01*
Y246390D02*
X323913D01*
Y313391D01*
X203913Y246390D02*
Y313391D01*
X156113Y246390D02*
X203913D01*
X156113D02*
Y313391D01*
X203913D01*
X279013Y585641D02*
Y594141D01*
X321013Y585641D02*
Y594141D01*
X226878Y635756D02*
Y704026D01*
X291148D01*
X226878Y635756D02*
X291148D01*
Y640756D01*
Y699025D02*
Y704026D01*
X175763Y444891D02*
X184263D01*
X175763Y474891D02*
X184263D01*
X385763Y444891D02*
X394263D01*
X385763Y474891D02*
X394263D01*
X685763Y444891D02*
X694263D01*
X685763Y474891D02*
X694263D01*
X895763Y444891D02*
X904263D01*
X895763Y474891D02*
X904263D01*
D17*
X163554Y673664D02*
X166886D01*
X165220Y675330D02*
Y671998D01*
X171884Y676163D02*
X168552D01*
Y673664D01*
X170218Y674497D01*
X171051D01*
X171884Y673664D01*
Y671998D01*
X171051Y671165D01*
X169385D01*
X168552Y671998D01*
X173550Y674497D02*
X175216Y671165D01*
X176882Y674497D01*
X1203438Y262383D02*
X1206770D01*
X1205104D01*
Y257384D01*
X1208436Y262383D02*
X1211768Y257384D01*
Y262383D02*
X1208436Y257384D01*
X1203438Y277384D02*
Y282383D01*
X1205937D01*
X1206770Y281549D01*
Y279883D01*
X1205937Y279050D01*
X1203438D01*
X1205104D02*
X1206770Y277384D01*
X1208436Y282383D02*
X1211768Y277384D01*
Y282383D02*
X1208436Y277384D01*
X1096668Y268334D02*
Y271666D01*
X1095835Y272499D01*
X1094169D01*
X1093335Y271666D01*
Y268334D01*
X1094169Y267501D01*
X1095835D01*
X1095002Y269167D02*
X1096668Y267501D01*
X1095835D02*
X1096668Y268334D01*
X1101666Y267501D02*
X1098334D01*
X1101666Y270833D01*
Y271666D01*
X1100833Y272499D01*
X1099167D01*
X1098334Y271666D01*
X1103332Y272499D02*
X1106665D01*
Y271666D01*
X1103332Y268334D01*
Y267501D01*
X1096668Y208334D02*
Y211666D01*
X1095835Y212499D01*
X1094169D01*
X1093335Y211666D01*
Y208334D01*
X1094169Y207501D01*
X1095835D01*
X1095002Y209167D02*
X1096668Y207501D01*
X1095835D02*
X1096668Y208334D01*
X1101666Y207501D02*
X1098334D01*
X1101666Y210833D01*
Y211666D01*
X1100833Y212499D01*
X1099167D01*
X1098334Y211666D01*
X1103332Y208334D02*
X1104165Y207501D01*
X1105831D01*
X1106665Y208334D01*
Y211666D01*
X1105831Y212499D01*
X1104165D01*
X1103332Y211666D01*
Y210833D01*
X1104165Y210000D01*
X1106665D01*
X996668Y208334D02*
Y211666D01*
X995835Y212499D01*
X994169D01*
X993335Y211666D01*
Y208334D01*
X994169Y207501D01*
X995835D01*
X995002Y209167D02*
X996668Y207501D01*
X995835D02*
X996668Y208334D01*
X1001666Y207501D02*
X998334D01*
X1001666Y210833D01*
Y211666D01*
X1000833Y212499D01*
X999167D01*
X998334Y211666D01*
X1003332D02*
X1004165Y212499D01*
X1005831D01*
X1006665Y211666D01*
Y210833D01*
X1005831Y210000D01*
X1006665Y209167D01*
Y208334D01*
X1005831Y207501D01*
X1004165D01*
X1003332Y208334D01*
Y209167D01*
X1004165Y210000D01*
X1003332Y210833D01*
Y211666D01*
X1004165Y210000D02*
X1005831D01*
X1746668Y681666D02*
X1745835Y682499D01*
X1744169D01*
X1743336Y681666D01*
Y680833D01*
X1744169Y680000D01*
X1745835D01*
X1746668Y679167D01*
Y678334D01*
X1745835Y677501D01*
X1744169D01*
X1743336Y678334D01*
X1748334Y682499D02*
Y677501D01*
X1750000Y679167D01*
X1751666Y677501D01*
Y682499D01*
X1756664D02*
X1753332D01*
Y680000D01*
X1754998Y680833D01*
X1755831D01*
X1756664Y680000D01*
Y678334D01*
X1755831Y677501D01*
X1754165D01*
X1753332Y678334D01*
X1586668Y681666D02*
X1585835Y682499D01*
X1584169D01*
X1583336Y681666D01*
Y680833D01*
X1584169Y680000D01*
X1585835D01*
X1586668Y679167D01*
Y678334D01*
X1585835Y677501D01*
X1584169D01*
X1583336Y678334D01*
X1588334Y682499D02*
Y677501D01*
X1590000Y679167D01*
X1591666Y677501D01*
Y682499D01*
X1596664Y677501D02*
X1593332D01*
X1596664Y680833D01*
Y681666D01*
X1595831Y682499D01*
X1594165D01*
X1593332Y681666D01*
X1506668D02*
X1505835Y682499D01*
X1504169D01*
X1503336Y681666D01*
Y680833D01*
X1504169Y680000D01*
X1505835D01*
X1506668Y679167D01*
Y678334D01*
X1505835Y677501D01*
X1504169D01*
X1503336Y678334D01*
X1508334Y682499D02*
Y677501D01*
X1510000Y679167D01*
X1511666Y677501D01*
Y682499D01*
X1513332Y681666D02*
X1514165Y682499D01*
X1515831D01*
X1516664Y681666D01*
Y680833D01*
X1515831Y680000D01*
X1514998D01*
X1515831D01*
X1516664Y679167D01*
Y678334D01*
X1515831Y677501D01*
X1514165D01*
X1513332Y678334D01*
X1666668Y681666D02*
X1665835Y682499D01*
X1664169D01*
X1663336Y681666D01*
Y680833D01*
X1664169Y680000D01*
X1665835D01*
X1666668Y679167D01*
Y678334D01*
X1665835Y677501D01*
X1664169D01*
X1663336Y678334D01*
X1668334Y682499D02*
Y677501D01*
X1670000Y679167D01*
X1671666Y677501D01*
Y682499D01*
X1675831Y677501D02*
Y682499D01*
X1673332Y680000D01*
X1676664D01*
X222499Y343335D02*
X217501D01*
Y345835D01*
X218334Y346668D01*
X220000D01*
X220833Y345835D01*
Y343335D01*
Y345002D02*
X222499Y346668D01*
Y351666D02*
Y348334D01*
X219167Y351666D01*
X218334D01*
X217501Y350833D01*
Y349167D01*
X218334Y348334D01*
X222499Y355831D02*
X217501D01*
X220000Y353332D01*
Y356665D01*
X162499Y343752D02*
X157501D01*
Y346251D01*
X158334Y347084D01*
X160000D01*
X160833Y346251D01*
Y343752D01*
Y345418D02*
X162499Y347084D01*
Y348750D02*
Y350416D01*
Y349584D01*
X157501D01*
X158334Y348750D01*
X157501Y352916D02*
Y356248D01*
X158334D01*
X161666Y352916D01*
X162499D01*
X1352499Y343335D02*
X1347501D01*
Y345835D01*
X1348334Y346668D01*
X1350000D01*
X1350833Y345835D01*
Y343335D01*
Y345002D02*
X1352499Y346668D01*
X1348334Y348334D02*
X1347501Y349167D01*
Y350833D01*
X1348334Y351666D01*
X1349167D01*
X1350000Y350833D01*
Y350000D01*
Y350833D01*
X1350833Y351666D01*
X1351666D01*
X1352499Y350833D01*
Y349167D01*
X1351666Y348334D01*
Y353332D02*
X1352499Y354165D01*
Y355831D01*
X1351666Y356665D01*
X1348334D01*
X1347501Y355831D01*
Y354165D01*
X1348334Y353332D01*
X1349167D01*
X1350000Y354165D01*
Y356665D01*
X462499Y343335D02*
X457501D01*
Y345835D01*
X458334Y346668D01*
X460000D01*
X460833Y345835D01*
Y343335D01*
Y345002D02*
X462499Y346668D01*
Y351666D02*
Y348334D01*
X459167Y351666D01*
X458334D01*
X457501Y350833D01*
Y349167D01*
X458334Y348334D01*
Y353332D02*
X457501Y354165D01*
Y355831D01*
X458334Y356665D01*
X461666D01*
X462499Y355831D01*
Y354165D01*
X461666Y353332D01*
X458334D01*
X522499Y343752D02*
X517501D01*
Y346251D01*
X518334Y347084D01*
X520000D01*
X520833Y346251D01*
Y343752D01*
Y345418D02*
X522499Y347084D01*
Y348750D02*
Y350416D01*
Y349584D01*
X517501D01*
X518334Y348750D01*
X521666Y352916D02*
X522499Y353749D01*
Y355415D01*
X521666Y356248D01*
X518334D01*
X517501Y355415D01*
Y353749D01*
X518334Y352916D01*
X519167D01*
X520000Y353749D01*
Y356248D01*
X1232499Y343335D02*
X1227501D01*
Y345835D01*
X1228334Y346668D01*
X1230000D01*
X1230833Y345835D01*
Y343335D01*
Y345002D02*
X1232499Y346668D01*
X1228334Y348334D02*
X1227501Y349167D01*
Y350833D01*
X1228334Y351666D01*
X1229167D01*
X1230000Y350833D01*
Y350000D01*
Y350833D01*
X1230833Y351666D01*
X1231666D01*
X1232499Y350833D01*
Y349167D01*
X1231666Y348334D01*
X1227501Y353332D02*
Y356665D01*
X1228334D01*
X1231666Y353332D01*
X1232499D01*
X582499Y343752D02*
X577501D01*
Y346251D01*
X578334Y347084D01*
X580000D01*
X580833Y346251D01*
Y343752D01*
Y345418D02*
X582499Y347084D01*
Y348750D02*
Y350416D01*
Y349584D01*
X577501D01*
X578334Y348750D01*
Y352916D02*
X577501Y353749D01*
Y355415D01*
X578334Y356248D01*
X579167D01*
X580000Y355415D01*
X580833Y356248D01*
X581666D01*
X582499Y355415D01*
Y353749D01*
X581666Y352916D01*
X580833D01*
X580000Y353749D01*
X579167Y352916D01*
X578334D01*
X580000Y353749D02*
Y355415D01*
X1292499Y343335D02*
X1287501D01*
Y345835D01*
X1288334Y346668D01*
X1290000D01*
X1290833Y345835D01*
Y343335D01*
Y345002D02*
X1292499Y346668D01*
X1288334Y348334D02*
X1287501Y349167D01*
Y350833D01*
X1288334Y351666D01*
X1289167D01*
X1290000Y350833D01*
Y350000D01*
Y350833D01*
X1290833Y351666D01*
X1291666D01*
X1292499Y350833D01*
Y349167D01*
X1291666Y348334D01*
X1288334Y353332D02*
X1287501Y354165D01*
Y355831D01*
X1288334Y356665D01*
X1289167D01*
X1290000Y355831D01*
X1290833Y356665D01*
X1291666D01*
X1292499Y355831D01*
Y354165D01*
X1291666Y353332D01*
X1290833D01*
X1290000Y354165D01*
X1289167Y353332D01*
X1288334D01*
X1290000Y354165D02*
Y355831D01*
X1412499Y343335D02*
X1407501D01*
Y345835D01*
X1408334Y346668D01*
X1410000D01*
X1410833Y345835D01*
Y343335D01*
Y345002D02*
X1412499Y346668D01*
Y350833D02*
X1407501D01*
X1410000Y348334D01*
Y351666D01*
X1408334Y353332D02*
X1407501Y354165D01*
Y355831D01*
X1408334Y356665D01*
X1411666D01*
X1412499Y355831D01*
Y354165D01*
X1411666Y353332D01*
X1408334D01*
X102499Y343335D02*
X97501D01*
Y345835D01*
X98334Y346668D01*
X100000D01*
X100833Y345835D01*
Y343335D01*
Y345002D02*
X102499Y346668D01*
Y351666D02*
Y348334D01*
X99167Y351666D01*
X98334D01*
X97501Y350833D01*
Y349167D01*
X98334Y348334D01*
X97501Y356665D02*
Y353332D01*
X100000D01*
X99167Y354998D01*
Y355831D01*
X100000Y356665D01*
X101666D01*
X102499Y355831D01*
Y354165D01*
X101666Y353332D01*
X342499Y343335D02*
X337501D01*
Y345835D01*
X338334Y346668D01*
X340000D01*
X340833Y345835D01*
Y343335D01*
Y345002D02*
X342499Y346668D01*
Y351666D02*
Y348334D01*
X339167Y351666D01*
X338334D01*
X337501Y350833D01*
Y349167D01*
X338334Y348334D01*
X342499Y356665D02*
Y353332D01*
X339167Y356665D01*
X338334D01*
X337501Y355831D01*
Y354165D01*
X338334Y353332D01*
X402499Y344169D02*
X397501D01*
Y346668D01*
X398334Y347501D01*
X400000D01*
X400833Y346668D01*
Y344169D01*
Y345835D02*
X402499Y347501D01*
Y352499D02*
Y349167D01*
X399167Y352499D01*
X398334D01*
X397501Y351666D01*
Y350000D01*
X398334Y349167D01*
X402499Y354165D02*
Y355831D01*
Y354998D01*
X397501D01*
X398334Y354165D01*
X282499Y343335D02*
X277501D01*
Y345835D01*
X278334Y346668D01*
X280000D01*
X280833Y345835D01*
Y343335D01*
Y345002D02*
X282499Y346668D01*
Y351666D02*
Y348334D01*
X279167Y351666D01*
X278334D01*
X277501Y350833D01*
Y349167D01*
X278334Y348334D01*
Y353332D02*
X277501Y354165D01*
Y355831D01*
X278334Y356665D01*
X279167D01*
X280000Y355831D01*
Y354998D01*
Y355831D01*
X280833Y356665D01*
X281666D01*
X282499Y355831D01*
Y354165D01*
X281666Y353332D01*
X1695872Y666148D02*
Y661983D01*
X1696705Y661150D01*
X1698371D01*
X1699205Y661983D01*
Y666148D01*
X1704203Y661150D02*
X1700871D01*
X1704203Y664482D01*
Y665315D01*
X1703370Y666148D01*
X1701704D01*
X1700871Y665315D01*
X1537015Y667439D02*
Y663274D01*
X1537848Y662441D01*
X1539514D01*
X1540348Y663274D01*
Y667439D01*
X1542014Y662441D02*
X1543680D01*
X1542847D01*
Y667439D01*
X1542014Y666606D01*
X1128625Y251290D02*
Y256289D01*
X1131124D01*
X1131957Y255456D01*
Y253790D01*
X1131124Y252957D01*
X1128625D01*
X1130291D02*
X1131957Y251290D01*
X1133623D02*
X1135289D01*
X1134456D01*
Y256289D01*
X1133623Y255456D01*
X1140288Y251290D02*
Y256289D01*
X1137788Y253790D01*
X1141121D01*
X1028245Y252252D02*
Y257251D01*
X1030744D01*
X1031577Y256418D01*
Y254751D01*
X1030744Y253918D01*
X1028245D01*
X1029911D02*
X1031577Y252252D01*
X1033243D02*
X1034909D01*
X1034076D01*
Y257251D01*
X1033243Y256418D01*
X1037409D02*
X1038242Y257251D01*
X1039908D01*
X1040741Y256418D01*
Y255585D01*
X1039908Y254751D01*
X1039075D01*
X1039908D01*
X1040741Y253918D01*
Y253085D01*
X1039908Y252252D01*
X1038242D01*
X1037409Y253085D01*
X1128056Y312360D02*
Y317358D01*
X1130555D01*
X1131388Y316525D01*
Y314859D01*
X1130555Y314026D01*
X1128056D01*
X1129722D02*
X1131388Y312360D01*
X1133054D02*
X1134720D01*
X1133887D01*
Y317358D01*
X1133054Y316525D01*
X1140552Y312360D02*
X1137219D01*
X1140552Y315692D01*
Y316525D01*
X1139718Y317358D01*
X1138052D01*
X1137219Y316525D01*
X1064585Y247501D02*
Y252499D01*
X1067084D01*
X1067917Y251666D01*
Y250000D01*
X1067084Y249167D01*
X1064585D01*
X1066251D02*
X1067917Y247501D01*
X1069584D02*
X1071250D01*
X1070416D01*
Y252499D01*
X1069584Y251666D01*
X1073749Y247501D02*
X1075415D01*
X1074582D01*
Y252499D01*
X1073749Y251666D01*
X963752Y247501D02*
Y252499D01*
X966251D01*
X967084Y251666D01*
Y250000D01*
X966251Y249167D01*
X963752D01*
X965418D02*
X967084Y247501D01*
X968750D02*
X970416D01*
X969584D01*
Y252499D01*
X968750Y251666D01*
X972916D02*
X973749Y252499D01*
X975415D01*
X976248Y251666D01*
Y248334D01*
X975415Y247501D01*
X973749D01*
X972916Y248334D01*
Y251666D01*
X1065835Y307501D02*
Y312499D01*
X1068334D01*
X1069167Y311666D01*
Y310000D01*
X1068334Y309167D01*
X1065835D01*
X1067501D02*
X1069167Y307501D01*
X1070833Y308334D02*
X1071666Y307501D01*
X1073332D01*
X1074165Y308334D01*
Y311666D01*
X1073332Y312499D01*
X1071666D01*
X1070833Y311666D01*
Y310833D01*
X1071666Y310000D01*
X1074165D01*
X1805835Y407501D02*
Y412499D01*
X1808334D01*
X1809167Y411666D01*
Y410000D01*
X1808334Y409167D01*
X1805835D01*
X1807501D02*
X1809167Y407501D01*
X1810833Y411666D02*
X1811666Y412499D01*
X1813332D01*
X1814165Y411666D01*
Y410833D01*
X1813332Y410000D01*
X1814165Y409167D01*
Y408334D01*
X1813332Y407501D01*
X1811666D01*
X1810833Y408334D01*
Y409167D01*
X1811666Y410000D01*
X1810833Y410833D01*
Y411666D01*
X1811666Y410000D02*
X1813332D01*
X1805835Y337501D02*
Y342499D01*
X1808334D01*
X1809167Y341666D01*
Y340000D01*
X1808334Y339167D01*
X1805835D01*
X1807501D02*
X1809167Y337501D01*
X1814165Y342499D02*
X1812499Y341666D01*
X1810833Y340000D01*
Y338334D01*
X1811666Y337501D01*
X1813332D01*
X1814165Y338334D01*
Y339167D01*
X1813332Y340000D01*
X1810833D01*
X1765835Y657501D02*
Y662499D01*
X1768334D01*
X1769167Y661666D01*
Y660000D01*
X1768334Y659167D01*
X1765835D01*
X1767501D02*
X1769167Y657501D01*
X1773332D02*
Y662499D01*
X1770833Y660000D01*
X1774165D01*
X1605812Y654254D02*
Y659252D01*
X1608311D01*
X1609144Y658419D01*
Y656753D01*
X1608311Y655920D01*
X1605812D01*
X1607478D02*
X1609144Y654254D01*
X1610810Y658419D02*
X1611644Y659252D01*
X1613310D01*
X1614143Y658419D01*
Y657586D01*
X1613310Y656753D01*
X1612477D01*
X1613310D01*
X1614143Y655920D01*
Y655087D01*
X1613310Y654254D01*
X1611644D01*
X1610810Y655087D01*
X1765759Y563818D02*
Y568816D01*
X1768258D01*
X1769091Y567983D01*
Y566317D01*
X1768258Y565484D01*
X1765759D01*
X1767425D02*
X1769091Y563818D01*
X1774090D02*
X1770757D01*
X1774090Y567150D01*
Y567983D01*
X1773257Y568816D01*
X1771590D01*
X1770757Y567983D01*
X1606668Y567501D02*
Y572499D01*
X1609167D01*
X1610000Y571666D01*
Y570000D01*
X1609167Y569167D01*
X1606668D01*
X1608334D02*
X1610000Y567501D01*
X1611666D02*
X1613332D01*
X1612499D01*
Y572499D01*
X1611666Y571666D01*
X1696675Y592390D02*
Y587391D01*
X1700007D01*
X1705006D02*
X1701674D01*
X1705006Y590724D01*
Y591557D01*
X1704173Y592390D01*
X1702507D01*
X1701674Y591557D01*
X1537508Y592390D02*
Y587391D01*
X1540841D01*
X1542507D02*
X1544173D01*
X1543340D01*
Y592390D01*
X1542507Y591557D01*
X1579167Y651666D02*
X1578334Y652499D01*
X1576668D01*
X1575835Y651666D01*
Y648334D01*
X1576668Y647501D01*
X1578334D01*
X1579167Y648334D01*
X1580833Y652499D02*
X1584165D01*
Y651666D01*
X1580833Y648334D01*
Y647501D01*
X1739167Y611666D02*
X1738334Y612499D01*
X1736668D01*
X1735835Y611666D01*
Y608334D01*
X1736668Y607501D01*
X1738334D01*
X1739167Y608334D01*
X1744165Y612499D02*
X1742499Y611666D01*
X1740833Y610000D01*
Y608334D01*
X1741666Y607501D01*
X1743332D01*
X1744165Y608334D01*
Y609167D01*
X1743332Y610000D01*
X1740833D01*
X1799167Y611666D02*
X1798334Y612499D01*
X1796668D01*
X1795835Y611666D01*
Y608334D01*
X1796668Y607501D01*
X1798334D01*
X1799167Y608334D01*
X1804165Y612499D02*
X1800833D01*
Y610000D01*
X1802499Y610833D01*
X1803332D01*
X1804165Y610000D01*
Y608334D01*
X1803332Y607501D01*
X1801666D01*
X1800833Y608334D01*
X1660008Y658383D02*
X1659174Y659216D01*
X1657508D01*
X1656675Y658383D01*
Y655050D01*
X1657508Y654217D01*
X1659174D01*
X1660008Y655050D01*
X1664173Y654217D02*
Y659216D01*
X1661674Y656717D01*
X1665006D01*
X1579167Y611666D02*
X1578334Y612499D01*
X1576668D01*
X1575835Y611666D01*
Y608334D01*
X1576668Y607501D01*
X1578334D01*
X1579167Y608334D01*
X1580833Y611666D02*
X1581666Y612499D01*
X1583332D01*
X1584165Y611666D01*
Y610833D01*
X1583332Y610000D01*
X1582499D01*
X1583332D01*
X1584165Y609167D01*
Y608334D01*
X1583332Y607501D01*
X1581666D01*
X1580833Y608334D01*
X1639167Y611666D02*
X1638334Y612499D01*
X1636668D01*
X1635835Y611666D01*
Y608334D01*
X1636668Y607501D01*
X1638334D01*
X1639167Y608334D01*
X1644165Y607501D02*
X1640833D01*
X1644165Y610833D01*
Y611666D01*
X1643332Y612499D01*
X1641666D01*
X1640833Y611666D01*
X1484049Y641975D02*
X1483216Y641142D01*
Y639476D01*
X1484049Y638643D01*
X1487381D01*
X1488215Y639476D01*
Y641142D01*
X1487381Y641975D01*
X1488215Y643641D02*
Y645307D01*
Y644474D01*
X1483216D01*
X1484049Y643641D01*
M02*
