M48
;Layer_Color=9474304
;FILE_FORMAT=4:4
METRIC,TZ
;TYPE=PLATED
T01F00S00C0.3000
T02F00S00C0.5500
T03F00S00C0.7620
T04F00S00C0.8000
T05F00S00C0.8900
T06F00S00C0.9000
T07F00S00C1.0500
T08F00S00C2.2000
%
T01
X96811Y245390
X110000Y300000
X139317Y363521
X74973Y375001
X210000Y340000
X288132Y369710
X290000Y300000
X346104Y296662
X387867Y305110
X460000Y300000
X509250Y319003
X540000Y310000
X566968Y309546
X574631Y331557
X610000Y300000
X609256Y259161
X617677Y258292
X624624Y254962
X601560Y264329
X594114Y267343
X586430Y270352
X500000Y350000
X737001Y310000
X741176Y254176
X830000Y230000
X829334Y310000
X798955Y317383
X980013Y326716
Y336716
X1003594Y331961
X1002502Y319369
X979601Y304016
X1002127Y276446
X1070000Y260000
X1090000Y320000
X1100267Y372115
X1110604Y367220
X1119017Y359420
X1169802Y362529
X1180000Y350000
X1156828Y385387
X1150909Y393714
X1076171Y374875
X1058235Y374333
X1060364Y381546
X1045631Y387337
X1027865Y388200
X1040113Y338291
X1359910Y391044
X1452082Y364670
X1459486Y365989
X1470000Y360000
X1484285Y360409
X1424226Y312571
X1439569Y278533
X1407650Y278035
X1408140Y270107
X1407543Y262194
X1390000Y270000
X1463625Y262315
X1515103Y243953
X1650000Y240000
X1592593Y468598
X1594454Y479211
X1610000Y520000
X1652474Y526164
X1683180Y528756
X1674607Y550027
X1630000Y570000
X1590000Y660000
X1600000Y670000
X1680000
X1770000
X1808894Y418894
X1586917Y485193
X1569890Y520149
X1560000Y520000
X1550000
X1530271Y469729
X1531479Y460491
X1536611Y453997
X1520854Y440000
X1502709Y437880
X1492724Y445144
X1485474Y442192
X1477959Y441912
X1478978Y496640
X1466312Y539586
X1470000Y620000
X1480000Y610000
X1540013Y659891
X1540000Y687027
X1210000Y670000
X1230000Y650000
X1180000Y570000
X1115295Y486485
X1101610Y473469
X1105352Y465054
X1114274Y449483
X1124505Y435439
X1060000Y400000
X1014080Y400541
X980000Y410000
X965694Y449977
X968176Y465008
X968589Y473507
X963156Y485688
X913921Y543882
X891955Y558451
X850013Y549891
X840013
X833604Y545282
X817461Y548326
X817163Y556383
X805109Y551044
X801824Y560074
X800013Y569891
Y599891
X807011Y635696
X840013Y676717
X868338Y668338
X1000000Y670000
X827750Y482153
X827058Y470800
X827618Y462180
X827803Y447133
X760340Y447829
X764014Y462419
X763468Y470656
X758506Y482153
X700013Y429631
X723868Y403447
X703542Y589428
X789907Y579947
X310013Y489891
Y469891
X307723Y461685
X325591Y451124
X279138Y450211
X282852Y469003
Y489891
X268381Y462362
X250013Y509891
X210013Y558320
X222968Y684451
X143682Y474609
X108547Y408992
X360606Y404436
T02
X1608500Y709500
X1651500
X1688500
X1731500
X1768500
X1571500
X1528500
X1491500
T03
X1667000Y424000
X1685000Y410000
X1710000Y405000
X1735000Y410000
X1753000Y424000
X1764000Y447000
Y473000
X1753000Y496000
X1735000Y510000
X1710000Y515000
X1685000Y510000
X1667000Y496000
X1656000Y473000
Y447000
X1461443Y440391
X1464613Y466521
X1455273Y491141
X1435573Y508591
X1410013Y514891
X1384453Y508591
X1364753Y491141
X1355413Y466521
X1358593Y440391
X1373543Y418721
X1396853Y406491
X1423183
X1446383Y418631
X1236383Y418630
X1213183Y406491
X1251443Y440391
X1254613Y466521
X1245273Y491141
X1225573Y508591
X1200013Y514891
X1174453Y508591
X1154753Y491141
X1145413Y466521
X1148593Y440391
X1163543Y418721
X1186853Y406491
X936383Y418631
X913183Y406491
X886853
X863543Y418721
X848593Y440391
X845413Y466521
X854753Y491141
X874453Y508591
X900013Y514891
X925573Y508591
X945273Y491141
X954613Y466521
X951443Y440391
X741443Y440391
X744613Y466521
X735273Y491141
X715573Y508591
X690013Y514891
X664453Y508591
X644753Y491141
X635413Y466521
X638593Y440391
X653543Y418721
X676853Y406491
X703183
X726383Y418630
X426383
X403183Y406491
X441443Y440391
X444613Y466521
X435273Y491141
X415573Y508591
X390013Y514891
X364453Y508591
X344753Y491141
X335413Y466521
X338593Y440391
X353543Y418721
X376853Y406491
X216383Y418630
X193183Y406491
X166853
X143543Y418721
X128593Y440391
X125413Y466521
X134753Y491141
X154453Y508591
X180013Y514891
X205573Y508591
X225273Y491141
X234613Y466521
X231443Y440391
T04
X440013Y657391
Y682391
X360013Y677391
Y642391
X135013Y609891
X85013
T05
X1180000Y240000
Y260000
Y280000
X170000Y690000
X150000
T06
X1210833Y621942
X1236233
X1261633
X1287033
X1312433
X1337833
X1363233
X1388633
X1414033
X1439433
Y698142
X1414033
X1388633
X1363233
X1337833
X1312433
X1287033
X1261633
X1236233
X1210833
X1185433
X1160033
X1109700Y698100
X1084300
X1058900
X1033500
X1008100
X982700
X957300
X931900
X906500
X881100
X855700
X830300
Y621900
X855700
X881100
X906500
X931900
X957300
X982700
X1008100
X1033500
X1058900
X1084300
X1109700
X1160033Y621942
X1185433
X779713Y621791
X754313
X728913
X703513
X678113
X652713
X627313
X601913
X576513
X551113
X525713
X500313
Y697991
X525713
X551113
X576513
X601913
X627313
X652713
X678113
X703513
X728913
X754313
X779713
T07
X464393Y579891
X355633
T08
X70000Y230000
X1820000
Y690000
X70000
M30
