G04*
G04 #@! TF.GenerationSoftware,Altium Limited,Altium Designer,25.5.2 (35)*
G04*
G04 Layer_Color=128*
%FSLAX44Y44*%
%MOMM*%
G71*
G04*
G04 #@! TF.SameCoordinates,D9E2C172-A1AF-44C0-98D0-4809437D878E*
G04*
G04*
G04 #@! TF.FilePolarity,Positive*
G04*
G01*
G75*
G04:AMPARAMS|DCode=27|XSize=1.6mm|YSize=1mm|CornerRadius=0.25mm|HoleSize=0mm|Usage=FLASHONLY|Rotation=270.000|XOffset=0mm|YOffset=0mm|HoleType=Round|Shape=RoundedRectangle|*
%AMROUNDEDRECTD27*
21,1,1.6000,0.5000,0,0,270.0*
21,1,1.1000,1.0000,0,0,270.0*
1,1,0.5000,-0.2500,-0.5500*
1,1,0.5000,-0.2500,0.5500*
1,1,0.5000,0.2500,0.5500*
1,1,0.5000,0.2500,-0.5500*
%
%ADD27ROUNDEDRECTD27*%
%ADD42R,0.9000X0.7500*%
%ADD46R,1.0500X1.4500*%
%ADD95R,11.4300X8.8900*%
%ADD96R,1.5046X2.7082*%
%ADD97R,0.5500X0.2500*%
%ADD99R,0.9121X0.9587*%
%ADD100R,0.9562X1.2062*%
%ADD101R,0.5000X0.3500*%
%ADD102R,0.8598X0.8324*%
%ADD103R,0.9000X1.5000*%
%ADD104R,1.5000X0.9000*%
%ADD105R,0.9000X0.9000*%
%ADD106R,1.2500X0.8000*%
%ADD107R,1.3000X0.8500*%
%ADD108R,2.0800X3.8100*%
%ADD112R,0.9000X1.6000*%
G36*
X1192563Y310091D02*
X1192568Y310204D01*
X1192582Y310316D01*
X1192607Y310427D01*
X1192641Y310535D01*
X1192684Y310640D01*
X1192737Y310741D01*
X1192798Y310836D01*
X1192867Y310926D01*
X1192943Y311010D01*
X1193027Y311086D01*
X1193117Y311155D01*
X1193213Y311216D01*
X1193313Y311269D01*
X1193418Y311312D01*
X1193526Y311346D01*
X1193637Y311371D01*
X1193749Y311386D01*
X1193863Y311390D01*
X1198513D01*
Y328391D01*
X1181513D01*
Y311390D01*
X1186163D01*
X1186276Y311386D01*
X1186388Y311371D01*
X1186499Y311346D01*
X1186607Y311312D01*
X1186712Y311269D01*
X1186813Y311216D01*
X1186908Y311155D01*
X1186998Y311086D01*
X1187082Y311010D01*
X1187158Y310926D01*
X1187227Y310836D01*
X1187288Y310741D01*
X1187341Y310640D01*
X1187384Y310535D01*
X1187418Y310427D01*
X1187443Y310316D01*
X1187458Y310204D01*
X1187463Y310091D01*
Y300191D01*
X1192563D01*
Y310091D01*
D02*
G37*
G36*
X1232563D02*
X1232568Y310204D01*
X1232582Y310316D01*
X1232607Y310427D01*
X1232641Y310535D01*
X1232684Y310640D01*
X1232737Y310741D01*
X1232798Y310836D01*
X1232867Y310926D01*
X1232943Y311010D01*
X1233027Y311086D01*
X1233117Y311155D01*
X1233213Y311216D01*
X1233313Y311269D01*
X1233418Y311312D01*
X1233526Y311346D01*
X1233637Y311371D01*
X1233749Y311386D01*
X1233863Y311390D01*
X1238513D01*
Y328391D01*
X1221513D01*
Y311390D01*
X1226163D01*
X1226276Y311386D01*
X1226388Y311371D01*
X1226499Y311346D01*
X1226607Y311312D01*
X1226712Y311269D01*
X1226813Y311216D01*
X1226908Y311155D01*
X1226998Y311086D01*
X1227082Y311010D01*
X1227158Y310926D01*
X1227227Y310836D01*
X1227288Y310741D01*
X1227341Y310640D01*
X1227384Y310535D01*
X1227418Y310427D01*
X1227443Y310316D01*
X1227458Y310204D01*
X1227463Y310091D01*
Y300191D01*
X1232563D01*
Y310091D01*
D02*
G37*
G36*
X1218513Y328391D02*
X1213863D01*
X1213749Y328396D01*
X1213637Y328410D01*
X1213526Y328435D01*
X1213418Y328469D01*
X1213313Y328512D01*
X1213213Y328565D01*
X1213117Y328626D01*
X1213027Y328695D01*
X1212943Y328771D01*
X1212867Y328855D01*
X1212798Y328945D01*
X1212737Y329040D01*
X1212684Y329141D01*
X1212641Y329246D01*
X1212607Y329354D01*
X1212582Y329465D01*
X1212568Y329577D01*
X1212563Y329691D01*
Y339591D01*
X1207463D01*
Y329691D01*
X1207458Y329577D01*
X1207443Y329465D01*
X1207418Y329354D01*
X1207384Y329246D01*
X1207341Y329141D01*
X1207288Y329041D01*
X1207227Y328945D01*
X1207159Y328855D01*
X1207082Y328771D01*
X1206998Y328695D01*
X1206908Y328626D01*
X1206813Y328565D01*
X1206712Y328512D01*
X1206607Y328469D01*
X1206499Y328435D01*
X1206388Y328410D01*
X1206276Y328396D01*
X1206163Y328391D01*
X1201513D01*
Y311390D01*
X1218513D01*
Y328391D01*
D02*
G37*
G36*
X1272563Y310091D02*
X1272568Y310204D01*
X1272582Y310316D01*
X1272607Y310427D01*
X1272641Y310535D01*
X1272684Y310640D01*
X1272737Y310741D01*
X1272798Y310836D01*
X1272867Y310926D01*
X1272943Y311010D01*
X1273027Y311086D01*
X1273117Y311155D01*
X1273213Y311216D01*
X1273313Y311269D01*
X1273418Y311312D01*
X1273526Y311346D01*
X1273637Y311371D01*
X1273749Y311386D01*
X1273863Y311390D01*
X1278513D01*
Y328391D01*
X1261513D01*
Y311390D01*
X1266163D01*
X1266276Y311386D01*
X1266388Y311371D01*
X1266499Y311346D01*
X1266607Y311312D01*
X1266712Y311269D01*
X1266813Y311216D01*
X1266908Y311155D01*
X1266998Y311086D01*
X1267082Y311010D01*
X1267158Y310926D01*
X1267227Y310836D01*
X1267288Y310741D01*
X1267341Y310640D01*
X1267384Y310535D01*
X1267418Y310427D01*
X1267443Y310316D01*
X1267458Y310204D01*
X1267463Y310091D01*
Y300191D01*
X1272563D01*
Y310091D01*
D02*
G37*
G36*
X1258513Y328391D02*
X1253863D01*
X1253749Y328396D01*
X1253637Y328410D01*
X1253526Y328435D01*
X1253418Y328469D01*
X1253313Y328512D01*
X1253213Y328565D01*
X1253117Y328626D01*
X1253027Y328695D01*
X1252943Y328771D01*
X1252867Y328855D01*
X1252798Y328945D01*
X1252737Y329040D01*
X1252684Y329141D01*
X1252641Y329246D01*
X1252607Y329354D01*
X1252582Y329465D01*
X1252568Y329577D01*
X1252563Y329691D01*
Y339591D01*
X1247463D01*
Y329691D01*
X1247458Y329577D01*
X1247443Y329465D01*
X1247418Y329354D01*
X1247384Y329246D01*
X1247341Y329141D01*
X1247289Y329041D01*
X1247227Y328945D01*
X1247159Y328855D01*
X1247082Y328771D01*
X1246998Y328695D01*
X1246908Y328626D01*
X1246813Y328565D01*
X1246712Y328512D01*
X1246607Y328469D01*
X1246499Y328435D01*
X1246388Y328410D01*
X1246276Y328396D01*
X1246163Y328391D01*
X1241513D01*
Y311390D01*
X1258513D01*
Y328391D01*
D02*
G37*
G36*
X1312563Y310091D02*
X1312567Y310204D01*
X1312582Y310316D01*
X1312607Y310427D01*
X1312641Y310535D01*
X1312684Y310640D01*
X1312737Y310741D01*
X1312798Y310836D01*
X1312867Y310926D01*
X1312943Y311010D01*
X1313027Y311086D01*
X1313117Y311155D01*
X1313213Y311216D01*
X1313313Y311269D01*
X1313418Y311312D01*
X1313526Y311346D01*
X1313637Y311371D01*
X1313749Y311386D01*
X1313863Y311390D01*
X1318513D01*
Y328391D01*
X1301513D01*
Y311390D01*
X1306163D01*
X1306276Y311386D01*
X1306388Y311371D01*
X1306499Y311346D01*
X1306607Y311312D01*
X1306712Y311269D01*
X1306813Y311216D01*
X1306908Y311155D01*
X1306998Y311086D01*
X1307082Y311010D01*
X1307158Y310926D01*
X1307227Y310836D01*
X1307288Y310741D01*
X1307341Y310640D01*
X1307384Y310535D01*
X1307418Y310427D01*
X1307443Y310316D01*
X1307458Y310204D01*
X1307463Y310091D01*
Y300191D01*
X1312563D01*
Y310091D01*
D02*
G37*
G36*
X1298513Y328391D02*
X1293863D01*
X1293749Y328396D01*
X1293637Y328410D01*
X1293526Y328435D01*
X1293418Y328469D01*
X1293313Y328512D01*
X1293213Y328565D01*
X1293117Y328626D01*
X1293027Y328695D01*
X1292943Y328771D01*
X1292867Y328855D01*
X1292798Y328945D01*
X1292737Y329040D01*
X1292684Y329141D01*
X1292641Y329246D01*
X1292607Y329354D01*
X1292582Y329465D01*
X1292567Y329577D01*
X1292563Y329691D01*
Y339591D01*
X1287463D01*
Y329691D01*
X1287458Y329577D01*
X1287443Y329465D01*
X1287418Y329354D01*
X1287384Y329246D01*
X1287341Y329141D01*
X1287288Y329041D01*
X1287227Y328945D01*
X1287159Y328855D01*
X1287082Y328771D01*
X1286998Y328695D01*
X1286908Y328626D01*
X1286813Y328565D01*
X1286712Y328512D01*
X1286607Y328469D01*
X1286499Y328435D01*
X1286388Y328410D01*
X1286276Y328396D01*
X1286163Y328391D01*
X1281513D01*
Y311390D01*
X1298513D01*
Y328391D01*
D02*
G37*
D27*
X552713Y234141D02*
D03*
X527313Y325640D02*
D03*
Y234141D02*
D03*
X552713Y325640D02*
D03*
X312713Y234141D02*
D03*
X287313Y325640D02*
D03*
Y234141D02*
D03*
X312713Y325640D02*
D03*
X372713Y234141D02*
D03*
X347313Y325640D02*
D03*
Y234141D02*
D03*
X372713Y325640D02*
D03*
X432713Y234141D02*
D03*
X407313Y325640D02*
D03*
Y234141D02*
D03*
X432713Y325640D02*
D03*
X467313D02*
D03*
X492713Y234141D02*
D03*
X467313D02*
D03*
X492713Y325640D02*
D03*
X252713Y234141D02*
D03*
X227313Y325640D02*
D03*
Y234141D02*
D03*
X252713Y325640D02*
D03*
X107313Y234141D02*
D03*
Y325640D02*
D03*
X132713D02*
D03*
Y234141D02*
D03*
D42*
X940013Y258967D02*
D03*
Y274466D02*
D03*
D46*
X548513Y349891D02*
D03*
X530013D02*
D03*
X368513D02*
D03*
X350013D02*
D03*
X429263D02*
D03*
X410763D02*
D03*
X489263D02*
D03*
X470763D02*
D03*
X129263D02*
D03*
X110763D02*
D03*
X309263D02*
D03*
X290763D02*
D03*
X230763D02*
D03*
X249263D02*
D03*
D95*
X870013D02*
D03*
X630013D02*
D03*
X750013D02*
D03*
D96*
X235992Y670000D02*
D03*
X284008D02*
D03*
D97*
X1427263Y229216D02*
D03*
Y234216D02*
D03*
Y239216D02*
D03*
Y244216D02*
D03*
X1452763D02*
D03*
Y239216D02*
D03*
Y234216D02*
D03*
Y229216D02*
D03*
D99*
X500013Y676717D02*
D03*
Y662182D02*
D03*
X830013Y676717D02*
D03*
Y662182D02*
D03*
X1480013Y243983D02*
D03*
Y229449D02*
D03*
X1330013Y243983D02*
D03*
Y229449D02*
D03*
X1310013Y243983D02*
D03*
Y229449D02*
D03*
D100*
X210263Y569891D02*
D03*
X189763D02*
D03*
D101*
X1368013Y233466D02*
D03*
X1352013Y246467D02*
D03*
Y239967D02*
D03*
Y226966D02*
D03*
X1368013Y239967D02*
D03*
Y246467D02*
D03*
X1352013Y233466D02*
D03*
X1368013Y226966D02*
D03*
D102*
X940013Y236716D02*
D03*
Y224443D02*
D03*
D103*
X1106213Y414291D02*
D03*
X1093513D02*
D03*
X1080813D02*
D03*
X1068113D02*
D03*
X1055413D02*
D03*
X1042713D02*
D03*
X1030013D02*
D03*
X1017313D02*
D03*
X1004613D02*
D03*
X991913D02*
D03*
D104*
X1136513Y249391D02*
D03*
Y312890D02*
D03*
Y350990D02*
D03*
Y363690D02*
D03*
Y376390D02*
D03*
Y389090D02*
D03*
Y401791D02*
D03*
X961513D02*
D03*
Y389090D02*
D03*
Y376390D02*
D03*
Y363690D02*
D03*
Y350990D02*
D03*
Y338290D02*
D03*
Y312890D02*
D03*
Y300191D02*
D03*
Y287491D02*
D03*
Y274790D02*
D03*
Y262090D02*
D03*
X1136513D02*
D03*
Y325591D02*
D03*
Y300191D02*
D03*
X961513Y249391D02*
D03*
X1136513Y338290D02*
D03*
Y274790D02*
D03*
Y287491D02*
D03*
Y236691D02*
D03*
X961513D02*
D03*
Y325591D02*
D03*
D105*
X1048013Y327891D02*
D03*
Y313890D02*
D03*
Y299891D02*
D03*
X1020013Y327891D02*
D03*
X1034013D02*
D03*
Y313891D02*
D03*
X1020013Y313890D02*
D03*
X1034013Y299891D02*
D03*
X1020013Y299891D02*
D03*
D106*
X260013Y611890D02*
D03*
Y627891D02*
D03*
D107*
Y578391D02*
D03*
Y561391D02*
D03*
D108*
X655413Y235591D02*
D03*
X604613D02*
D03*
X775413D02*
D03*
X724613D02*
D03*
X895413D02*
D03*
X844613D02*
D03*
D112*
X1440012Y236718D02*
D03*
M02*
