G04*
G04 #@! TF.GenerationSoftware,Altium Limited,Altium Designer,25.5.2 (35)*
G04*
G04 Layer_Color=65535*
%FSLAX44Y44*%
%MOMM*%
G71*
G04*
G04 #@! TF.SameCoordinates,D9E2C172-A1AF-44C0-98D0-4809437D878E*
G04*
G04*
G04 #@! TF.FilePolarity,Positive*
G04*
G01*
G75*
%ADD10C,0.2500*%
%ADD11C,0.2540*%
%ADD12C,0.1500*%
%ADD13C,0.6000*%
%ADD14C,0.2000*%
%ADD15C,0.1520*%
%ADD16C,0.1270*%
D10*
X144263Y325640D02*
G03*
X144263Y325640I-1250J0D01*
G01*
X171250Y714750D02*
G03*
X171250Y714750I-1250J0D01*
G01*
X818563Y621791D02*
G03*
X818563Y621791I-1250J0D01*
G01*
X488563D02*
G03*
X488563Y621791I-1250J0D01*
G01*
X1345750Y671500D02*
G03*
X1345750Y671500I-1250J0D01*
G01*
X1265750D02*
G03*
X1265750Y671500I-1250J0D01*
G01*
X1185750D02*
G03*
X1185750Y671500I-1250J0D01*
G01*
X1425750D02*
G03*
X1425750Y671500I-1250J0D01*
G01*
X1467263Y349390D02*
G03*
X1467263Y349390I-1250J0D01*
G01*
X1177513Y657891D02*
G03*
X1177513Y657891I-1250J0D01*
G01*
X1337513D02*
G03*
X1337513Y657891I-1250J0D01*
G01*
X1211263Y275391D02*
G03*
X1211263Y275391I-1250J0D01*
G01*
X1385263Y467141D02*
G03*
X1385263Y467141I-1250J0D01*
G01*
X384263Y325640D02*
G03*
X384263Y325640I-1250J0D01*
G01*
X444263D02*
G03*
X444263Y325640I-1250J0D01*
G01*
X624263D02*
G03*
X624263Y325640I-1250J0D01*
G01*
X564263D02*
G03*
X564263Y325640I-1250J0D01*
G01*
X504263D02*
G03*
X504263Y325640I-1250J0D01*
G01*
X1175263Y467141D02*
G03*
X1175263Y467141I-1250J0D01*
G01*
X264263Y325640D02*
G03*
X264263Y325640I-1250J0D01*
G01*
X324263D02*
G03*
X324263Y325640I-1250J0D01*
G01*
X204263D02*
G03*
X204263Y325640I-1250J0D01*
G01*
X198138Y703391D02*
G03*
X198138Y703391I-1250J0D01*
G01*
X155263Y467141D02*
G03*
X155263Y467141I-1250J0D01*
G01*
X365263D02*
G03*
X365263Y467141I-1250J0D01*
G01*
X665263D02*
G03*
X665263Y467141I-1250J0D01*
G01*
X875263D02*
G03*
X875263Y467141I-1250J0D01*
G01*
D11*
X235013Y459891D02*
G03*
X235013Y459891I-55000J0D01*
G01*
X271013D02*
G03*
X271013Y459891I-91000J0D01*
G01*
X198013Y620391D02*
G03*
X204363Y620391I3175J0D01*
G01*
X1501013Y459891D02*
G03*
X1501013Y459891I-91000J0D01*
G01*
X1465013D02*
G03*
X1465013Y459891I-55000J0D01*
G01*
X1255013Y459891D02*
G03*
X1255013Y459891I-55000J0D01*
G01*
X1291013D02*
G03*
X1291013Y459891I-91000J0D01*
G01*
X955013Y459891D02*
G03*
X955013Y459891I-55000J0D01*
G01*
X991013D02*
G03*
X991013Y459891I-91000J0D01*
G01*
X445013Y459891D02*
G03*
X445013Y459891I-55000J0D01*
G01*
X481013D02*
G03*
X481013Y459891I-91000J0D01*
G01*
X745013D02*
G03*
X745013Y459891I-55000J0D01*
G01*
X781013D02*
G03*
X781013Y459891I-91000J0D01*
G01*
X111953Y261638D02*
Y271795D01*
X109414Y274334D01*
X104336D01*
X101797Y271795D01*
Y261638D01*
X104336Y259099D01*
X109414D01*
X106875Y264177D02*
X111953Y259099D01*
X109414D02*
X111953Y261638D01*
X117032Y259099D02*
X122110D01*
X119571D01*
Y274334D01*
X117032Y271795D01*
X129728Y274334D02*
X139884D01*
Y271795D01*
X129728Y261638D01*
Y259099D01*
X101953Y641795D02*
X99414Y644334D01*
X94336D01*
X91797Y641795D01*
Y631638D01*
X94336Y629099D01*
X99414D01*
X101953Y631638D01*
X107032Y629099D02*
X112110D01*
X109571D01*
Y644334D01*
X107032Y641795D01*
X119728Y644334D02*
X129884D01*
Y641795D01*
X119728Y631638D01*
Y629099D01*
X188145Y604334D02*
Y591638D01*
X190684Y589099D01*
X195762D01*
X198301Y591638D01*
Y604334D01*
X213536D02*
X203380D01*
Y596716D01*
X208458Y599256D01*
X210997D01*
X213536Y596716D01*
Y591638D01*
X210997Y589099D01*
X205919D01*
X203380Y591638D01*
X628145Y667508D02*
Y654812D01*
X630684Y652273D01*
X635762D01*
X638301Y654812D01*
Y667508D01*
X653537Y652273D02*
X643380D01*
X653537Y662430D01*
Y664969D01*
X650997Y667508D01*
X645919D01*
X643380Y664969D01*
X960684Y667508D02*
Y654812D01*
X963223Y652273D01*
X968301D01*
X970841Y654812D01*
Y667508D01*
X975919Y652273D02*
X980997D01*
X978458D01*
Y667508D01*
X975919Y664969D01*
X231954Y261638D02*
Y271795D01*
X229414Y274334D01*
X224336D01*
X221797Y271795D01*
Y261638D01*
X224336Y259099D01*
X229414D01*
X226875Y264177D02*
X231954Y259099D01*
X229414D02*
X231954Y261638D01*
X237032Y259099D02*
X242110D01*
X239571D01*
Y274334D01*
X237032Y271795D01*
X259884Y274334D02*
X254806Y271795D01*
X249728Y266716D01*
Y261638D01*
X252267Y259099D01*
X257345D01*
X259884Y261638D01*
Y264177D01*
X257345Y266716D01*
X249728D01*
X291954Y261638D02*
Y271795D01*
X289414Y274334D01*
X284336D01*
X281797Y271795D01*
Y261638D01*
X284336Y259099D01*
X289414D01*
X286875Y264177D02*
X291954Y259099D01*
X289414D02*
X291954Y261638D01*
X297032Y259099D02*
X302110D01*
X299571D01*
Y274334D01*
X297032Y271795D01*
X319884Y274334D02*
X309728D01*
Y266716D01*
X314806Y269256D01*
X317345D01*
X319884Y266716D01*
Y261638D01*
X317345Y259099D01*
X312267D01*
X309728Y261638D01*
X351954D02*
Y271795D01*
X349414Y274334D01*
X344336D01*
X341797Y271795D01*
Y261638D01*
X344336Y259099D01*
X349414D01*
X346875Y264177D02*
X351954Y259099D01*
X349414D02*
X351954Y261638D01*
X357032Y259099D02*
X362110D01*
X359571D01*
Y274334D01*
X357032Y271795D01*
X377345Y259099D02*
Y274334D01*
X369728Y266716D01*
X379884D01*
X411954Y261638D02*
Y271795D01*
X409414Y274334D01*
X404336D01*
X401797Y271795D01*
Y261638D01*
X404336Y259099D01*
X409414D01*
X406875Y264177D02*
X411954Y259099D01*
X409414D02*
X411954Y261638D01*
X417032Y259099D02*
X422110D01*
X419571D01*
Y274334D01*
X417032Y271795D01*
X429728D02*
X432267Y274334D01*
X437345D01*
X439884Y271795D01*
Y269256D01*
X437345Y266716D01*
X434806D01*
X437345D01*
X439884Y264177D01*
Y261638D01*
X437345Y259099D01*
X432267D01*
X429728Y261638D01*
X471954D02*
Y271795D01*
X469414Y274334D01*
X464336D01*
X461797Y271795D01*
Y261638D01*
X464336Y259099D01*
X469414D01*
X466875Y264177D02*
X471954Y259099D01*
X469414D02*
X471954Y261638D01*
X477032Y259099D02*
X482110D01*
X479571D01*
Y274334D01*
X477032Y271795D01*
X499884Y259099D02*
X489728D01*
X499884Y269256D01*
Y271795D01*
X497345Y274334D01*
X492267D01*
X489728Y271795D01*
X534493Y261638D02*
Y271795D01*
X531954Y274334D01*
X526875D01*
X524336Y271795D01*
Y261638D01*
X526875Y259099D01*
X531954D01*
X529414Y264177D02*
X534493Y259099D01*
X531954D02*
X534493Y261638D01*
X539571Y259099D02*
X544649D01*
X542110D01*
Y274334D01*
X539571Y271795D01*
X552267Y259099D02*
X557345D01*
X554806D01*
Y274334D01*
X552267Y271795D01*
X591954Y261638D02*
Y271795D01*
X589414Y274334D01*
X584336D01*
X581797Y271795D01*
Y261638D01*
X584336Y259099D01*
X589414D01*
X586875Y264177D02*
X591954Y259099D01*
X589414D02*
X591954Y261638D01*
X597032Y259099D02*
X602110D01*
X599571D01*
Y274334D01*
X597032Y271795D01*
X609728D02*
X612267Y274334D01*
X617345D01*
X619884Y271795D01*
Y261638D01*
X617345Y259099D01*
X612267D01*
X609728Y261638D01*
Y271795D01*
X178301Y261638D02*
Y271795D01*
X175762Y274334D01*
X170684D01*
X168145Y271795D01*
Y261638D01*
X170684Y259099D01*
X175762D01*
X173223Y264177D02*
X178301Y259099D01*
X175762D02*
X178301Y261638D01*
X183380D02*
X185919Y259099D01*
X190997D01*
X193536Y261638D01*
Y271795D01*
X190997Y274334D01*
X185919D01*
X183380Y271795D01*
Y269256D01*
X185919Y266716D01*
X193536D01*
X220841Y661638D02*
Y671795D01*
X218301Y674334D01*
X213223D01*
X210684Y671795D01*
Y661638D01*
X213223Y659099D01*
X218301D01*
X215762Y664177D02*
X220841Y659099D01*
X218301D02*
X220841Y661638D01*
X225919Y659099D02*
X230997D01*
X228458D01*
Y674334D01*
X225919Y671795D01*
X740527Y282273D02*
Y297508D01*
X748145D01*
X750684Y294969D01*
Y289891D01*
X748145Y287351D01*
X740527D01*
X755762Y297508D02*
Y282273D01*
X760841Y287351D01*
X765919Y282273D01*
Y297508D01*
X781154Y282273D02*
X770997D01*
X781154Y292430D01*
Y294969D01*
X778615Y297508D01*
X773537D01*
X770997Y294969D01*
X873066Y282273D02*
Y297508D01*
X880684D01*
X883223Y294969D01*
Y289891D01*
X880684Y287351D01*
X873066D01*
X888301Y297508D02*
Y282273D01*
X893380Y287351D01*
X898458Y282273D01*
Y297508D01*
X903537Y282273D02*
X908615D01*
X906076D01*
Y297508D01*
X903537Y294969D01*
X1343223Y577195D02*
X1358458D01*
Y587351D01*
Y602587D02*
Y592430D01*
X1348301Y602587D01*
X1345762D01*
X1343223Y600047D01*
Y594969D01*
X1345762Y592430D01*
X1183223Y579734D02*
X1198458D01*
Y589891D01*
Y594969D02*
Y600047D01*
Y597508D01*
X1183223D01*
X1185762Y594969D01*
X94179Y547508D02*
X99258D01*
X96718D01*
Y532273D01*
X94179D01*
X99258D01*
X106875D02*
Y547508D01*
X117032Y532273D01*
Y547508D01*
X122110Y539891D02*
X132267D01*
X147502Y547508D02*
X142424Y544969D01*
X137345Y539891D01*
Y534812D01*
X139884Y532273D01*
X144963D01*
X147502Y534812D01*
Y537351D01*
X144963Y539891D01*
X137345D01*
X304179Y547508D02*
X309258D01*
X306718D01*
Y532273D01*
X304179D01*
X309258D01*
X316875D02*
Y547508D01*
X327032Y532273D01*
Y547508D01*
X332110Y539891D02*
X342267D01*
X357502Y547508D02*
X347345D01*
Y539891D01*
X352424Y542430D01*
X354963D01*
X357502Y539891D01*
Y534812D01*
X354963Y532273D01*
X349884D01*
X347345Y534812D01*
X604179Y547508D02*
X609258D01*
X606718D01*
Y532273D01*
X604179D01*
X609258D01*
X616875D02*
Y547508D01*
X627032Y532273D01*
Y547508D01*
X632110Y539891D02*
X642267D01*
X654963Y532273D02*
Y547508D01*
X647345Y539891D01*
X657502D01*
X814179Y547508D02*
X819258D01*
X816718D01*
Y532273D01*
X814179D01*
X819258D01*
X826875D02*
Y547508D01*
X837032Y532273D01*
Y547508D01*
X842110Y539891D02*
X852267D01*
X857345Y544969D02*
X859884Y547508D01*
X864963D01*
X867502Y544969D01*
Y542430D01*
X864963Y539891D01*
X862424D01*
X864963D01*
X867502Y537351D01*
Y534812D01*
X864963Y532273D01*
X859884D01*
X857345Y534812D01*
X1114179Y547508D02*
X1119258D01*
X1116718D01*
Y532273D01*
X1114179D01*
X1119258D01*
X1126875D02*
Y547508D01*
X1137032Y532273D01*
Y547508D01*
X1142110Y539891D02*
X1152267D01*
X1167502Y532273D02*
X1157345D01*
X1167502Y542430D01*
Y544969D01*
X1164963Y547508D01*
X1159884D01*
X1157345Y544969D01*
X1326718Y547508D02*
X1331797D01*
X1329258D01*
Y532273D01*
X1326718D01*
X1331797D01*
X1339414D02*
Y547508D01*
X1349571Y532273D01*
Y547508D01*
X1354649Y539891D02*
X1364806D01*
X1369884Y532273D02*
X1374963D01*
X1372424D01*
Y547508D01*
X1369884Y544969D01*
X168145Y444334D02*
Y429099D01*
X175762D01*
X178301Y431638D01*
Y441795D01*
X175762Y444334D01*
X168145D01*
X183380Y431638D02*
X185919Y429099D01*
X190997D01*
X193536Y431638D01*
Y441795D01*
X190997Y444334D01*
X185919D01*
X183380Y441795D01*
Y439256D01*
X185919Y436716D01*
X193536D01*
X378145Y444334D02*
Y429099D01*
X385762D01*
X388301Y431638D01*
Y441795D01*
X385762Y444334D01*
X378145D01*
X393380Y441795D02*
X395919Y444334D01*
X400997D01*
X403536Y441795D01*
Y439256D01*
X400997Y436716D01*
X403536Y434177D01*
Y431638D01*
X400997Y429099D01*
X395919D01*
X393380Y431638D01*
Y434177D01*
X395919Y436716D01*
X393380Y439256D01*
Y441795D01*
X395919Y436716D02*
X400997D01*
X678145Y444334D02*
Y429099D01*
X685762D01*
X688301Y431638D01*
Y441795D01*
X685762Y444334D01*
X678145D01*
X693380D02*
X703537D01*
Y441795D01*
X693380Y431638D01*
Y429099D01*
X888145Y444334D02*
Y429099D01*
X895762D01*
X898301Y431638D01*
Y441795D01*
X895762Y444334D01*
X888145D01*
X913537D02*
X908458Y441795D01*
X903380Y436716D01*
Y431638D01*
X905919Y429099D01*
X910997D01*
X913537Y431638D01*
Y434177D01*
X910997Y436716D01*
X903380D01*
X1188145Y444334D02*
Y429099D01*
X1195762D01*
X1198301Y431638D01*
Y441795D01*
X1195762Y444334D01*
X1188145D01*
X1213537D02*
X1203380D01*
Y436716D01*
X1208458Y439256D01*
X1210997D01*
X1213537Y436716D01*
Y431638D01*
X1210997Y429099D01*
X1205919D01*
X1203380Y431638D01*
X1398145Y444334D02*
Y429099D01*
X1405762D01*
X1408301Y431638D01*
Y441795D01*
X1405762Y444334D01*
X1398145D01*
X1420997Y429099D02*
Y444334D01*
X1413380Y436716D01*
X1423537D01*
D12*
X162513Y609891D02*
G03*
X162513Y609891I-52500J0D01*
G01*
D13*
X822513Y643391D02*
G03*
X822513Y643391I-3000J0D01*
G01*
X492513D02*
G03*
X492513Y643391I-3000J0D01*
G01*
D14*
X809513Y653541D02*
G03*
X809513Y666241I0J6350D01*
G01*
X479513Y653541D02*
G03*
X479513Y666241I0J6350D01*
G01*
X402513Y659891D02*
G03*
X402513Y659891I-42500J0D01*
G01*
X474013Y669891D02*
G03*
X474013Y669891I-34000J0D01*
G01*
X1536013Y271140D02*
G03*
X1536013Y288641I-4841J8750D01*
G01*
Y321141D02*
G03*
X1536013Y338641I-4841J8750D01*
G01*
X817713Y355341D02*
G03*
X817713Y355341I-1000J0D01*
G01*
X957713D02*
G03*
X957713Y355341I-1000J0D01*
G01*
D15*
X143913Y246390D02*
Y313391D01*
X96113Y246390D02*
X143913D01*
X96113D02*
Y313391D01*
X143913D01*
X182500Y679459D02*
Y700541D01*
X137500D02*
X139300D01*
X180700D02*
X182500D01*
X137500Y679459D02*
Y700541D01*
Y679459D02*
X139300D01*
X180700D02*
X182500D01*
X68013Y579891D02*
Y639891D01*
X1130513Y633391D02*
Y686391D01*
X809513Y666241D02*
Y686391D01*
Y633391D02*
Y653541D01*
Y686391D02*
X1130513D01*
X809513Y633391D02*
X1130513D01*
X479513D02*
X800513D01*
X479513Y686391D02*
X800513D01*
X479513Y633391D02*
Y653541D01*
Y666241D02*
Y686391D01*
X800513Y633391D02*
Y686391D01*
X1380000Y712750D02*
Y715000D01*
X1340000D02*
X1380000D01*
X1340000Y712750D02*
Y715000D01*
X1300000Y712750D02*
Y715000D01*
X1260000D02*
X1300000D01*
X1260000Y712750D02*
Y715000D01*
X1180000Y712750D02*
Y715000D01*
X1220000D01*
Y712750D02*
Y715000D01*
X1460000Y712750D02*
Y715000D01*
X1420000D02*
X1460000D01*
X1420000Y712750D02*
Y715000D01*
X1442763Y332391D02*
X1457263D01*
X1427513Y295140D02*
Y324641D01*
X1442763Y287390D02*
X1457263D01*
X1472513Y295140D02*
Y324641D01*
X1099263Y294186D02*
Y319247D01*
X1120763Y294186D02*
Y319247D01*
X1090763Y294186D02*
Y319247D01*
X1069263Y294186D02*
Y319247D01*
X1039263Y293931D02*
Y318993D01*
X1060763Y293931D02*
Y318993D01*
X1091794Y240186D02*
Y273248D01*
X1068232Y240186D02*
Y273248D01*
X1098232Y240186D02*
Y273248D01*
X1121794Y240186D02*
Y273248D01*
X1493763Y328891D02*
Y330891D01*
X1506263Y328891D02*
Y330891D01*
X1038232Y239931D02*
Y272993D01*
X1061794Y239931D02*
Y272993D01*
X1185013Y655390D02*
X1195013D01*
X1185013Y624390D02*
X1195013D01*
X1185013D02*
Y655390D01*
X1195013Y624390D02*
Y655390D01*
X1345013D02*
X1355013D01*
X1345013Y624390D02*
X1355013D01*
X1345013D02*
Y655390D01*
X1355013Y624390D02*
Y655390D01*
X180513Y571941D02*
Y620391D01*
Y571941D02*
X221153D01*
Y620741D01*
X180513Y620391D02*
X197658D01*
X204508Y620741D02*
X208794D01*
X221153D01*
X423013Y566991D02*
Y592791D01*
X367633Y579891D02*
X384013D01*
X436013D02*
X452393D01*
X436013Y566291D02*
Y593491D01*
X384013D02*
X436013D01*
X384013Y566291D02*
Y593491D01*
Y566291D02*
X436013D01*
X1220713Y239350D02*
X1222513D01*
X1157513D02*
X1159313D01*
X1157513D02*
Y260432D01*
X1220713D02*
X1222513D01*
X1157513D02*
X1159313D01*
X1222513Y239350D02*
Y260432D01*
X1509263Y264641D02*
X1513263D01*
X1511263Y262640D02*
Y266640D01*
X1536013Y288640D02*
Y295891D01*
Y263891D02*
Y271141D01*
X1024513Y305966D02*
Y307467D01*
X1015513Y305966D02*
Y307467D01*
X1509263Y314641D02*
X1513263D01*
X1511263Y312640D02*
Y316640D01*
X1536013Y338641D02*
Y345891D01*
Y313891D02*
Y321141D01*
X1159013Y630891D02*
Y648891D01*
X1141013Y630891D02*
Y648891D01*
X1319013Y628641D02*
Y646641D01*
X1301013Y628641D02*
Y646641D01*
X1458513Y581141D02*
Y598641D01*
X1441663Y581221D02*
Y598721D01*
X1405763Y444891D02*
X1414263D01*
X1405763Y474891D02*
X1414263D01*
X1281663Y581221D02*
Y598721D01*
X1298513Y581141D02*
Y598641D01*
X266044Y587422D02*
Y592360D01*
X253982Y587422D02*
Y592360D01*
X1506263Y278891D02*
Y280891D01*
X1493763Y278891D02*
Y280891D01*
X299013Y343641D02*
X301013D01*
X299013Y356141D02*
X301013D01*
X336113Y313391D02*
X383913D01*
X336113Y246390D02*
Y313391D01*
Y246390D02*
X383913D01*
Y313391D01*
X359013Y343641D02*
X361013D01*
X359013Y356141D02*
X361013D01*
X1399513Y292216D02*
X1400513D01*
X1399513Y281217D02*
X1400513D01*
X1349513Y281217D02*
X1350513D01*
X1349513Y292216D02*
X1350513D01*
X419013Y356141D02*
X421013D01*
X419013Y343641D02*
X421013D01*
X396113Y313391D02*
X443913D01*
X396113Y246390D02*
Y313391D01*
Y246390D02*
X443913D01*
Y313391D01*
X1008232Y240186D02*
Y273248D01*
X1031794Y240186D02*
Y273248D01*
X825013Y253891D02*
Y325891D01*
X695013Y253891D02*
Y325891D01*
X835013Y253891D02*
Y325891D01*
X965013Y253891D02*
Y325891D01*
X576113Y313391D02*
X623913D01*
X576113Y246390D02*
Y313391D01*
Y246390D02*
X623913D01*
Y313391D01*
X599013Y343641D02*
X601013D01*
X599013Y356141D02*
X601013D01*
X516113Y313391D02*
X563913D01*
X516113Y246390D02*
Y313391D01*
Y246390D02*
X563913D01*
Y313391D01*
X539013Y343641D02*
X541013D01*
X539013Y356141D02*
X541013D01*
X456113Y313391D02*
X503913D01*
X456113Y246390D02*
Y313391D01*
Y246390D02*
X503913D01*
Y313391D01*
X479013Y343641D02*
X481013D01*
X479013Y356141D02*
X481013D01*
X1426513Y589391D02*
Y590391D01*
X1413513Y589391D02*
Y590391D01*
X1168443Y605071D02*
Y611461D01*
Y568321D02*
Y574711D01*
Y568321D02*
X1211583D01*
Y605071D02*
Y611461D01*
Y568321D02*
Y574711D01*
X1168443Y611461D02*
X1211583D01*
X1328443Y605071D02*
Y611461D01*
Y568321D02*
Y574711D01*
Y568321D02*
X1371583D01*
Y605071D02*
Y611461D01*
Y568321D02*
Y574711D01*
X1328443Y611461D02*
X1371583D01*
X1430763Y627830D02*
Y651951D01*
X1409263Y627830D02*
Y651951D01*
X1267013Y628641D02*
Y631141D01*
X1253013Y628641D02*
Y631141D01*
X1265763Y588891D02*
Y590891D01*
X1254263Y588891D02*
Y590891D01*
X1195763Y444891D02*
X1204263D01*
X1195763Y474891D02*
X1204263D01*
X263913Y246390D02*
Y313391D01*
X216113Y246390D02*
X263913D01*
X216113D02*
Y313391D01*
X263913D01*
X276113D02*
X323913D01*
X276113Y246390D02*
Y313391D01*
Y246390D02*
X323913D01*
Y313391D01*
X119013Y343641D02*
X121013D01*
X119013Y356141D02*
X121013D01*
X203913Y246390D02*
Y313391D01*
X156113Y246390D02*
X203913D01*
X156113D02*
Y313391D01*
X203913D01*
X239013Y343641D02*
X241013D01*
X239013Y356141D02*
X241013D01*
X179013Y343641D02*
X181013D01*
X179013Y356141D02*
X181013D01*
X279013Y585641D02*
Y594141D01*
X321013Y585641D02*
Y594141D01*
X226878Y635756D02*
Y704026D01*
X291148D01*
X226878Y635756D02*
X291148D01*
Y640756D01*
Y699025D02*
Y704026D01*
X175763Y444891D02*
X184263D01*
X175763Y474891D02*
X184263D01*
X385763Y444891D02*
X394263D01*
X385763Y474891D02*
X394263D01*
X685763Y444891D02*
X694263D01*
X685763Y474891D02*
X694263D01*
X895763Y444891D02*
X904263D01*
X895763Y474891D02*
X904263D01*
D16*
X1207665Y223037D02*
X1206396Y221767D01*
Y219228D01*
X1207665Y217959D01*
X1212744D01*
X1214013Y219228D01*
Y221767D01*
X1212744Y223037D01*
X1210204D01*
Y220498D01*
X1214013Y225576D02*
X1206396D01*
X1214013Y230655D01*
X1206396D01*
Y233194D02*
X1214013D01*
Y237002D01*
X1212744Y238272D01*
X1207665D01*
X1206396Y237002D01*
Y233194D01*
X1185600Y225462D02*
Y230541D01*
Y228001D01*
X1193217D01*
X1185600Y233080D02*
X1193217Y238158D01*
X1185600D02*
X1193217Y233080D01*
X1173217Y225462D02*
X1165600D01*
Y229271D01*
X1166869Y230541D01*
X1169408D01*
X1170678Y229271D01*
Y225462D01*
Y228001D02*
X1173217Y230541D01*
X1165600Y233080D02*
X1173217Y238158D01*
X1165600D02*
X1173217Y233080D01*
X161250Y673803D02*
X166329D01*
X163790Y676342D02*
Y671264D01*
X173946Y677612D02*
X168868D01*
Y673803D01*
X171407Y675073D01*
X172677D01*
X173946Y673803D01*
Y671264D01*
X172677Y669994D01*
X170138D01*
X168868Y671264D01*
X176486Y675073D02*
X179025Y669994D01*
X181564Y675073D01*
X360010Y614390D02*
Y604394D01*
X365009Y609392D02*
X355012D01*
X440011Y632891D02*
Y626226D01*
X443343Y629558D02*
X436679D01*
X1301125Y286560D02*
X1308743D01*
Y290369D01*
X1307473Y291638D01*
X1306203D01*
X1304934Y290369D01*
Y286560D01*
Y290369D01*
X1303664Y291638D01*
X1302395D01*
X1301125Y290369D01*
Y286560D01*
Y294177D02*
X1308743D01*
Y299256D01*
X1301125Y301795D02*
X1308743D01*
X1306203D01*
X1301125Y306873D01*
X1304934Y303064D01*
X1308743Y306873D01*
X1281125Y290369D02*
X1288743D01*
Y294177D01*
X1287473Y295447D01*
X1282395D01*
X1281125Y294177D01*
Y290369D01*
X1282395Y303064D02*
X1281125Y301795D01*
Y299256D01*
X1282395Y297986D01*
X1287473D01*
X1288743Y299256D01*
Y301795D01*
X1287473Y303064D01*
X1268743Y286560D02*
X1261125D01*
Y290369D01*
X1262395Y291638D01*
X1264934D01*
X1266203Y290369D01*
Y286560D01*
Y289099D02*
X1268743Y291638D01*
X1261125Y299256D02*
Y294177D01*
X1268743D01*
Y299256D01*
X1264934Y294177D02*
Y296716D01*
X1262395Y306873D02*
X1261125Y305604D01*
Y303064D01*
X1262395Y301795D01*
X1263664D01*
X1264934Y303064D01*
Y305604D01*
X1266203Y306873D01*
X1267473D01*
X1268743Y305604D01*
Y303064D01*
X1267473Y301795D01*
X1242395Y291638D02*
X1241125Y290369D01*
Y287829D01*
X1242395Y286560D01*
X1243664D01*
X1244934Y287829D01*
Y290369D01*
X1246203Y291638D01*
X1247473D01*
X1248743Y290369D01*
Y287829D01*
X1247473Y286560D01*
X1241125Y294177D02*
X1248743D01*
Y297986D01*
X1247473Y299256D01*
X1242395D01*
X1241125Y297986D01*
Y294177D01*
X1248743Y301795D02*
X1243664D01*
X1241125Y304334D01*
X1243664Y306873D01*
X1248743D01*
X1244934D01*
Y301795D01*
X1182395Y291638D02*
X1181125Y290369D01*
Y287829D01*
X1182395Y286560D01*
X1187473D01*
X1188743Y287829D01*
Y290369D01*
X1187473Y291638D01*
X1184934D01*
Y289099D01*
X1188743Y294177D02*
X1181125D01*
X1188743Y299256D01*
X1181125D01*
Y301795D02*
X1188743D01*
Y305604D01*
X1187473Y306873D01*
X1182395D01*
X1181125Y305604D01*
Y301795D01*
X1202395Y283386D02*
X1201125Y284655D01*
Y287195D01*
X1202395Y288464D01*
X1203664D01*
X1204934Y287195D01*
Y285925D01*
Y287195D01*
X1206203Y288464D01*
X1207473D01*
X1208743Y287195D01*
Y284655D01*
X1207473Y283386D01*
X1208743Y291003D02*
X1207473D01*
Y292273D01*
X1208743D01*
Y291003D01*
X1202395Y297351D02*
X1201125Y298621D01*
Y301160D01*
X1202395Y302430D01*
X1203664D01*
X1204934Y301160D01*
Y299890D01*
Y301160D01*
X1206203Y302430D01*
X1207473D01*
X1208743Y301160D01*
Y298621D01*
X1207473Y297351D01*
X1201125Y304969D02*
X1206203D01*
X1208743Y307508D01*
X1206203Y310047D01*
X1201125D01*
X1222395Y291638D02*
X1221125Y290369D01*
Y287829D01*
X1222395Y286560D01*
X1223664D01*
X1224934Y287829D01*
Y290369D01*
X1226203Y291638D01*
X1227473D01*
X1228743Y290369D01*
Y287829D01*
X1227473Y286560D01*
X1222395Y299256D02*
X1221125Y297986D01*
Y295447D01*
X1222395Y294177D01*
X1227473D01*
X1228743Y295447D01*
Y297986D01*
X1227473Y299256D01*
X1221125Y301795D02*
X1228743D01*
Y306873D01*
X1435750Y706365D02*
X1434480Y707635D01*
X1431941D01*
X1430671Y706365D01*
Y705096D01*
X1431941Y703826D01*
X1434480D01*
X1435750Y702556D01*
Y701287D01*
X1434480Y700017D01*
X1431941D01*
X1430671Y701287D01*
X1438289Y707635D02*
Y700017D01*
X1440828Y702556D01*
X1443367Y700017D01*
Y707635D01*
X1450985D02*
X1445906D01*
Y703826D01*
X1448445Y705096D01*
X1449715D01*
X1450985Y703826D01*
Y701287D01*
X1449715Y700017D01*
X1447176D01*
X1445906Y701287D01*
X1356543Y704925D02*
X1355274Y706194D01*
X1352735D01*
X1351465Y704925D01*
Y703655D01*
X1352735Y702386D01*
X1355274D01*
X1356543Y701116D01*
Y699846D01*
X1355274Y698577D01*
X1352735D01*
X1351465Y699846D01*
X1359082Y706194D02*
Y698577D01*
X1361622Y701116D01*
X1364161Y698577D01*
Y706194D01*
X1370509Y698577D02*
Y706194D01*
X1366700Y702386D01*
X1371778D01*
X1275750Y706365D02*
X1274480Y707635D01*
X1271941D01*
X1270671Y706365D01*
Y705096D01*
X1271941Y703826D01*
X1274480D01*
X1275750Y702556D01*
Y701287D01*
X1274480Y700017D01*
X1271941D01*
X1270671Y701287D01*
X1278289Y707635D02*
Y700017D01*
X1280828Y702556D01*
X1283367Y700017D01*
Y707635D01*
X1285906Y706365D02*
X1287176Y707635D01*
X1289715D01*
X1290985Y706365D01*
Y705096D01*
X1289715Y703826D01*
X1288445D01*
X1289715D01*
X1290985Y702556D01*
Y701287D01*
X1289715Y700017D01*
X1287176D01*
X1285906Y701287D01*
X1195750Y706365D02*
X1194480Y707635D01*
X1191941D01*
X1190671Y706365D01*
Y705096D01*
X1191941Y703826D01*
X1194480D01*
X1195750Y702556D01*
Y701287D01*
X1194480Y700017D01*
X1191941D01*
X1190671Y701287D01*
X1198289Y707635D02*
Y700017D01*
X1200828Y702556D01*
X1203367Y700017D01*
Y707635D01*
X1210985Y700017D02*
X1205906D01*
X1210985Y705096D01*
Y706365D01*
X1209715Y707635D01*
X1207176D01*
X1205906Y706365D01*
X1447032Y299256D02*
X1445762Y300525D01*
X1443223D01*
X1441953Y299256D01*
Y297986D01*
X1443223Y296716D01*
X1445762D01*
X1447032Y295447D01*
Y294177D01*
X1445762Y292908D01*
X1443223D01*
X1441953Y294177D01*
X1449571Y300525D02*
Y292908D01*
X1452110Y295447D01*
X1454649Y292908D01*
Y300525D01*
X1457189Y292908D02*
X1459728D01*
X1458458D01*
Y300525D01*
X1457189Y299256D01*
X376397Y669256D02*
X375127Y670525D01*
X372588D01*
X371319Y669256D01*
Y664177D01*
X372588Y662908D01*
X375127D01*
X376397Y664177D01*
X378936Y662908D02*
X381475D01*
X380206D01*
Y670525D01*
X378936Y669256D01*
X385284D02*
X386554Y670525D01*
X389093D01*
X390363Y669256D01*
Y667986D01*
X389093Y666717D01*
X390363Y665447D01*
Y664177D01*
X389093Y662908D01*
X386554D01*
X385284Y664177D01*
Y665447D01*
X386554Y666717D01*
X385284Y667986D01*
Y669256D01*
X386554Y666717D02*
X389093D01*
X1361084Y643713D02*
Y637365D01*
X1362353Y636095D01*
X1364893D01*
X1366162Y637365D01*
Y643713D01*
X1372510Y636095D02*
Y643713D01*
X1368701Y639904D01*
X1373780D01*
X1201017Y643987D02*
Y637639D01*
X1202287Y636370D01*
X1204826D01*
X1206096Y637639D01*
Y643987D01*
X1208635Y642718D02*
X1209904Y643987D01*
X1212444D01*
X1213713Y642718D01*
Y641448D01*
X1212444Y640179D01*
X1211174D01*
X1212444D01*
X1213713Y638909D01*
Y637639D01*
X1212444Y636370D01*
X1209904D01*
X1208635Y637639D01*
X1070684Y222908D02*
Y230525D01*
X1074493D01*
X1075762Y229256D01*
Y226716D01*
X1074493Y225447D01*
X1070684D01*
X1073223D02*
X1075762Y222908D01*
X1078301Y229256D02*
X1079571Y230525D01*
X1082110D01*
X1083380Y229256D01*
Y227986D01*
X1082110Y226716D01*
X1080841D01*
X1082110D01*
X1083380Y225447D01*
Y224177D01*
X1082110Y222908D01*
X1079571D01*
X1078301Y224177D01*
X1089728Y222908D02*
Y230525D01*
X1085919Y226716D01*
X1090997D01*
X1100684Y222908D02*
Y230525D01*
X1104493D01*
X1105762Y229256D01*
Y226716D01*
X1104493Y225447D01*
X1100684D01*
X1103223D02*
X1105762Y222908D01*
X1108301Y229256D02*
X1109571Y230525D01*
X1112110D01*
X1113380Y229256D01*
Y227986D01*
X1112110Y226716D01*
X1110841D01*
X1112110D01*
X1113380Y225447D01*
Y224177D01*
X1112110Y222908D01*
X1109571D01*
X1108301Y224177D01*
X1115919Y229256D02*
X1117188Y230525D01*
X1119728D01*
X1120997Y229256D01*
Y227986D01*
X1119728Y226716D01*
X1118458D01*
X1119728D01*
X1120997Y225447D01*
Y224177D01*
X1119728Y222908D01*
X1117188D01*
X1115919Y224177D01*
X1040684Y222908D02*
Y230525D01*
X1044493D01*
X1045762Y229256D01*
Y226716D01*
X1044493Y225447D01*
X1040684D01*
X1043223D02*
X1045762Y222908D01*
X1048301Y229256D02*
X1049571Y230525D01*
X1052110D01*
X1053380Y229256D01*
Y227986D01*
X1052110Y226716D01*
X1050841D01*
X1052110D01*
X1053380Y225447D01*
Y224177D01*
X1052110Y222908D01*
X1049571D01*
X1048301Y224177D01*
X1060997Y222908D02*
X1055919D01*
X1060997Y227986D01*
Y229256D01*
X1059728Y230525D01*
X1057189D01*
X1055919Y229256D01*
X1071954Y322908D02*
Y330525D01*
X1075762D01*
X1077032Y329256D01*
Y326716D01*
X1075762Y325447D01*
X1071954D01*
X1074493D02*
X1077032Y322908D01*
X1079571Y329256D02*
X1080841Y330525D01*
X1083380D01*
X1084649Y329256D01*
Y327986D01*
X1083380Y326716D01*
X1082110D01*
X1083380D01*
X1084649Y325447D01*
Y324177D01*
X1083380Y322908D01*
X1080841D01*
X1079571Y324177D01*
X1087188Y322908D02*
X1089728D01*
X1088458D01*
Y330525D01*
X1087188Y329256D01*
X1100684Y322908D02*
Y330525D01*
X1104493D01*
X1105762Y329256D01*
Y326716D01*
X1104493Y325447D01*
X1100684D01*
X1103223D02*
X1105762Y322908D01*
X1108301Y329256D02*
X1109571Y330525D01*
X1112110D01*
X1113380Y329256D01*
Y327986D01*
X1112110Y326716D01*
X1110841D01*
X1112110D01*
X1113380Y325447D01*
Y324177D01*
X1112110Y322908D01*
X1109571D01*
X1108301Y324177D01*
X1115919Y329256D02*
X1117188Y330525D01*
X1119728D01*
X1120997Y329256D01*
Y324177D01*
X1119728Y322908D01*
X1117188D01*
X1115919Y324177D01*
Y329256D01*
X1040684Y322653D02*
Y330271D01*
X1044493D01*
X1045762Y329001D01*
Y326462D01*
X1044493Y325192D01*
X1040684D01*
X1043223D02*
X1045762Y322653D01*
X1053380D02*
X1048301D01*
X1053380Y327731D01*
Y329001D01*
X1052110Y330271D01*
X1049571D01*
X1048301Y329001D01*
X1055919Y323923D02*
X1057189Y322653D01*
X1059728D01*
X1060997Y323923D01*
Y329001D01*
X1059728Y330271D01*
X1057189D01*
X1055919Y329001D01*
Y327731D01*
X1057189Y326462D01*
X1060997D01*
X1490613Y349527D02*
Y357145D01*
X1494422D01*
X1495691Y355875D01*
Y353336D01*
X1494422Y352066D01*
X1490613D01*
X1493152D02*
X1495691Y349527D01*
X1503309D02*
X1498231D01*
X1503309Y354606D01*
Y355875D01*
X1502039Y357145D01*
X1499500D01*
X1498231Y355875D01*
X1505848D02*
X1507118Y357145D01*
X1509657D01*
X1510927Y355875D01*
Y354606D01*
X1509657Y353336D01*
X1510927Y352066D01*
Y350797D01*
X1509657Y349527D01*
X1507118D01*
X1505848Y350797D01*
Y352066D01*
X1507118Y353336D01*
X1505848Y354606D01*
Y355875D01*
X1507118Y353336D02*
X1509657D01*
X1490812Y298958D02*
Y306575D01*
X1494621D01*
X1495891Y305306D01*
Y302766D01*
X1494621Y301497D01*
X1490812D01*
X1493351D02*
X1495891Y298958D01*
X1503508D02*
X1498430D01*
X1503508Y304036D01*
Y305306D01*
X1502239Y306575D01*
X1499699D01*
X1498430Y305306D01*
X1511126Y306575D02*
X1508586Y305306D01*
X1506047Y302766D01*
Y300227D01*
X1507317Y298958D01*
X1509856D01*
X1511126Y300227D01*
Y301497D01*
X1509856Y302766D01*
X1506047D01*
X1394697Y296279D02*
Y303896D01*
X1398506D01*
X1399776Y302627D01*
Y300088D01*
X1398506Y298818D01*
X1394697D01*
X1397237D02*
X1399776Y296279D01*
X1407393D02*
X1402315D01*
X1407393Y301357D01*
Y302627D01*
X1406124Y303896D01*
X1403584D01*
X1402315Y302627D01*
X1409933D02*
X1411202Y303896D01*
X1413741D01*
X1415011Y302627D01*
Y297549D01*
X1413741Y296279D01*
X1411202D01*
X1409933Y297549D01*
Y302627D01*
X1337417Y297010D02*
Y304628D01*
X1341226D01*
X1342495Y303358D01*
Y300819D01*
X1341226Y299550D01*
X1337417D01*
X1339956D02*
X1342495Y297010D01*
X1345034D02*
X1347574D01*
X1346304D01*
Y304628D01*
X1345034Y303358D01*
X1351382Y298280D02*
X1352652Y297010D01*
X1355191D01*
X1356461Y298280D01*
Y303358D01*
X1355191Y304628D01*
X1352652D01*
X1351382Y303358D01*
Y302089D01*
X1352652Y300819D01*
X1356461D01*
X112588Y362908D02*
Y370525D01*
X116397D01*
X117667Y369256D01*
Y366716D01*
X116397Y365447D01*
X112588D01*
X115127D02*
X117667Y362908D01*
X120206D02*
X122745D01*
X121475D01*
Y370525D01*
X120206Y369256D01*
X126554Y362908D02*
X129093D01*
X127823D01*
Y370525D01*
X126554Y369256D01*
X231319Y362908D02*
Y370525D01*
X235128D01*
X236397Y369256D01*
Y366716D01*
X235128Y365447D01*
X231319D01*
X233858D02*
X236397Y362908D01*
X238936D02*
X241475D01*
X240206D01*
Y370525D01*
X238936Y369256D01*
X245284D02*
X246554Y370525D01*
X249093D01*
X250362Y369256D01*
Y364177D01*
X249093Y362908D01*
X246554D01*
X245284Y364177D01*
Y369256D01*
X294493Y362908D02*
Y370525D01*
X298301D01*
X299571Y369256D01*
Y366716D01*
X298301Y365447D01*
X294493D01*
X297032D02*
X299571Y362908D01*
X302110Y364177D02*
X303380Y362908D01*
X305919D01*
X307188Y364177D01*
Y369256D01*
X305919Y370525D01*
X303380D01*
X302110Y369256D01*
Y367986D01*
X303380Y366716D01*
X307188D01*
X354493Y362908D02*
Y370525D01*
X358301D01*
X359571Y369256D01*
Y366716D01*
X358301Y365447D01*
X354493D01*
X357032D02*
X359571Y362908D01*
X362110Y369256D02*
X363380Y370525D01*
X365919D01*
X367188Y369256D01*
Y367986D01*
X365919Y366716D01*
X367188Y365447D01*
Y364177D01*
X365919Y362908D01*
X363380D01*
X362110Y364177D01*
Y365447D01*
X363380Y366716D01*
X362110Y367986D01*
Y369256D01*
X363380Y366716D02*
X365919D01*
X414493Y362908D02*
Y370525D01*
X418301D01*
X419571Y369256D01*
Y366716D01*
X418301Y365447D01*
X414493D01*
X417032D02*
X419571Y362908D01*
X422110Y370525D02*
X427188D01*
Y369256D01*
X422110Y364177D01*
Y362908D01*
X474493D02*
Y370525D01*
X478301D01*
X479571Y369256D01*
Y366716D01*
X478301Y365447D01*
X474493D01*
X477032D02*
X479571Y362908D01*
X487188Y370525D02*
X484649Y369256D01*
X482110Y366716D01*
Y364177D01*
X483380Y362908D01*
X485919D01*
X487188Y364177D01*
Y365447D01*
X485919Y366716D01*
X482110D01*
X534493Y362908D02*
Y370525D01*
X538302D01*
X539571Y369256D01*
Y366716D01*
X538302Y365447D01*
X534493D01*
X537032D02*
X539571Y362908D01*
X547189Y370525D02*
X542110D01*
Y366716D01*
X544649Y367986D01*
X545919D01*
X547189Y366716D01*
Y364177D01*
X545919Y362908D01*
X543380D01*
X542110Y364177D01*
X594493Y362908D02*
Y370525D01*
X598301D01*
X599571Y369256D01*
Y366716D01*
X598301Y365447D01*
X594493D01*
X597032D02*
X599571Y362908D01*
X605919D02*
Y370525D01*
X602110Y366716D01*
X607188D01*
X174493Y362908D02*
Y370525D01*
X178301D01*
X179571Y369256D01*
Y366716D01*
X178301Y365447D01*
X174493D01*
X177032D02*
X179571Y362908D01*
X182110Y369256D02*
X183380Y370525D01*
X185919D01*
X187188Y369256D01*
Y367986D01*
X185919Y366716D01*
X184649D01*
X185919D01*
X187188Y365447D01*
Y364177D01*
X185919Y362908D01*
X183380D01*
X182110Y364177D01*
X1014493Y222908D02*
Y230525D01*
X1018301D01*
X1019571Y229256D01*
Y226716D01*
X1018301Y225447D01*
X1014493D01*
X1017032D02*
X1019571Y222908D01*
X1027188D02*
X1022110D01*
X1027188Y227986D01*
Y229256D01*
X1025919Y230525D01*
X1023380D01*
X1022110Y229256D01*
X294493Y593699D02*
Y586082D01*
X299571D01*
X302110Y592430D02*
X303380Y593699D01*
X305919D01*
X307188Y592430D01*
Y591160D01*
X305919Y589891D01*
X304649D01*
X305919D01*
X307188Y588621D01*
Y587351D01*
X305919Y586082D01*
X303380D01*
X302110Y587351D01*
X1516720Y360728D02*
Y353111D01*
X1520529D01*
X1521799Y354381D01*
Y359459D01*
X1520529Y360728D01*
X1516720D01*
X1524338Y359459D02*
X1525607Y360728D01*
X1528147D01*
X1529416Y359459D01*
Y358189D01*
X1528147Y356920D01*
X1526877D01*
X1528147D01*
X1529416Y355650D01*
Y354381D01*
X1528147Y353111D01*
X1525607D01*
X1524338Y354381D01*
X1517915Y256404D02*
Y248786D01*
X1521724D01*
X1522993Y250056D01*
Y255134D01*
X1521724Y256404D01*
X1517915D01*
X1530611Y248786D02*
X1525533D01*
X1530611Y253865D01*
Y255134D01*
X1529341Y256404D01*
X1526802D01*
X1525533Y255134D01*
X405762Y580525D02*
Y572908D01*
X409571D01*
X410841Y574177D01*
Y579256D01*
X409571Y580525D01*
X405762D01*
X413380Y572908D02*
X415919D01*
X414649D01*
Y580525D01*
X413380Y579256D01*
X1236191Y251270D02*
X1232383D01*
X1231113Y250000D01*
Y247461D01*
X1232383Y246191D01*
X1236191D01*
X1238730D02*
Y251270D01*
X1242539D01*
X1243809Y250000D01*
Y246191D01*
X1246348D02*
X1248887D01*
X1247617D01*
Y253809D01*
X1246348Y252539D01*
X455945Y671974D02*
X454675Y673244D01*
X452136D01*
X450867Y671974D01*
Y666896D01*
X452136Y665626D01*
X454675D01*
X455945Y666896D01*
X458484Y665626D02*
X461023D01*
X459754D01*
Y673244D01*
X458484Y671974D01*
X469910Y673244D02*
X467371Y671974D01*
X464832Y669435D01*
Y666896D01*
X466101Y665626D01*
X468641D01*
X469910Y666896D01*
Y668165D01*
X468641Y669435D01*
X464832D01*
X1446397Y609256D02*
X1445128Y610525D01*
X1442588D01*
X1441319Y609256D01*
Y604177D01*
X1442588Y602908D01*
X1445128D01*
X1446397Y604177D01*
X1448936Y602908D02*
X1451475D01*
X1450206D01*
Y610525D01*
X1448936Y609256D01*
X1455284D02*
X1456554Y610525D01*
X1459093D01*
X1460363Y609256D01*
Y607986D01*
X1459093Y606716D01*
X1457823D01*
X1459093D01*
X1460363Y605447D01*
Y604177D01*
X1459093Y602908D01*
X1456554D01*
X1455284Y604177D01*
X1306397Y659256D02*
X1305128Y660525D01*
X1302588D01*
X1301319Y659256D01*
Y654177D01*
X1302588Y652908D01*
X1305128D01*
X1306397Y654177D01*
X1308936Y652908D02*
X1311475D01*
X1310206D01*
Y660525D01*
X1308936Y659256D01*
X1320363Y652908D02*
X1315284D01*
X1320363Y657986D01*
Y659256D01*
X1319093Y660525D01*
X1316554D01*
X1315284Y659256D01*
X1150089Y661449D02*
X1148819Y662718D01*
X1146280D01*
X1145010Y661449D01*
Y656370D01*
X1146280Y655101D01*
X1148819D01*
X1150089Y656370D01*
X1152628D02*
X1153897Y655101D01*
X1156436D01*
X1157706Y656370D01*
Y661449D01*
X1156436Y662718D01*
X1153897D01*
X1152628Y661449D01*
Y660179D01*
X1153897Y658910D01*
X1157706D01*
X1019571Y329256D02*
X1018301Y330525D01*
X1015762D01*
X1014493Y329256D01*
Y324177D01*
X1015762Y322908D01*
X1018301D01*
X1019571Y324177D01*
X1022110Y329256D02*
X1023380Y330525D01*
X1025919D01*
X1027188Y329256D01*
Y327986D01*
X1025919Y326716D01*
X1024649D01*
X1025919D01*
X1027188Y325447D01*
Y324177D01*
X1025919Y322908D01*
X1023380D01*
X1022110Y324177D01*
M02*
