M48
;Layer_Color=9474304
;FILE_FORMAT=4:4
METRIC,TZ
;TYPE=PLATED
T01F00S00C0.3000
T02F00S00C0.5500
T03F00S00C0.7620
T04F00S00C0.8000
T05F00S00C0.8900
T06F00S00C0.9000
T07F00S00C1.0500
T08F00S00C2.2000
%
T01
X98719Y247297
X140000Y290000
X130000Y300000
X190000Y290000
X210000
X230000
X260000Y310000
X290000Y290000
X310000
X350000
X370000
X390000Y350000
X288132Y369710
X139317Y363521
X450000Y350000
X510000
X520000Y300000
X497824Y294062
X460000Y300000
X400000
X610000
X609256Y259161
X617677Y258292
X624624Y254962
X601560Y264329
X594114Y267343
X586430Y270352
X670013Y236716
X567869Y378407
X820000Y270000
X830000
Y260000
X820000
X794113Y221103
X912892Y215823
X990013Y256716
X1000013Y276716
X980013Y296716
Y326716
Y336716
X974322Y390563
X940013Y389891
X1030013
X1056735Y384551
X1068716Y379545
X1060013Y369891
X1070013Y326716
X1080686Y335490
X1098320Y322837
X1120000Y335490
X1120013Y360694
X1122314Y266716
X1239262Y358459
X1360013Y389891
Y316716
X1390013Y306716
X1450013Y336716
X1484146Y344238
X1470013Y366716
Y376716
Y386716
X1506433Y386861
X1501094Y378227
X1496520Y371661
X1480013Y256716
X1511360Y416834
X1480000Y600000
X1470000Y610000
X1460000Y620000
X1450000Y630000
X1400000Y650000
X1390000
X1380000
X1280000Y640000
X1240013Y658201
X1190013Y659891
X1124505Y432443
X1060013Y449891
X1033234Y465008
X1028536Y473507
X1020009Y485688
X963156
X968589Y473507
X968176Y465008
X965694Y449977
X985293Y399891
X1050013
X827803Y447133
X827618Y462180
X827058Y470800
X827750Y482153
X833604Y542494
X840013Y549891
X850013
X817461Y547530
X817163Y556383
X805109Y551044
X801824Y560074
X800013Y569891
Y599891
X807011Y635696
X840013Y676717
X868338Y668338
X900013Y549891
X913488Y542403
X789907Y579947
X703542Y589428
X758506Y482153
X763468Y470656
X764014Y462419
X760340Y447829
X760013Y399891
X723721Y402571
X700013Y429631
X360606Y404436
X325591Y451124
X307723Y461685
X310013Y469891
Y489891
X282852
Y469003
X268381Y462362
X279138Y450211
X250013Y509891
X210013Y558320
X222968Y684451
X143682Y474609
T02
X1218500Y699500
X1261500
X1298500
X1341500
X1378500
X1421500
X1458500
X1181500
T03
X1213183Y406491
X1236383Y418630
X1251443Y440391
X1254613Y466521
X1245273Y491141
X1225573Y508591
X1200013Y514891
X1364753Y491141
X1355413Y466521
X1358593Y440391
X1373543Y418721
X1396853Y406491
X1423183
X1446383Y418631
X1461443Y440391
X1464613Y466521
X1455273Y491141
X1435573Y508591
X1410013Y514891
X1384453Y508591
X1174453Y508591
X1154753Y491141
X1145413Y466521
X1148593Y440391
X1163543Y418721
X1186853Y406491
X936383Y418631
X913183Y406491
X886853
X863543Y418721
X848593Y440391
X845413Y466521
X854753Y491141
X874453Y508591
X900013Y514891
X925573Y508591
X945273Y491141
X954613Y466521
X951443Y440391
X741443Y440391
X744613Y466521
X735273Y491141
X715573Y508591
X690013Y514891
X664453Y508591
X644753Y491141
X635413Y466521
X638593Y440391
X653543Y418721
X676853Y406491
X703183
X726383Y418630
X426383
X403183Y406491
X441443Y440391
X444613Y466521
X435273Y491141
X415573Y508591
X390013Y514891
X364453Y508591
X344753Y491141
X335413Y466521
X338593Y440391
X353543Y418721
X376853Y406491
X216383Y418630
X193183Y406491
X166853
X143543Y418721
X128593Y440391
X125413Y466521
X134753Y491141
X154453Y508591
X180013Y514891
X205573Y508591
X225273Y491141
X234613Y466521
X231443Y440391
T04
X440013Y657391
Y682391
X360013Y677391
Y642391
X135013Y609891
X85013
T05
X1170013Y249891
X1190013
X1190013Y319890
X1210013
X1230013
X1250013
X1270013
X1290013
X1310013
X1210013Y249891
X170000Y690000
X150000
T06
X830313Y621791
X855713
X881113
X906513
X931913
X957313
X982713
X1008113
X1033513
X1058913
X1084313
X1109713
Y697991
X1084313
X1058913
X1033513
X1008113
X982713
X957313
X931913
X906513
X881113
X855713
X830313
X779713
X754313
X728913
X703513
X678113
X652713
X627313
X601913
X576513
X551113
X525713
X500313
Y621791
X525713
X551113
X576513
X601913
X627313
X652713
X678113
X703513
X728913
X754313
X779713
T07
X464393Y579891
X355633
T08
X70000Y230000
X1520000
Y690000
X70000
M30
