G04*
G04 #@! TF.GenerationSoftware,Altium Limited,Altium Designer,25.5.2 (35)*
G04*
G04 Layer_Color=8421504*
%FSLAX44Y44*%
%MOMM*%
G71*
G04*
G04 #@! TF.SameCoordinates,D9E2C172-A1AF-44C0-98D0-4809437D878E*
G04*
G04*
G04 #@! TF.FilePolarity,Positive*
G04*
G01*
G75*
%ADD17R,1.5700X1.2500*%
%ADD18R,1.8000X1.3500*%
%ADD19R,1.0000X1.5000*%
%ADD20R,1.0000X1.5000*%
%ADD21R,1.0000X1.5000*%
%ADD22R,1.0000X1.1250*%
%ADD23R,1.0000X1.1250*%
%ADD24R,1.0000X1.1250*%
%ADD25R,1.0000X1.1250*%
%ADD26R,1.0000X1.1250*%
G04:AMPARAMS|DCode=27|XSize=1.6mm|YSize=1mm|CornerRadius=0.25mm|HoleSize=0mm|Usage=FLASHONLY|Rotation=270.000|XOffset=0mm|YOffset=0mm|HoleType=Round|Shape=RoundedRectangle|*
%AMROUNDEDRECTD27*
21,1,1.6000,0.5000,0,0,270.0*
21,1,1.1000,1.0000,0,0,270.0*
1,1,0.5000,-0.2500,-0.5500*
1,1,0.5000,-0.2500,0.5500*
1,1,0.5000,0.2500,0.5500*
1,1,0.5000,0.2500,-0.5500*
%
%ADD27ROUNDEDRECTD27*%
%ADD28R,1.2621X0.8581*%
%ADD29R,1.5000X1.2500*%
G04:AMPARAMS|DCode=30|XSize=0.6mm|YSize=1mm|CornerRadius=0.051mm|HoleSize=0mm|Usage=FLASHONLY|Rotation=90.000|XOffset=0mm|YOffset=0mm|HoleType=Round|Shape=RoundedRectangle|*
%AMROUNDEDRECTD30*
21,1,0.6000,0.8980,0,0,90.0*
21,1,0.4980,1.0000,0,0,90.0*
1,1,0.1020,0.4490,0.2490*
1,1,0.1020,0.4490,-0.2490*
1,1,0.1020,-0.4490,-0.2490*
1,1,0.1020,-0.4490,0.2490*
%
%ADD30ROUNDEDRECTD30*%
%ADD31R,0.9000X0.7500*%
%ADD32R,1.2000X0.9000*%
%ADD33R,1.0000X1.5500*%
%ADD34R,1.2621X0.9546*%
%ADD35R,1.5562X1.2552*%
%ADD36R,1.4500X1.0500*%
%ADD37O,1.5240X0.6096*%
%ADD38R,1.5240X0.6096*%
%ADD39R,1.4000X0.8000*%
%ADD40R,0.6000X0.9000*%
%ADD41R,0.7000X0.7000*%
%ADD42R,0.9000X0.7500*%
%ADD43R,0.8000X0.8000*%
%ADD44R,0.8500X0.8000*%
%ADD45R,1.2062X0.9562*%
%ADD46R,1.0500X1.4500*%
%ADD47R,0.8500X1.3000*%
G04:AMPARAMS|DCode=48|XSize=1.77mm|YSize=0.59mm|CornerRadius=0.0738mm|HoleSize=0mm|Usage=FLASHONLY|Rotation=270.000|XOffset=0mm|YOffset=0mm|HoleType=Round|Shape=RoundedRectangle|*
%AMROUNDEDRECTD48*
21,1,1.7700,0.4425,0,0,270.0*
21,1,1.6225,0.5900,0,0,270.0*
1,1,0.1475,-0.2213,-0.8113*
1,1,0.1475,-0.2213,0.8113*
1,1,0.1475,0.2213,0.8113*
1,1,0.1475,0.2213,-0.8113*
%
%ADD48ROUNDEDRECTD48*%
%ADD49R,1.8545X2.2860*%
%ADD50R,1.3500X1.0000*%
%ADD51R,1.3500X1.0000*%
%ADD52R,3.7000X1.2000*%
G04:AMPARAMS|DCode=53|XSize=1mm|YSize=1.525mm|CornerRadius=0.5mm|HoleSize=0mm|Usage=FLASHONLY|Rotation=90.000|XOffset=0mm|YOffset=0mm|HoleType=Round|Shape=RoundedRectangle|*
%AMROUNDEDRECTD53*
21,1,1.0000,0.5250,0,0,90.0*
21,1,0.0000,1.5250,0,0,90.0*
1,1,1.0000,0.2625,0.0000*
1,1,1.0000,0.2625,0.0000*
1,1,1.0000,-0.2625,0.0000*
1,1,1.0000,-0.2625,0.0000*
%
%ADD53ROUNDEDRECTD53*%
G36*
X178500Y698500D02*
X161500D01*
Y681500D01*
X166150Y681500D01*
X166404Y681475D01*
X166872Y681281D01*
X167231Y680922D01*
X167425Y680454D01*
X167450Y680200D01*
X167450Y680200D01*
X167450Y670300D01*
X172550D01*
Y680200D01*
X172575Y680454D01*
X172769Y680922D01*
X173128Y681281D01*
X173596Y681475D01*
X173850Y681500D01*
X173850Y681500D01*
X178500Y681500D01*
Y698500D01*
D02*
G37*
G36*
X141500Y681500D02*
X158500D01*
Y698500D01*
X153850D01*
X153596Y698525D01*
X153128Y698719D01*
X152769Y699078D01*
X152575Y699546D01*
X152550Y699800D01*
Y699800D01*
X152550Y709700D01*
X147450D01*
X147450Y699800D01*
X147425Y699546D01*
X147231Y699078D01*
X146872Y698719D01*
X146404Y698525D01*
X146150Y698500D01*
X146150Y698500D01*
X141500Y698500D01*
Y681500D01*
D02*
G37*
G36*
X1181513Y258391D02*
X1198513D01*
Y241391D01*
X1193863Y241390D01*
X1193609Y241366D01*
X1193140Y241171D01*
X1192782Y240813D01*
X1192588Y240344D01*
X1192563Y240091D01*
Y240091D01*
X1192563Y230191D01*
X1187463D01*
X1187463Y240091D01*
X1187438Y240344D01*
X1187243Y240813D01*
X1186885Y241171D01*
X1186416Y241366D01*
X1186163Y241390D01*
X1186163Y241391D01*
X1181513D01*
Y258391D01*
D02*
G37*
G36*
X1178513Y241391D02*
X1161513D01*
Y258391D01*
X1166163D01*
X1166416Y258416D01*
X1166885Y258610D01*
X1167243Y258968D01*
X1167438Y259437D01*
X1167463Y259691D01*
X1167463D01*
Y269591D01*
X1172563D01*
Y259691D01*
X1172588Y259437D01*
X1172782Y258968D01*
X1173140Y258610D01*
X1173609Y258416D01*
X1173863Y258391D01*
D01*
X1178513D01*
Y241391D01*
D02*
G37*
G36*
X1218513D02*
X1201513D01*
Y258391D01*
X1206163D01*
X1206416Y258416D01*
X1206885Y258610D01*
X1207243Y258968D01*
X1207438Y259437D01*
X1207463Y259691D01*
X1207463D01*
Y269591D01*
X1212563D01*
Y259691D01*
X1212588Y259437D01*
X1212782Y258968D01*
X1213140Y258610D01*
X1213609Y258416D01*
X1213863Y258391D01*
D01*
X1218513D01*
Y241391D01*
D02*
G37*
D17*
X1379347Y701252D02*
D03*
X1340652Y701251D02*
D03*
X1299346Y701252D02*
D03*
X1260652Y701251D02*
D03*
X1180651Y701249D02*
D03*
X1219348Y701248D02*
D03*
X1459346Y701251D02*
D03*
X1420650Y701250D02*
D03*
D18*
X1359998Y683750D02*
D03*
X1279998Y683750D02*
D03*
X1199998Y683750D02*
D03*
X1439999Y683750D02*
D03*
D19*
X1344500Y684500D02*
D03*
X1215499Y684501D02*
D03*
X1424500Y684500D02*
D03*
D20*
X1375498Y684502D02*
D03*
X1295497Y684503D02*
D03*
X1184501Y684500D02*
D03*
X1455499Y684501D02*
D03*
D21*
X1264500Y684500D02*
D03*
D22*
X251510Y689763D02*
D03*
X251515Y663269D02*
D03*
D23*
X251514Y676514D02*
D03*
X263512Y676517D02*
D03*
Y650017D02*
D03*
X275514Y676514D02*
D03*
X287512Y676517D02*
D03*
X299514Y676514D02*
D03*
X299512Y650016D02*
D03*
D24*
X251517Y650016D02*
D03*
D25*
X263513Y689765D02*
D03*
X263512Y663266D02*
D03*
X275513Y689765D02*
D03*
X275512Y663266D02*
D03*
X287513Y689765D02*
D03*
X287512Y663266D02*
D03*
X299513Y689765D02*
D03*
X299512Y663266D02*
D03*
D26*
X275516Y650016D02*
D03*
X287512Y650013D02*
D03*
D27*
X107313Y234141D02*
D03*
Y325640D02*
D03*
X132713D02*
D03*
Y234141D02*
D03*
X372713D02*
D03*
Y325640D02*
D03*
X347313D02*
D03*
Y234141D02*
D03*
X432713D02*
D03*
Y325640D02*
D03*
X407313D02*
D03*
Y234141D02*
D03*
X612713D02*
D03*
Y325640D02*
D03*
X587313D02*
D03*
Y234141D02*
D03*
X552713D02*
D03*
Y325640D02*
D03*
X527313D02*
D03*
Y234141D02*
D03*
X492713D02*
D03*
Y325640D02*
D03*
X467313D02*
D03*
Y234141D02*
D03*
X252713D02*
D03*
Y325640D02*
D03*
X227313D02*
D03*
Y234141D02*
D03*
X312713D02*
D03*
Y325640D02*
D03*
X287313D02*
D03*
Y234141D02*
D03*
X192713D02*
D03*
Y325640D02*
D03*
X167313D02*
D03*
Y234141D02*
D03*
D28*
X1420013Y632121D02*
D03*
Y647661D02*
D03*
D29*
Y600391D02*
D03*
Y579391D02*
D03*
D30*
X1363763Y630391D02*
D03*
X1203763D02*
D03*
Y649390D02*
D03*
X1176263D02*
D03*
Y630391D02*
D03*
Y639891D02*
D03*
X1363763Y649390D02*
D03*
X1336263D02*
D03*
Y630391D02*
D03*
Y639891D02*
D03*
D31*
X1390013Y596141D02*
D03*
Y583641D02*
D03*
D32*
X914013Y452640D02*
D03*
X704013D02*
D03*
X404013D02*
D03*
X194013D02*
D03*
X1214013D02*
D03*
X1424013D02*
D03*
X1396013D02*
D03*
Y467141D02*
D03*
X1424013D02*
D03*
X1186013Y452640D02*
D03*
Y467141D02*
D03*
X1214013D02*
D03*
X166013Y452640D02*
D03*
Y467141D02*
D03*
X194013D02*
D03*
X376013Y452640D02*
D03*
Y467141D02*
D03*
X404013D02*
D03*
X676013Y452640D02*
D03*
Y467141D02*
D03*
X704013D02*
D03*
X886013Y452640D02*
D03*
Y467141D02*
D03*
X914013D02*
D03*
D33*
X1466013Y336141D02*
D03*
Y283640D02*
D03*
X1434013D02*
D03*
Y336141D02*
D03*
D34*
X1110013Y298959D02*
D03*
Y314474D02*
D03*
X1080013Y298959D02*
D03*
Y314474D02*
D03*
X1050013Y298704D02*
D03*
Y314219D02*
D03*
D35*
X1080013Y266971D02*
D03*
Y246462D02*
D03*
X1110013Y266971D02*
D03*
Y246462D02*
D03*
X1050013Y266716D02*
D03*
Y246207D02*
D03*
X1020013Y246462D02*
D03*
Y266971D02*
D03*
D36*
X1500013Y320641D02*
D03*
Y339141D02*
D03*
Y270641D02*
D03*
Y289140D02*
D03*
D37*
X231513Y577391D02*
D03*
Y615391D02*
D03*
X170013Y589891D02*
D03*
Y602891D02*
D03*
X231513D02*
D03*
Y589891D02*
D03*
X170013Y577391D02*
D03*
D38*
Y615391D02*
D03*
D39*
X1524013Y264891D02*
D03*
Y294890D02*
D03*
Y314891D02*
D03*
Y344891D02*
D03*
D40*
X1520013Y279891D02*
D03*
Y329891D02*
D03*
D41*
X1020013Y314716D02*
D03*
Y298717D02*
D03*
D42*
X1150013Y632141D02*
D03*
Y647641D02*
D03*
X1310013Y629891D02*
D03*
Y645391D02*
D03*
X1450013Y582141D02*
D03*
Y597641D02*
D03*
X1290013Y582141D02*
D03*
Y597641D02*
D03*
D43*
X1230013Y622391D02*
D03*
Y637391D02*
D03*
D44*
Y596391D02*
D03*
Y583391D02*
D03*
D45*
X260013Y579641D02*
D03*
Y600141D02*
D03*
D46*
X290763Y349891D02*
D03*
X309263D02*
D03*
X350763D02*
D03*
X369263D02*
D03*
X429263D02*
D03*
X410763D02*
D03*
X609263D02*
D03*
X590763D02*
D03*
X530763D02*
D03*
X549263D02*
D03*
X489263D02*
D03*
X470763D02*
D03*
X110763D02*
D03*
X129263D02*
D03*
X230763D02*
D03*
X249263D02*
D03*
X189263D02*
D03*
X170763D02*
D03*
D47*
X1391513Y286716D02*
D03*
X1408513D02*
D03*
X1358513D02*
D03*
X1341513D02*
D03*
D48*
X810813Y337640D02*
D03*
X798113D02*
D03*
X785413D02*
D03*
X772713D02*
D03*
X760013D02*
D03*
X747313D02*
D03*
X734613D02*
D03*
X721913D02*
D03*
Y242141D02*
D03*
X734613D02*
D03*
X747313D02*
D03*
X760013D02*
D03*
X772713D02*
D03*
X785413D02*
D03*
X798113D02*
D03*
X810813D02*
D03*
X709213Y337640D02*
D03*
Y242141D02*
D03*
X950813D02*
D03*
X938113D02*
D03*
X925413D02*
D03*
X912713D02*
D03*
X900013D02*
D03*
X887313D02*
D03*
X874613D02*
D03*
X861913D02*
D03*
Y337640D02*
D03*
X874613D02*
D03*
X887313D02*
D03*
X900013D02*
D03*
X912713D02*
D03*
X925413D02*
D03*
X938113D02*
D03*
X950813D02*
D03*
X849213D02*
D03*
Y242141D02*
D03*
D49*
X1171090Y589891D02*
D03*
X1208935D02*
D03*
X1368935D02*
D03*
X1331090D02*
D03*
D50*
X1260013Y619891D02*
D03*
Y639891D02*
D03*
D51*
Y598891D02*
D03*
Y580891D02*
D03*
D52*
X300013Y603891D02*
D03*
Y575891D02*
D03*
D53*
X202013Y646891D02*
D03*
Y692890D02*
D03*
M02*
