G04*
G04 #@! TF.GenerationSoftware,Altium Limited,Altium Designer,25.5.2 (35)*
G04*
G04 Layer_Color=16711935*
%FSLAX44Y44*%
%MOMM*%
G71*
G04*
G04 #@! TF.SameCoordinates,5F75CC16-15F1-4AC5-BF31-021AB63D6FFF*
G04*
G04*
G04 #@! TF.FilePolarity,Negative*
G04*
G01*
G75*
%ADD32R,0.9000X0.7500*%
%ADD42R,1.5562X1.2552*%
%ADD54R,1.2532X1.6532*%
G04:AMPARAMS|DCode=58|XSize=1.8032mm|YSize=1.2032mm|CornerRadius=0.3516mm|HoleSize=0mm|Usage=FLASHONLY|Rotation=270.000|XOffset=0mm|YOffset=0mm|HoleType=Round|Shape=RoundedRectangle|*
%AMROUNDEDRECTD58*
21,1,1.8032,0.5000,0,0,270.0*
21,1,1.1000,1.2032,0,0,270.0*
1,1,0.7032,-0.2500,-0.5500*
1,1,0.7032,-0.2500,0.5500*
1,1,0.7032,0.2500,0.5500*
1,1,0.7032,0.2500,-0.5500*
%
%ADD58ROUNDEDRECTD58*%
%ADD67C,1.7272*%
%ADD68C,1.7032*%
%ADD69R,1.7032X1.7032*%
G04:AMPARAMS|DCode=70|XSize=1.5032mm|YSize=1.5032mm|CornerRadius=0.4266mm|HoleSize=0mm|Usage=FLASHONLY|Rotation=270.000|XOffset=0mm|YOffset=0mm|HoleType=Round|Shape=RoundedRectangle|*
%AMROUNDEDRECTD70*
21,1,1.5032,0.6500,0,0,270.0*
21,1,0.6500,1.5032,0,0,270.0*
1,1,0.8532,-0.3250,-0.3250*
1,1,0.8532,-0.3250,0.3250*
1,1,0.8532,0.3250,0.3250*
1,1,0.8532,0.3250,-0.3250*
%
%ADD70ROUNDEDRECTD70*%
%ADD71R,1.3900X1.3900*%
%ADD72C,1.3000*%
%ADD73C,3.6032*%
%ADD74R,1.3900X1.3900*%
%ADD75C,1.5032*%
%ADD76C,1.3900*%
%ADD77R,1.3000X1.3000*%
%ADD78R,1.6000X1.6000*%
%ADD79C,1.6000*%
%ADD80C,0.8000*%
%ADD92R,0.9121X0.9587*%
%ADD93R,1.5000X0.9000*%
%ADD94R,0.9000X1.5000*%
%ADD95R,0.9000X0.9000*%
%ADD96R,0.5000X0.3500*%
%ADD97R,0.7000X0.7000*%
%ADD100R,1.5500X1.0000*%
%ADD101R,0.9562X1.2062*%
%ADD102R,1.5046X2.7082*%
%ADD104R,1.0000X1.7000*%
%ADD105R,0.8598X0.8324*%
%ADD108R,0.6500X0.2500*%
%ADD109R,1.0532X1.5032*%
%ADD110R,1.5032X1.0532*%
%ADD111R,1.4532X1.0032*%
D32*
X910000Y247750D02*
D03*
Y232250D02*
D03*
D42*
X930000Y279745D02*
D03*
Y300255D02*
D03*
D54*
X129250Y350000D02*
D03*
X110750D02*
D03*
X170750D02*
D03*
X189250D02*
D03*
X249250D02*
D03*
X230750D02*
D03*
X309250D02*
D03*
X290750D02*
D03*
X369250D02*
D03*
X350750D02*
D03*
X429250D02*
D03*
X410750D02*
D03*
X489250D02*
D03*
X470750D02*
D03*
X549250D02*
D03*
X530750D02*
D03*
X1420750D02*
D03*
X1439250D02*
D03*
X1360750D02*
D03*
X1379250D02*
D03*
X1300750D02*
D03*
X1319250D02*
D03*
X1240000D02*
D03*
X1258500D02*
D03*
D58*
X1442700Y325750D02*
D03*
X1382699Y325750D02*
D03*
X1442700Y234250D02*
D03*
X1382699Y234250D02*
D03*
X1262700Y325750D02*
D03*
X1322699Y325750D02*
D03*
Y234250D02*
D03*
X1262700Y234250D02*
D03*
X372713Y325640D02*
D03*
X552713D02*
D03*
X492713D02*
D03*
X432713D02*
D03*
X312713D02*
D03*
X252713D02*
D03*
X192700Y325750D02*
D03*
X132713Y325640D02*
D03*
Y234141D02*
D03*
X492713D02*
D03*
X107313D02*
D03*
X1297299Y234250D02*
D03*
X1417300Y234250D02*
D03*
X192700D02*
D03*
X1237300D02*
D03*
X1357299Y234250D02*
D03*
X1417300Y325750D02*
D03*
X1357299Y325750D02*
D03*
X1297299D02*
D03*
X1237300Y325750D02*
D03*
X167300Y234250D02*
D03*
Y325750D02*
D03*
X552713Y234141D02*
D03*
X527313Y325640D02*
D03*
Y234141D02*
D03*
X312713D02*
D03*
X287313Y325640D02*
D03*
Y234141D02*
D03*
X372713D02*
D03*
X347313Y325640D02*
D03*
Y234141D02*
D03*
X432713D02*
D03*
X407313Y325640D02*
D03*
Y234141D02*
D03*
X467313Y325640D02*
D03*
Y234141D02*
D03*
X252713D02*
D03*
X227313Y325640D02*
D03*
Y234141D02*
D03*
X107313Y325640D02*
D03*
D67*
X1710000Y515000D02*
D03*
X1685000Y510000D02*
D03*
X1656000Y473000D02*
D03*
X1710000Y405000D02*
D03*
X1656000Y447000D02*
D03*
X1667000Y496000D02*
D03*
Y424000D02*
D03*
X1685000Y410000D02*
D03*
X1764000Y447000D02*
D03*
X1753000Y424000D02*
D03*
X1735000Y410000D02*
D03*
Y510000D02*
D03*
X1753000Y496000D02*
D03*
X1764000Y473000D02*
D03*
X1154753Y491141D02*
D03*
X1225573Y508591D02*
D03*
X1174453D02*
D03*
X1200013Y514891D02*
D03*
X1148593Y440391D02*
D03*
X1251443D02*
D03*
X1245273Y491141D02*
D03*
X1163543Y418721D02*
D03*
X1236383Y418630D02*
D03*
X1186853Y406491D02*
D03*
X1254613Y466521D02*
D03*
X1145413D02*
D03*
X1213183Y406491D02*
D03*
X703183D02*
D03*
X403183D02*
D03*
X913183Y406491D02*
D03*
X1423183D02*
D03*
X193183Y406491D02*
D03*
X744613Y466521D02*
D03*
X444613D02*
D03*
X954613Y466521D02*
D03*
X1464613D02*
D03*
X234613Y466521D02*
D03*
X676853Y406491D02*
D03*
X376853D02*
D03*
X886853Y406491D02*
D03*
X1396853D02*
D03*
X166853Y406491D02*
D03*
X638593Y440391D02*
D03*
X338593D02*
D03*
X848593Y440391D02*
D03*
X1358593D02*
D03*
X128593Y440391D02*
D03*
X726383Y418630D02*
D03*
X426383D02*
D03*
X936383Y418631D02*
D03*
X1446383D02*
D03*
X216383Y418630D02*
D03*
X635413Y466521D02*
D03*
X335413D02*
D03*
X845413Y466521D02*
D03*
X1355413D02*
D03*
X125413Y466521D02*
D03*
X735273Y491141D02*
D03*
X435273D02*
D03*
X945273Y491141D02*
D03*
X1455273D02*
D03*
X225273Y491141D02*
D03*
X644753D02*
D03*
X344753D02*
D03*
X854753Y491141D02*
D03*
X1364753D02*
D03*
X134753Y491141D02*
D03*
X653543Y418721D02*
D03*
X353543D02*
D03*
X863543Y418721D02*
D03*
X1373543D02*
D03*
X143543Y418721D02*
D03*
X741443Y440391D02*
D03*
X441443D02*
D03*
X951443Y440391D02*
D03*
X1461443D02*
D03*
X231443Y440391D02*
D03*
X1384453Y508591D02*
D03*
X1435573D02*
D03*
X1410013Y514891D02*
D03*
X180013Y514891D02*
D03*
X154453Y508591D02*
D03*
X205573D02*
D03*
X900013Y514891D02*
D03*
X874453Y508591D02*
D03*
X925573D02*
D03*
X390013Y514891D02*
D03*
X364453Y508591D02*
D03*
X415573D02*
D03*
X690013Y514891D02*
D03*
X664453Y508591D02*
D03*
X715573D02*
D03*
D68*
X1439433Y698142D02*
D03*
X1414033D02*
D03*
X1388633D02*
D03*
X1363233D02*
D03*
X1337833D02*
D03*
X1312433D02*
D03*
X1287033D02*
D03*
X1261633D02*
D03*
X1236233D02*
D03*
X1210833D02*
D03*
X1185433D02*
D03*
X1160033D02*
D03*
X1439433Y621942D02*
D03*
X1414033D02*
D03*
X1388633D02*
D03*
X1363233D02*
D03*
X1337833D02*
D03*
X1312433D02*
D03*
X1287033D02*
D03*
X1261633D02*
D03*
X1236233D02*
D03*
X1210833D02*
D03*
X1185433D02*
D03*
X1109700Y698100D02*
D03*
X1084300D02*
D03*
X1058900D02*
D03*
X1033500D02*
D03*
X1008100D02*
D03*
X982700D02*
D03*
X957300D02*
D03*
X931900D02*
D03*
X906500D02*
D03*
X881100D02*
D03*
X855700D02*
D03*
X830300D02*
D03*
X1109700Y621900D02*
D03*
X1084300D02*
D03*
X1058900D02*
D03*
X1033500D02*
D03*
X1008100D02*
D03*
X982700D02*
D03*
X957300D02*
D03*
X931900D02*
D03*
X906500D02*
D03*
X881100D02*
D03*
X855700D02*
D03*
X779713Y697991D02*
D03*
X754313D02*
D03*
X728913D02*
D03*
X703513D02*
D03*
X678113D02*
D03*
X652713D02*
D03*
X627313D02*
D03*
X601913D02*
D03*
X576513D02*
D03*
X551113D02*
D03*
X525713D02*
D03*
X500313D02*
D03*
X779713Y621791D02*
D03*
X754313D02*
D03*
X728913D02*
D03*
X703513D02*
D03*
X678113D02*
D03*
X652713D02*
D03*
X627313D02*
D03*
X601913D02*
D03*
X576513D02*
D03*
X551113D02*
D03*
X525713D02*
D03*
D69*
X1160033Y621942D02*
D03*
X830300Y621900D02*
D03*
X500313Y621791D02*
D03*
D70*
X360013Y642391D02*
D03*
X440013Y657391D02*
D03*
D71*
X170000Y690000D02*
D03*
D72*
X135013Y609891D02*
D03*
D73*
X1820000Y690000D02*
D03*
Y230000D02*
D03*
X70000Y690000D02*
D03*
Y230000D02*
D03*
D74*
X1180000Y240000D02*
D03*
D75*
X440013Y682391D02*
D03*
X360013Y677391D02*
D03*
D76*
X150000Y690000D02*
D03*
X1180000Y260000D02*
D03*
Y280000D02*
D03*
D77*
X85013Y609891D02*
D03*
D78*
X464393Y579891D02*
D03*
D79*
X355633D02*
D03*
D80*
X1768500Y709500D02*
D03*
X1731500D02*
D03*
X1688500D02*
D03*
X1651500D02*
D03*
X1608500D02*
D03*
X1571500D02*
D03*
X1528500D02*
D03*
X1491500D02*
D03*
D92*
X1160000Y655466D02*
D03*
Y670000D02*
D03*
X500000Y662733D02*
D03*
Y677267D02*
D03*
X830000Y662733D02*
D03*
Y677267D02*
D03*
X680000Y297267D02*
D03*
Y282733D02*
D03*
X700000Y297267D02*
D03*
Y282733D02*
D03*
X786051Y284672D02*
D03*
Y299206D02*
D03*
D93*
X961513Y249391D02*
D03*
Y262090D02*
D03*
Y274790D02*
D03*
Y287491D02*
D03*
Y350990D02*
D03*
Y363690D02*
D03*
Y376390D02*
D03*
Y389090D02*
D03*
Y401791D02*
D03*
X1136513D02*
D03*
Y389090D02*
D03*
Y376390D02*
D03*
Y363690D02*
D03*
Y350990D02*
D03*
Y338290D02*
D03*
Y325591D02*
D03*
Y312890D02*
D03*
Y300191D02*
D03*
Y287491D02*
D03*
Y274790D02*
D03*
Y262090D02*
D03*
Y249391D02*
D03*
X961513Y325591D02*
D03*
Y312890D02*
D03*
Y338290D02*
D03*
Y300191D02*
D03*
Y236691D02*
D03*
X1136513D02*
D03*
D94*
X1004613Y414291D02*
D03*
X1017313D02*
D03*
X1030013D02*
D03*
X1042713D02*
D03*
X1055413D02*
D03*
X1068113D02*
D03*
X1080813D02*
D03*
X1093513D02*
D03*
X1106213D02*
D03*
X991913D02*
D03*
D95*
X1020013Y299891D02*
D03*
Y313890D02*
D03*
X1034013Y299891D02*
D03*
Y313891D02*
D03*
X1020013Y327891D02*
D03*
X1034013D02*
D03*
X1048013Y299891D02*
D03*
Y327891D02*
D03*
Y313890D02*
D03*
D96*
X738000Y286750D02*
D03*
Y293250D02*
D03*
Y299750D02*
D03*
X722000D02*
D03*
Y293250D02*
D03*
Y280250D02*
D03*
Y286750D02*
D03*
X738000Y280250D02*
D03*
D97*
X900000Y282000D02*
D03*
Y298000D02*
D03*
D100*
X1746250Y274000D02*
D03*
X1693750D02*
D03*
X1746250Y306000D02*
D03*
X1693750D02*
D03*
D101*
X210263Y569891D02*
D03*
X189763D02*
D03*
D102*
X284008Y670000D02*
D03*
X235992D02*
D03*
D104*
X821750Y292500D02*
D03*
D105*
X930000Y233863D02*
D03*
Y246137D02*
D03*
D108*
X809500Y300000D02*
D03*
Y295000D02*
D03*
Y290000D02*
D03*
Y285000D02*
D03*
X834000D02*
D03*
Y290000D02*
D03*
Y295000D02*
D03*
Y300000D02*
D03*
D109*
X828500Y250000D02*
D03*
X811500D02*
D03*
D110*
X870000Y271500D02*
D03*
Y288500D02*
D03*
X260013Y561391D02*
D03*
Y578391D02*
D03*
D111*
Y611890D02*
D03*
Y627891D02*
D03*
M02*
